%TF.GenerationSoftware,KiCad,Pcbnew,(5.1.7)-1*%
%TF.CreationDate,2021-01-23T13:14:38+03:00*%
%TF.ProjectId,LED_Cloud,4c45445f-436c-46f7-9564-2e6b69636164,rev?*%
%TF.SameCoordinates,Original*%
%TF.FileFunction,Copper,L2,Inr*%
%TF.FilePolarity,Positive*%
%FSLAX46Y46*%
G04 Gerber Fmt 4.6, Leading zero omitted, Abs format (unit mm)*
G04 Created by KiCad (PCBNEW (5.1.7)-1) date 2021-01-23 13:14:38*
%MOMM*%
%LPD*%
G01*
G04 APERTURE LIST*
%TA.AperFunction,ComponentPad*%
%ADD10R,1.800000X4.400000*%
%TD*%
%TA.AperFunction,ComponentPad*%
%ADD11O,1.800000X4.000000*%
%TD*%
%TA.AperFunction,ComponentPad*%
%ADD12O,4.000000X1.800000*%
%TD*%
%TA.AperFunction,ViaPad*%
%ADD13C,0.500000*%
%TD*%
%TA.AperFunction,ViaPad*%
%ADD14C,0.600000*%
%TD*%
%TA.AperFunction,ViaPad*%
%ADD15C,0.800000*%
%TD*%
%TA.AperFunction,Conductor*%
%ADD16C,0.200000*%
%TD*%
%TA.AperFunction,Conductor*%
%ADD17C,0.250000*%
%TD*%
%TA.AperFunction,Conductor*%
%ADD18C,1.500000*%
%TD*%
%TA.AperFunction,Conductor*%
%ADD19C,2.500000*%
%TD*%
%TA.AperFunction,Conductor*%
%ADD20C,4.000000*%
%TD*%
%TA.AperFunction,Conductor*%
%ADD21C,5.000000*%
%TD*%
G04 APERTURE END LIST*
D10*
%TO.N,VBUS*%
%TO.C,J2*%
X28700000Y-157090000D03*
D11*
%TO.N,GND*%
X22900000Y-157090000D03*
D12*
X25700000Y-152290000D03*
%TD*%
D13*
%TO.N,Net-(D10-Pad3)*%
X36260000Y-108020000D03*
%TO.N,Net-(D10-Pad2)*%
X37000001Y-105079999D03*
%TO.N,Net-(D10-Pad1)*%
X37580000Y-105500000D03*
X37593554Y-107393554D03*
X37810000Y-110550000D03*
D14*
%TO.N,Net-(D25-Pad4)*%
X52770000Y-91830000D03*
X47290000Y-91940000D03*
X41800000Y-91940000D03*
D13*
X46024999Y-91940000D03*
X46024999Y-106072901D03*
D14*
%TO.N,Net-(D10-Pad4)*%
X52770000Y-97030000D03*
X47290000Y-97140000D03*
X36370000Y-97140000D03*
X41800000Y-97140000D03*
D13*
X45989081Y-103690919D03*
X46010000Y-97140000D03*
D14*
%TO.N,Net-(D11-Pad4)*%
X52770000Y-102230000D03*
X47290000Y-102340000D03*
X36370000Y-102340000D03*
X41800000Y-102340000D03*
D13*
%TO.N,Net-(D12-Pad4)*%
X47436666Y-107591333D03*
X36150000Y-105210000D03*
X52750000Y-105190000D03*
D14*
X41750000Y-105240000D03*
D13*
%TO.N,Net-(D13-Pad4)*%
X52890000Y-112840000D03*
X36280000Y-112800000D03*
X40950000Y-113360000D03*
X47340000Y-113110000D03*
X51190000Y-106390000D03*
D14*
%TO.N,Net-(D14-Pad4)*%
X47290000Y-117940000D03*
X36370000Y-117940000D03*
X41800000Y-117940000D03*
D13*
X52660000Y-117940000D03*
X52620000Y-107520000D03*
D15*
%TO.N,VBUS*%
X94190000Y-107150000D03*
D14*
X81575001Y-102915000D03*
X103575001Y-102915000D03*
X125575001Y-102915000D03*
X147575001Y-102915000D03*
D15*
X116190000Y-107150000D03*
X138190000Y-107150000D03*
X160190000Y-107150000D03*
D14*
X59575001Y-102915000D03*
X37575001Y-102915000D03*
D15*
X72190000Y-107150000D03*
X50190000Y-107150000D03*
D14*
X45920000Y-113980000D03*
X67920000Y-113980000D03*
X89920000Y-113980000D03*
X111920000Y-113980000D03*
X133920000Y-113980000D03*
X155920000Y-113980000D03*
D13*
X129610000Y-115440000D03*
D15*
X58280000Y-57660000D03*
D13*
%TO.N,GND*%
X43060000Y-110360000D03*
X45190000Y-109660000D03*
X45350000Y-110700000D03*
X40524999Y-115080000D03*
X67350000Y-110700000D03*
X67190000Y-109660000D03*
X62524999Y-115080000D03*
X65060000Y-110360000D03*
X89350000Y-110700000D03*
X89190000Y-109660000D03*
X84524999Y-115080000D03*
X87060000Y-110360000D03*
X111350000Y-110700000D03*
X111190000Y-109660000D03*
X106524999Y-115080000D03*
X109060000Y-110360000D03*
X133350000Y-110700000D03*
X131060000Y-110360000D03*
X133190000Y-109660000D03*
X155350000Y-110700000D03*
X153060000Y-110360000D03*
X155190000Y-109660000D03*
D14*
X78210000Y-104160000D03*
X39340000Y-104450000D03*
D13*
X78230000Y-111510000D03*
D14*
X49410000Y-52440000D03*
X50380000Y-50040000D03*
X64670000Y-39920000D03*
X57880000Y-47990000D03*
X68240000Y-39820000D03*
X72500000Y-100500000D03*
X94400000Y-100200000D03*
X116700000Y-100000000D03*
X138300000Y-100200000D03*
X160600000Y-100200000D03*
X50700000Y-100300000D03*
X100200000Y-100400000D03*
X100400000Y-105300000D03*
X56100000Y-104700000D03*
X122100000Y-105500000D03*
X144210000Y-105500000D03*
D13*
%TO.N,+3V3*%
X45258376Y-114222026D03*
X67240000Y-114410000D03*
X89240000Y-114410000D03*
X111240000Y-114410000D03*
X133240000Y-114410000D03*
X155240000Y-114410000D03*
X23890000Y-39020000D03*
X44300000Y-39990000D03*
X28960000Y-39020000D03*
X56390000Y-113900000D03*
X26230000Y-60920000D03*
D14*
X21750000Y-67930000D03*
X20524999Y-76390000D03*
X40530000Y-88240000D03*
%TO.N,Net-(D107-Pad4)*%
X69290000Y-102340000D03*
X58370000Y-102340000D03*
X74770000Y-102230000D03*
X63800000Y-102340000D03*
D13*
%TO.N,SCL*%
X39850000Y-115940000D03*
X61850000Y-115940000D03*
X83850000Y-115940000D03*
X105850000Y-115940000D03*
X127850000Y-115940000D03*
X149850000Y-115940000D03*
X24140000Y-63460000D03*
%TO.N,SDA*%
X40090000Y-116760000D03*
X62090000Y-116760000D03*
X84090000Y-116760000D03*
X106090000Y-116760000D03*
X128090000Y-116760000D03*
X150090000Y-116760000D03*
X28450000Y-62960000D03*
%TO.N,SYNC*%
X40380000Y-117350000D03*
X62380000Y-117350000D03*
X84380000Y-117350000D03*
X106380000Y-117350000D03*
X128380000Y-117350000D03*
X150380000Y-117350000D03*
D14*
%TO.N,Net-(D103-Pad4)*%
X66525001Y-81540000D03*
D13*
X67125000Y-104960000D03*
D14*
X63800000Y-81540000D03*
X74770000Y-81430000D03*
X69290000Y-81540000D03*
X58370000Y-81540000D03*
D13*
%TO.N,Net-(D104-Pad4)*%
X67340001Y-105942697D03*
X68024999Y-86740000D03*
D14*
X58370000Y-86740000D03*
X69290000Y-86740000D03*
X74770000Y-86630000D03*
X63800000Y-86740000D03*
D13*
%TO.N,Net-(D105-Pad4)*%
X68024999Y-106072901D03*
X68024999Y-91940000D03*
D14*
X58370000Y-91940000D03*
X63800000Y-91940000D03*
X74770000Y-91830000D03*
X69290000Y-91940000D03*
D13*
%TO.N,Net-(D106-Pad4)*%
X67989081Y-103690919D03*
X68010000Y-97140000D03*
D14*
X69290000Y-97140000D03*
X74770000Y-97030000D03*
X58370000Y-97140000D03*
X63800000Y-97140000D03*
D13*
%TO.N,Net-(D108-Pad4)*%
X74750000Y-105190000D03*
X58150000Y-105210000D03*
X69436666Y-107591333D03*
D14*
X63730000Y-105240000D03*
D13*
%TO.N,Net-(D109-Pad4)*%
X74890000Y-112840000D03*
X58280000Y-112800000D03*
X69340000Y-113110000D03*
X62950000Y-113360000D03*
X73190000Y-106390000D03*
%TO.N,Net-(D110-Pad4)*%
X74620000Y-107520000D03*
X74660000Y-117940000D03*
D14*
X63800000Y-117940000D03*
X58370000Y-117940000D03*
X69290000Y-117940000D03*
D13*
%TO.N,Net-(D111-Pad4)*%
X73124978Y-111038164D03*
X73261184Y-123338490D03*
D14*
X74770000Y-123030000D03*
X63800000Y-123140000D03*
X69290000Y-123140000D03*
X58370000Y-123140000D03*
D13*
%TO.N,Net-(D112-Pad4)*%
X72410000Y-111120000D03*
X73050000Y-128340000D03*
D14*
X74770000Y-128230000D03*
X63800000Y-128340000D03*
X69290000Y-128340000D03*
X58370000Y-128340000D03*
D13*
%TO.N,Net-(D113-Pad4)*%
X71978513Y-111668896D03*
X72540000Y-133540000D03*
D14*
X69290000Y-133540000D03*
X63800000Y-133540000D03*
X74770000Y-133430000D03*
X58370000Y-133540000D03*
D13*
%TO.N,Net-(D114-Pad4)*%
X72035218Y-112316430D03*
X71520000Y-138740000D03*
D14*
X63800000Y-138740000D03*
X69290000Y-138740000D03*
X74770000Y-138630000D03*
X58370000Y-138740000D03*
D13*
%TO.N,SDB*%
X39198708Y-115697431D03*
X61198708Y-115697431D03*
X83198708Y-115697431D03*
X105198708Y-115697431D03*
X127198708Y-115697431D03*
X149198708Y-115697431D03*
X56210000Y-111980000D03*
%TO.N,IICRST*%
X38980963Y-115084986D03*
X60980963Y-115084986D03*
X82980963Y-115084986D03*
X104980963Y-115084986D03*
X126980963Y-115084986D03*
X148980963Y-115084986D03*
X78750000Y-115149950D03*
D14*
%TO.N,Net-(D133-Pad4)*%
X91290000Y-71140000D03*
X96770000Y-71030000D03*
X80370000Y-71140000D03*
D13*
X84248538Y-104857383D03*
D14*
X85800000Y-71140000D03*
%TO.N,Net-(D134-Pad4)*%
X85800000Y-76340000D03*
X91290000Y-76340000D03*
X96770000Y-76230000D03*
X80370000Y-76340000D03*
D13*
X84520000Y-104150000D03*
D14*
%TO.N,Net-(D135-Pad4)*%
X96770000Y-81430000D03*
X91290000Y-81540000D03*
X80370000Y-81540000D03*
X85800000Y-81540000D03*
D13*
X89125000Y-104960000D03*
D14*
X88525001Y-81540000D03*
%TO.N,Net-(D136-Pad4)*%
X80370000Y-86740000D03*
X96770000Y-86630000D03*
X91290000Y-86740000D03*
X85800000Y-86740000D03*
D13*
X89340001Y-105942697D03*
X90024999Y-86740000D03*
D14*
%TO.N,Net-(D137-Pad4)*%
X85800000Y-91940000D03*
X91290000Y-91940000D03*
X80370000Y-91940000D03*
X96770000Y-91830000D03*
D13*
X90024999Y-106072901D03*
X90024999Y-91940000D03*
D14*
%TO.N,Net-(D138-Pad4)*%
X91290000Y-97140000D03*
X96770000Y-97030000D03*
X80370000Y-97140000D03*
X85800000Y-97140000D03*
D13*
X89989081Y-103690919D03*
X90010000Y-97140000D03*
D14*
%TO.N,Net-(D139-Pad4)*%
X91290000Y-102340000D03*
X96770000Y-102230000D03*
X85800000Y-102340000D03*
X80370000Y-102340000D03*
D13*
%TO.N,Net-(D140-Pad4)*%
X96750000Y-105190000D03*
X80150000Y-105210000D03*
X91436666Y-107591333D03*
X84375923Y-107290000D03*
%TO.N,Net-(D141-Pad4)*%
X96890000Y-112840000D03*
X80280000Y-112800000D03*
X91340000Y-113110000D03*
X84950000Y-113360000D03*
X95190000Y-106390000D03*
D14*
%TO.N,Net-(D142-Pad4)*%
X80370000Y-117940000D03*
X91290000Y-117940000D03*
X85800000Y-117940000D03*
D13*
X96660000Y-117940000D03*
X96620000Y-107520000D03*
%TO.N,Net-(D143-Pad4)*%
X95124978Y-111038164D03*
X95261184Y-123338490D03*
D14*
X96770000Y-123030000D03*
X91290000Y-123140000D03*
X80370000Y-123140000D03*
X85800000Y-123140000D03*
%TO.N,Net-(D144-Pad4)*%
X80370000Y-128340000D03*
X85800000Y-128340000D03*
X96770000Y-128230000D03*
X91290000Y-128340000D03*
D13*
X94410000Y-111120000D03*
X95050000Y-128340000D03*
D14*
%TO.N,Net-(D145-Pad4)*%
X91290000Y-133540000D03*
X96770000Y-133430000D03*
X85800000Y-133540000D03*
X80370000Y-133540000D03*
D13*
X93978513Y-111668896D03*
X94540000Y-133540000D03*
D14*
%TO.N,Net-(D146-Pad4)*%
X96770000Y-138630000D03*
X80370000Y-138740000D03*
X91290000Y-138740000D03*
X85800000Y-138740000D03*
D13*
X94035218Y-112316430D03*
X93520000Y-138740000D03*
%TO.N,Net-(D163-Pad1)*%
X93450001Y-102900001D03*
X83291140Y-109246223D03*
%TO.N,Net-(D163-Pad2)*%
X92125002Y-103400001D03*
X83268727Y-109895849D03*
%TO.N,Net-(D163-Pad3)*%
X91630000Y-105120000D03*
X83264962Y-110545850D03*
%TO.N,Net-(D179-Pad1)*%
X83403147Y-111181004D03*
X98130000Y-105240000D03*
%TO.N,Net-(D179-Pad2)*%
X97548505Y-108364726D03*
X83340000Y-111930000D03*
%TO.N,Net-(D179-Pad3)*%
X96830000Y-110199989D03*
X83574050Y-112536402D03*
%TO.N,Net-(D195-Pad1)*%
X103810000Y-110550000D03*
X103593554Y-107393554D03*
X103580000Y-105500000D03*
%TO.N,Net-(D195-Pad2)*%
X103000001Y-105079999D03*
%TO.N,Net-(D195-Pad3)*%
X102260000Y-108020000D03*
D15*
%TO.N,Net-(D195-Pad4)*%
X103003843Y-60678514D03*
D13*
X105046542Y-105323813D03*
D15*
X108461486Y-60678514D03*
D14*
%TO.N,Net-(D196-Pad4)*%
X102370000Y-65940000D03*
X113290000Y-65940000D03*
X107800000Y-65940000D03*
D13*
X105677622Y-105168120D03*
D14*
%TO.N,Net-(D197-Pad4)*%
X102370000Y-71140000D03*
X107800000Y-71140000D03*
D13*
X106248538Y-104857383D03*
D14*
X113290000Y-71140000D03*
X118770000Y-71030000D03*
%TO.N,Net-(D198-Pad4)*%
X102370000Y-76340000D03*
D13*
X106520000Y-104150000D03*
D14*
X107800000Y-76340000D03*
X113290000Y-76340000D03*
X118770000Y-76230000D03*
%TO.N,Net-(D199-Pad4)*%
X113290000Y-81540000D03*
D13*
X111125000Y-104960000D03*
D14*
X118770000Y-81430000D03*
X107800000Y-81540000D03*
X110525001Y-81540000D03*
X102370000Y-81540000D03*
%TO.N,Net-(D200-Pad4)*%
X102370000Y-86740000D03*
X113290000Y-86740000D03*
X107800000Y-86740000D03*
X118770000Y-86630000D03*
D13*
X111340001Y-105942697D03*
X112024999Y-86740000D03*
D14*
%TO.N,Net-(D201-Pad4)*%
X102370000Y-91940000D03*
X113290000Y-91940000D03*
D13*
X112024999Y-106072901D03*
X112024999Y-91940000D03*
D14*
X107800000Y-91940000D03*
X118770000Y-91830000D03*
D13*
%TO.N,Net-(D202-Pad4)*%
X112010000Y-97140000D03*
D14*
X107800000Y-97140000D03*
X113290000Y-97140000D03*
X118770000Y-97030000D03*
X102370000Y-97140000D03*
D13*
X111989081Y-103690919D03*
D14*
%TO.N,Net-(D203-Pad4)*%
X102370000Y-102340000D03*
X118770000Y-102230000D03*
X113290000Y-102340000D03*
X107800000Y-102340000D03*
D13*
%TO.N,Net-(D204-Pad4)*%
X118750000Y-105190000D03*
X113436666Y-107591333D03*
X102150000Y-105210000D03*
X106370000Y-107320000D03*
%TO.N,Net-(D205-Pad4)*%
X106950000Y-113360000D03*
X102280000Y-112800000D03*
X113340000Y-113110000D03*
X118890000Y-112840000D03*
X117190000Y-106390000D03*
D14*
%TO.N,Net-(D206-Pad4)*%
X113290000Y-117940000D03*
X102370000Y-117940000D03*
D13*
X118620000Y-107520000D03*
D14*
X107800000Y-117940000D03*
D13*
X118660000Y-117940000D03*
%TO.N,Net-(D207-Pad4)*%
X117261184Y-123338490D03*
D14*
X113290000Y-123140000D03*
X118770000Y-123030000D03*
D13*
X117124978Y-111038164D03*
D14*
X107800000Y-123140000D03*
X102370000Y-123140000D03*
%TO.N,Net-(D208-Pad4)*%
X107800000Y-128340000D03*
X102370000Y-128340000D03*
X113290000Y-128340000D03*
D13*
X117050000Y-128340000D03*
X116410000Y-111120000D03*
D14*
X118770000Y-128230000D03*
%TO.N,Net-(D209-Pad4)*%
X118770000Y-133430000D03*
X102370000Y-133540000D03*
D13*
X115978513Y-111668896D03*
D14*
X113290000Y-133540000D03*
D13*
X116540000Y-133540000D03*
D14*
X107800000Y-133540000D03*
%TO.N,Net-(D210-Pad4)*%
X107800000Y-138740000D03*
X102370000Y-138740000D03*
X113290000Y-138740000D03*
X118770000Y-138630000D03*
D13*
X115520000Y-138740000D03*
X116035218Y-112316430D03*
%TO.N,Net-(D211-Pad3)*%
X105277329Y-108540219D03*
%TO.N,Net-(D211-Pad2)*%
X105153533Y-107902104D03*
X108510000Y-115560000D03*
X104975001Y-114435011D03*
%TO.N,Net-(D211-Pad1)*%
X105288139Y-107266182D03*
X109950001Y-118465000D03*
D14*
%TO.N,Net-(D262-Pad4)*%
X124370000Y-76340000D03*
D13*
X127610000Y-104940000D03*
%TO.N,Net-(D263-Pad4)*%
X133125000Y-104960000D03*
D14*
X129800000Y-81540000D03*
X132525001Y-81540000D03*
X124370000Y-81540000D03*
%TO.N,Net-(D264-Pad4)*%
X135290000Y-86740000D03*
X129800000Y-86740000D03*
X124370000Y-86740000D03*
X140770000Y-86630000D03*
D13*
X133340001Y-105942697D03*
X134024999Y-86740000D03*
D14*
%TO.N,Net-(D265-Pad4)*%
X129800000Y-91940000D03*
X140770000Y-91830000D03*
X124370000Y-91940000D03*
X135290000Y-91940000D03*
D13*
X134024999Y-91940000D03*
X134024999Y-106072901D03*
%TO.N,Net-(D266-Pad4)*%
X133989081Y-103690919D03*
X134010000Y-97140000D03*
D14*
X135290000Y-97140000D03*
X129800000Y-97140000D03*
X140770000Y-97030000D03*
X124370000Y-97140000D03*
%TO.N,Net-(D267-Pad4)*%
X124370000Y-102340000D03*
X140770000Y-102230000D03*
X135290000Y-102340000D03*
X129800000Y-102340000D03*
D13*
%TO.N,Net-(D268-Pad4)*%
X124150000Y-105210000D03*
X135436666Y-107591333D03*
X140750000Y-105190000D03*
X128300000Y-107330000D03*
%TO.N,Net-(D269-Pad4)*%
X124280000Y-112800000D03*
X135340000Y-113110000D03*
X128950000Y-113360000D03*
X139190000Y-106390000D03*
X140890000Y-112840000D03*
%TO.N,Net-(D270-Pad4)*%
X140660000Y-117940000D03*
D14*
X135290000Y-117940000D03*
X124370000Y-117940000D03*
X129800000Y-117940000D03*
D13*
X140620000Y-107520000D03*
D14*
%TO.N,Net-(D271-Pad4)*%
X124370000Y-123140000D03*
D13*
X139261184Y-123338490D03*
D14*
X135290000Y-123140000D03*
X129800000Y-123140000D03*
D13*
X139124978Y-111038164D03*
D14*
X140770000Y-123030000D03*
%TO.N,Net-(D272-Pad4)*%
X140770000Y-128230000D03*
D13*
X138410000Y-111120000D03*
D14*
X129800000Y-128340000D03*
D13*
X139050000Y-128340000D03*
D14*
X135290000Y-128340000D03*
X124370000Y-128340000D03*
%TO.N,Net-(D273-Pad4)*%
X129800000Y-133540000D03*
X140770000Y-133430000D03*
X135290000Y-133540000D03*
X124370000Y-133540000D03*
D13*
X137978513Y-111668896D03*
X138540000Y-133540000D03*
%TO.N,Net-(D274-Pad4)*%
X138035218Y-112316430D03*
D14*
X129800000Y-138740000D03*
X140770000Y-138630000D03*
X124370000Y-138740000D03*
X135290000Y-138740000D03*
D13*
X137520000Y-138740000D03*
D14*
%TO.N,Net-(D329-Pad4)*%
X151800000Y-91940000D03*
X146370000Y-91940000D03*
D13*
X156024999Y-106072901D03*
X154680000Y-91950000D03*
%TO.N,Net-(D330-Pad4)*%
X155989081Y-103690919D03*
X156010000Y-97140000D03*
D14*
X151800000Y-97140000D03*
X146370000Y-97140000D03*
X157200000Y-97220000D03*
%TO.N,Net-(D331-Pad4)*%
X146370000Y-102340000D03*
X162770000Y-102230000D03*
X157290000Y-102340000D03*
X151800000Y-102340000D03*
D13*
%TO.N,Net-(D332-Pad4)*%
X146150000Y-105210000D03*
X157436666Y-107591333D03*
X162750000Y-105190000D03*
X150320000Y-107270000D03*
%TO.N,Net-(D333-Pad4)*%
X157340000Y-113110000D03*
X150950000Y-113360000D03*
X161190000Y-106390000D03*
X146280000Y-112800000D03*
X162890000Y-112840000D03*
%TO.N,Net-(D334-Pad4)*%
X162660000Y-117940000D03*
D14*
X157290000Y-117940000D03*
X146370000Y-117940000D03*
D13*
X162620000Y-107520000D03*
D14*
X151800000Y-117940000D03*
%TO.N,Net-(D335-Pad4)*%
X146370000Y-123140000D03*
D13*
X161261184Y-123338490D03*
D14*
X151800000Y-123140000D03*
D13*
X161124978Y-111038164D03*
D14*
X157290000Y-123140000D03*
D13*
%TO.N,Net-(D336-Pad4)*%
X160410000Y-111120000D03*
D14*
X151800000Y-128340000D03*
D13*
X161050000Y-128340000D03*
D14*
X146370000Y-128340000D03*
X157290000Y-128340000D03*
%TO.N,Net-(D337-Pad4)*%
X151800000Y-133540000D03*
D13*
X159978513Y-111668896D03*
D14*
X146370000Y-133540000D03*
D15*
X153762095Y-133543063D03*
D13*
%TO.N,Net-(D338-Pad4)*%
X160035218Y-112316430D03*
D14*
X146370000Y-138740000D03*
D15*
X159650000Y-129015000D03*
D14*
%TO.N,EN*%
X44875000Y-49085000D03*
X71250000Y-38440000D03*
D13*
%TO.N,USB_D+*%
X57910000Y-43180000D03*
X50800000Y-52730000D03*
%TO.N,USB_D-*%
X51400000Y-52830000D03*
X56860000Y-43300000D03*
%TO.N,Net-(D25-Pad3)*%
X39277329Y-108540219D03*
%TO.N,Net-(D25-Pad2)*%
X38975001Y-114435011D03*
X39153533Y-107902104D03*
X42500000Y-115480000D03*
%TO.N,Net-(D25-Pad1)*%
X43950001Y-118465000D03*
X39288139Y-107266182D03*
D14*
%TO.N,Net-(D31-Pad4)*%
X52770000Y-123030000D03*
X47290000Y-123140000D03*
X41800000Y-123140000D03*
D13*
X51124978Y-111038164D03*
X51261184Y-123121184D03*
D14*
%TO.N,Net-(D32-Pad4)*%
X52770000Y-128230000D03*
X47290000Y-128340000D03*
X41800000Y-128340000D03*
D13*
X50410000Y-111120000D03*
X51050000Y-128340000D03*
%TO.N,Net-(D40-Pad4)*%
X45340001Y-105942697D03*
D14*
X47290000Y-86740000D03*
X52770000Y-86630000D03*
D13*
%TO.N,Net-(D40-Pad3)*%
X47630000Y-105120000D03*
X39264962Y-110545850D03*
%TO.N,Net-(D40-Pad2)*%
X48125002Y-103400001D03*
X39268727Y-109895849D03*
%TO.N,Net-(D40-Pad1)*%
X49450001Y-102900001D03*
X39291140Y-109246223D03*
D14*
%TO.N,Net-(D49-Pad4)*%
X52770000Y-133430000D03*
X47290000Y-133540000D03*
D13*
X50540000Y-133540000D03*
X49978513Y-111668896D03*
%TO.N,Net-(D55-Pad4)*%
X45125000Y-104960000D03*
%TO.N,Net-(D55-Pad3)*%
X39574050Y-112536402D03*
X52830000Y-110199989D03*
%TO.N,Net-(D55-Pad2)*%
X39340000Y-111930000D03*
X53548505Y-108364726D03*
%TO.N,Net-(D55-Pad1)*%
X54130000Y-105240000D03*
X39403147Y-111181004D03*
%TO.N,Net-(D66-Pad4)*%
X50035218Y-112316430D03*
D14*
X52779067Y-138620410D03*
D13*
X51890000Y-139420000D03*
%TO.N,Net-(D71-Pad3)*%
X58260000Y-108020000D03*
%TO.N,Net-(D71-Pad2)*%
X59000001Y-105079999D03*
%TO.N,Net-(D71-Pad1)*%
X59810000Y-110550000D03*
X59593554Y-107393554D03*
X59580000Y-105500000D03*
%TO.N,Net-(D87-Pad1)*%
X65950001Y-118465000D03*
X61288139Y-107266182D03*
%TO.N,Net-(D87-Pad2)*%
X64510000Y-115560000D03*
X61153533Y-107902104D03*
X60975001Y-114435011D03*
%TO.N,Net-(D87-Pad3)*%
X61277329Y-108540219D03*
%TO.N,Net-(D103-Pad1)*%
X71450001Y-102900001D03*
X61291140Y-109246223D03*
%TO.N,Net-(D103-Pad2)*%
X70125002Y-103400001D03*
X61268727Y-109895849D03*
%TO.N,Net-(D103-Pad3)*%
X61264962Y-110545850D03*
X69630000Y-105120000D03*
%TO.N,Net-(D118-Pad1)*%
X76130000Y-105240000D03*
X61403147Y-111181004D03*
%TO.N,Net-(D118-Pad2)*%
X75548505Y-108364726D03*
X61340000Y-111930000D03*
%TO.N,Net-(D118-Pad3)*%
X74830000Y-110199989D03*
X61574050Y-112536402D03*
%TO.N,Net-(D118-Pad4)*%
X62520000Y-104150000D03*
D14*
X74770000Y-76230000D03*
D13*
%TO.N,Net-(D133-Pad1)*%
X81810000Y-110550000D03*
X81593554Y-107393554D03*
X81580000Y-105500000D03*
%TO.N,Net-(D133-Pad2)*%
X81000001Y-105079999D03*
%TO.N,Net-(D133-Pad3)*%
X80260000Y-108020000D03*
D14*
%TO.N,Net-(D148-Pad4)*%
X96770000Y-65830000D03*
X91290000Y-65940000D03*
X85800000Y-65940000D03*
D13*
X83677622Y-105168120D03*
%TO.N,Net-(D148-Pad3)*%
X83277329Y-108540219D03*
%TO.N,Net-(D148-Pad2)*%
X86510000Y-115560000D03*
X82975001Y-114435011D03*
X83153533Y-107902104D03*
%TO.N,Net-(D148-Pad1)*%
X87950001Y-118465000D03*
X83288139Y-107266182D03*
%TO.N,Net-(D163-Pad4)*%
X83046542Y-105323813D03*
D15*
X96558514Y-60678514D03*
X91451486Y-60678514D03*
D13*
%TO.N,Net-(D228-Pad1)*%
X105291140Y-109246223D03*
X115450001Y-102900001D03*
%TO.N,Net-(D228-Pad2)*%
X105268727Y-109895849D03*
X114125002Y-103400001D03*
%TO.N,Net-(D228-Pad3)*%
X113630000Y-105120000D03*
X105264962Y-110545850D03*
%TO.N,Net-(D245-Pad1)*%
X120130000Y-105240000D03*
X105403147Y-111181004D03*
%TO.N,Net-(D245-Pad2)*%
X119548505Y-108364726D03*
X105340000Y-111930000D03*
%TO.N,Net-(D245-Pad3)*%
X118830000Y-110199989D03*
X105574050Y-112536402D03*
%TO.N,Net-(D262-Pad1)*%
X125810000Y-110550000D03*
X125593554Y-107393554D03*
X125580000Y-105500000D03*
%TO.N,Net-(D262-Pad2)*%
X125000001Y-105079999D03*
%TO.N,Net-(D262-Pad3)*%
X124260000Y-108020000D03*
%TO.N,Net-(D279-Pad3)*%
X127277329Y-108540219D03*
%TO.N,Net-(D279-Pad2)*%
X127153533Y-107902104D03*
X126975001Y-114435011D03*
X130510000Y-115560000D03*
%TO.N,Net-(D279-Pad1)*%
X127288139Y-107266182D03*
X131950001Y-118465000D03*
%TO.N,Net-(D296-Pad3)*%
X135630000Y-105120000D03*
X127264962Y-110545850D03*
%TO.N,Net-(D296-Pad2)*%
X127268727Y-109895849D03*
X136125002Y-103400001D03*
%TO.N,Net-(D296-Pad1)*%
X127291140Y-109246223D03*
X137450001Y-102900001D03*
%TO.N,Net-(D312-Pad3)*%
X127574050Y-112536402D03*
X140830000Y-110199989D03*
%TO.N,Net-(D312-Pad2)*%
X127340000Y-111930000D03*
X141548505Y-108364726D03*
%TO.N,Net-(D312-Pad1)*%
X127403147Y-111181004D03*
X142130000Y-105240000D03*
%TO.N,Net-(D345-Pad1)*%
X149288139Y-107266182D03*
X153950001Y-118465000D03*
%TO.N,Net-(D345-Pad2)*%
X152510000Y-115560000D03*
X149153533Y-107902104D03*
X148975001Y-114435011D03*
%TO.N,Net-(D345-Pad3)*%
X149277329Y-108540219D03*
%TO.N,Net-(D361-Pad1)*%
X149291140Y-109246223D03*
X159450001Y-102900001D03*
%TO.N,Net-(D361-Pad2)*%
X149268727Y-109895849D03*
X158125002Y-103400001D03*
%TO.N,Net-(D361-Pad3)*%
X157630000Y-105120000D03*
X149264962Y-110545850D03*
%TO.N,Net-(D378-Pad3)*%
X149574050Y-112536402D03*
X162830000Y-110199989D03*
%TO.N,Net-(D378-Pad2)*%
X163548505Y-108364726D03*
X149340000Y-111930000D03*
%TO.N,Net-(D378-Pad1)*%
X164130000Y-105240000D03*
X149403147Y-111181004D03*
D14*
%TO.N,IO_0*%
X45830000Y-47690000D03*
X62880000Y-44590000D03*
X43700000Y-58200000D03*
%TO.N,TXD_0*%
X44190000Y-56510000D03*
X26855000Y-56810000D03*
%TO.N,RXD_0*%
X28480000Y-56010000D03*
X44370000Y-55300000D03*
D13*
%TO.N,Net-(D329-Pad3)*%
X146260000Y-108020000D03*
%TO.N,Net-(D329-Pad2)*%
X147000001Y-105079999D03*
%TO.N,Net-(D329-Pad1)*%
X147810000Y-110550000D03*
X147593554Y-107393554D03*
X147580000Y-105500000D03*
%TD*%
D16*
%TO.N,Net-(D12-Pad4)*%
X37410000Y-106470000D02*
X36150000Y-105210000D01*
X41580000Y-106470000D02*
X37410000Y-106470000D01*
X49889999Y-101789999D02*
X46260001Y-101789999D01*
X47436666Y-107591333D02*
X48440000Y-106587999D01*
X48440000Y-104650004D02*
X50390004Y-102700000D01*
X48440000Y-106587999D02*
X48440000Y-104650004D01*
X50790000Y-102700000D02*
X50795000Y-102695000D01*
X50390004Y-102700000D02*
X50790000Y-102700000D01*
X50795000Y-102695000D02*
X49889999Y-101789999D01*
X52574999Y-104474999D02*
X50795000Y-102695000D01*
X52665001Y-105105001D02*
X52750000Y-105190000D01*
X52574999Y-105105001D02*
X52665001Y-105105001D01*
X52574999Y-105105001D02*
X52574999Y-104474999D01*
X41750000Y-106300000D02*
X41670000Y-106380000D01*
X41750000Y-105240000D02*
X41750000Y-106300000D01*
X41670000Y-106380000D02*
X41580000Y-106470000D01*
X46260001Y-101789999D02*
X41670000Y-106380000D01*
D17*
%TO.N,Net-(D13-Pad4)*%
X47550000Y-112900000D02*
X47340000Y-113110000D01*
X47550000Y-112840000D02*
X47550000Y-112900000D01*
X43760000Y-112840000D02*
X43280000Y-112840000D01*
X42760000Y-113360000D02*
X40950000Y-113360000D01*
X43280000Y-112840000D02*
X42760000Y-113360000D01*
X40950000Y-113360000D02*
X40520000Y-113790000D01*
X37270000Y-113790000D02*
X36280000Y-112800000D01*
X40520000Y-113790000D02*
X37270000Y-113790000D01*
X52640001Y-113089999D02*
X47799999Y-113089999D01*
X52890000Y-112840000D02*
X52640001Y-113089999D01*
X47799999Y-113089999D02*
X47550000Y-112840000D01*
D16*
X52419999Y-108060001D02*
X53113228Y-108060001D01*
X51190000Y-106390000D02*
X51190000Y-106830002D01*
X51190000Y-106830002D02*
X52419999Y-108060001D01*
X53113228Y-108060001D02*
X53433229Y-107740000D01*
X54048506Y-111681494D02*
X52890000Y-112840000D01*
X53830000Y-107740000D02*
X54048506Y-107958506D01*
X54048506Y-107958506D02*
X54048506Y-111681494D01*
X53433229Y-107740000D02*
X53830000Y-107740000D01*
D17*
X47340000Y-113000000D02*
X47500000Y-112840000D01*
X47340000Y-113110000D02*
X47340000Y-113000000D01*
X47500000Y-112840000D02*
X43760000Y-112840000D01*
X47550000Y-112840000D02*
X47500000Y-112840000D01*
D16*
%TO.N,Net-(D14-Pad4)*%
X54620000Y-115980000D02*
X54620000Y-107690000D01*
X52660000Y-117940000D02*
X54620000Y-115980000D01*
X52620000Y-107520000D02*
X53090000Y-107050000D01*
X53980000Y-107050000D02*
X54620000Y-107690000D01*
X53090000Y-107050000D02*
X53980000Y-107050000D01*
%TO.N,VBUS*%
X130180001Y-116010001D02*
X131439999Y-116010001D01*
X129610000Y-115440000D02*
X130180001Y-116010001D01*
X131439999Y-116010001D02*
X132300000Y-115150000D01*
X132300000Y-115150000D02*
X132300000Y-114260000D01*
X132300000Y-114260000D02*
X132930000Y-113630000D01*
X133570000Y-113630000D02*
X133920000Y-113980000D01*
X132930000Y-113630000D02*
X133570000Y-113630000D01*
D18*
X46358377Y-114158377D02*
X46358377Y-113980000D01*
X46910001Y-114710001D02*
X46358377Y-114158377D01*
X48108001Y-114710001D02*
X46910001Y-114710001D01*
D19*
X163400000Y-121900000D02*
X159700000Y-118200000D01*
X159700000Y-118200000D02*
X159700000Y-116600000D01*
X159700000Y-116600000D02*
X159700000Y-115900000D01*
X159700000Y-115900000D02*
X158600000Y-114800000D01*
X158600000Y-114800000D02*
X157200000Y-114800000D01*
D18*
X156340001Y-113881999D02*
X156273012Y-113815010D01*
X156340001Y-114640001D02*
X156340001Y-113881999D01*
X156500000Y-114800000D02*
X156340001Y-114640001D01*
X157200000Y-114800000D02*
X156500000Y-114800000D01*
D19*
X133639999Y-134332001D02*
X133639999Y-122032003D01*
X134601062Y-135293064D02*
X133639999Y-134332001D01*
X136193064Y-135293064D02*
X134601062Y-135293064D01*
D20*
X136193064Y-136093064D02*
X159906936Y-136093064D01*
D19*
X163400000Y-129400000D02*
X163400000Y-135300000D01*
X163400000Y-131800000D02*
X163400000Y-129400000D01*
X163400000Y-129400000D02*
X163400000Y-121900000D01*
X162606936Y-136093064D02*
X159906936Y-136093064D01*
X163400000Y-135300000D02*
X162606936Y-136093064D01*
X111639999Y-134760001D02*
X111639999Y-116860001D01*
X110306936Y-136093064D02*
X111639999Y-134760001D01*
D20*
X110306936Y-136093064D02*
X136193064Y-136093064D01*
D19*
X111639999Y-116860001D02*
X112840001Y-115659999D01*
D18*
X112340001Y-113881999D02*
X112273012Y-113815010D01*
X112340001Y-114640001D02*
X112340001Y-113881999D01*
X112840001Y-115140001D02*
X112340001Y-114640001D01*
X112840001Y-115659999D02*
X112840001Y-115140001D01*
D19*
X134840001Y-115178001D02*
X134840001Y-114710001D01*
X133639999Y-116378003D02*
X134840001Y-115178001D01*
X133639999Y-122032003D02*
X133639999Y-116378003D01*
X89639999Y-119143004D02*
X89639999Y-116760001D01*
X89106936Y-119676067D02*
X89639999Y-119143004D01*
X89106936Y-136093064D02*
X89106936Y-119676067D01*
D20*
X89106936Y-136093064D02*
X110306936Y-136093064D01*
D19*
X89639999Y-116760001D02*
X90840001Y-115559999D01*
D18*
X90340001Y-113881999D02*
X90273012Y-113815010D01*
X90340001Y-114640001D02*
X90340001Y-113881999D01*
X90840001Y-115140001D02*
X90340001Y-114640001D01*
X90840001Y-115559999D02*
X90840001Y-115140001D01*
D19*
X67550002Y-135636126D02*
X67550002Y-117696999D01*
X67093064Y-136093064D02*
X67550002Y-135636126D01*
D20*
X48906936Y-136093064D02*
X67093064Y-136093064D01*
X67093064Y-136093064D02*
X89106936Y-136093064D01*
D19*
X67550002Y-117696999D02*
X67550002Y-117049998D01*
X67550002Y-117049998D02*
X68900000Y-115700000D01*
X68900000Y-115700000D02*
X68840001Y-115640001D01*
D18*
X68840001Y-114381999D02*
X68273012Y-113815010D01*
X68840001Y-115640001D02*
X68840001Y-114381999D01*
X48100000Y-136900000D02*
X48906936Y-136093064D01*
D21*
X28700000Y-157090000D02*
X38080000Y-157090000D01*
X48906936Y-146263064D02*
X48906936Y-136093064D01*
X38080000Y-157090000D02*
X48906936Y-146263064D01*
D19*
X48940001Y-129447997D02*
X45639999Y-132747999D01*
X48940001Y-115459999D02*
X48940001Y-129447997D01*
X48149002Y-114669000D02*
X48940001Y-115459999D01*
X48108001Y-114710001D02*
X48149002Y-114669000D01*
D16*
%TO.N,Net-(D108-Pad4)*%
X70440000Y-104650004D02*
X72390004Y-102700000D01*
X70440000Y-106587999D02*
X70440000Y-104650004D01*
X69436666Y-107591333D02*
X70440000Y-106587999D01*
X72790000Y-102700000D02*
X72795000Y-102695000D01*
X74574999Y-104474999D02*
X72795000Y-102695000D01*
X72390004Y-102700000D02*
X72790000Y-102700000D01*
X72795000Y-102695000D02*
X71889999Y-101789999D01*
X74574999Y-105105001D02*
X74665001Y-105105001D01*
X74574999Y-105105001D02*
X74574999Y-104474999D01*
X74665001Y-105105001D02*
X74750000Y-105190000D01*
X68260001Y-101789999D02*
X63580000Y-106470000D01*
X71889999Y-101789999D02*
X68260001Y-101789999D01*
X59410000Y-106470000D02*
X58150000Y-105210000D01*
X63580000Y-106470000D02*
X59410000Y-106470000D01*
D17*
X64776426Y-105240000D02*
X64793213Y-105223213D01*
X63730000Y-105240000D02*
X64776426Y-105240000D01*
%TO.N,Net-(D109-Pad4)*%
X69550000Y-112840000D02*
X69550000Y-112900000D01*
X69550000Y-112900000D02*
X69340000Y-113110000D01*
X64760000Y-113360000D02*
X62950000Y-113360000D01*
X65280000Y-112840000D02*
X64760000Y-113360000D01*
X65760000Y-112840000D02*
X65280000Y-112840000D01*
X62950000Y-113360000D02*
X62520000Y-113790000D01*
X59270000Y-113790000D02*
X58280000Y-112800000D01*
X62520000Y-113790000D02*
X59270000Y-113790000D01*
X74640001Y-113089999D02*
X69799999Y-113089999D01*
X74890000Y-112840000D02*
X74640001Y-113089999D01*
X69799999Y-113089999D02*
X69550000Y-112840000D01*
D16*
X76048506Y-111681494D02*
X74890000Y-112840000D01*
X76048506Y-107958506D02*
X76048506Y-111681494D01*
X74419999Y-108060001D02*
X75113228Y-108060001D01*
X73190000Y-106390000D02*
X73190000Y-106830002D01*
X73190000Y-106830002D02*
X74419999Y-108060001D01*
X75113228Y-108060001D02*
X75433229Y-107740000D01*
X75433229Y-107740000D02*
X75830000Y-107740000D01*
X75830000Y-107740000D02*
X76048506Y-107958506D01*
D17*
X69340000Y-112860000D02*
X69320000Y-112840000D01*
X69340000Y-113110000D02*
X69340000Y-112860000D01*
X69320000Y-112840000D02*
X65760000Y-112840000D01*
X69550000Y-112840000D02*
X69320000Y-112840000D01*
D16*
%TO.N,Net-(D110-Pad4)*%
X74660000Y-117940000D02*
X76620000Y-115980000D01*
X76620000Y-115980000D02*
X76620000Y-107690000D01*
X74620000Y-107520000D02*
X75090000Y-107050000D01*
X75980000Y-107050000D02*
X76620000Y-107690000D01*
X75090000Y-107050000D02*
X75980000Y-107050000D01*
%TO.N,Net-(D133-Pad4)*%
X83770000Y-100704988D02*
X84027632Y-100447356D01*
X84027632Y-72912368D02*
X85800000Y-71140000D01*
X84248538Y-104857383D02*
X83770000Y-104378845D01*
X84027632Y-100447356D02*
X84027632Y-72912368D01*
X83770000Y-104378845D02*
X83770000Y-100704988D01*
X84187383Y-104857383D02*
X84027632Y-104697632D01*
X84248538Y-104857383D02*
X84187383Y-104857383D01*
%TO.N,Net-(D134-Pad4)*%
X85800000Y-76340000D02*
X84377642Y-77762358D01*
X84120010Y-100849966D02*
X84120010Y-103750010D01*
X84377642Y-100592334D02*
X84120010Y-100849966D01*
X84377642Y-77762358D02*
X84377642Y-100592334D01*
X84120010Y-103750010D02*
X84520000Y-104150000D01*
%TO.N,Net-(D140-Pad4)*%
X94795000Y-102695000D02*
X93889999Y-101789999D01*
X92440000Y-106587999D02*
X92440000Y-104650004D01*
X96574999Y-105105001D02*
X96665001Y-105105001D01*
X94790000Y-102700000D02*
X94795000Y-102695000D01*
X96574999Y-104474999D02*
X94795000Y-102695000D01*
X96574999Y-105105001D02*
X96574999Y-104474999D01*
X96665001Y-105105001D02*
X96750000Y-105190000D01*
X91436666Y-107591333D02*
X92440000Y-106587999D01*
X94390004Y-102700000D02*
X94790000Y-102700000D01*
X92440000Y-104650004D02*
X94390004Y-102700000D01*
X81410000Y-106470000D02*
X80150000Y-105210000D01*
X93889999Y-101789999D02*
X90260001Y-101789999D01*
X90260001Y-101789999D02*
X85580000Y-106470000D01*
X84310000Y-107224077D02*
X84375923Y-107290000D01*
X84310000Y-106470000D02*
X84310000Y-107224077D01*
X85580000Y-106470000D02*
X84310000Y-106470000D01*
X84310000Y-106470000D02*
X81410000Y-106470000D01*
D17*
%TO.N,Net-(D141-Pad4)*%
X91550000Y-112840000D02*
X87760000Y-112840000D01*
X87760000Y-112840000D02*
X87280000Y-112840000D01*
X86760000Y-113360000D02*
X84950000Y-113360000D01*
X87280000Y-112840000D02*
X86760000Y-113360000D01*
X91550000Y-112840000D02*
X91550000Y-112900000D01*
X91550000Y-112900000D02*
X91340000Y-113110000D01*
X96640001Y-113089999D02*
X91799999Y-113089999D01*
X96890000Y-112840000D02*
X96640001Y-113089999D01*
X91799999Y-113089999D02*
X91550000Y-112840000D01*
X81270000Y-113790000D02*
X80280000Y-112800000D01*
X84950000Y-113360000D02*
X84520000Y-113790000D01*
X84520000Y-113790000D02*
X81270000Y-113790000D01*
D16*
X98048506Y-107958506D02*
X98048506Y-111681494D01*
X98048506Y-111681494D02*
X96890000Y-112840000D01*
X97433229Y-107740000D02*
X97830000Y-107740000D01*
X96419999Y-108060001D02*
X97113228Y-108060001D01*
X97830000Y-107740000D02*
X98048506Y-107958506D01*
X95190000Y-106830002D02*
X96419999Y-108060001D01*
X95190000Y-106390000D02*
X95190000Y-106830002D01*
X97113228Y-108060001D02*
X97433229Y-107740000D01*
%TO.N,Net-(D142-Pad4)*%
X97090000Y-107050000D02*
X97980000Y-107050000D01*
X98620000Y-115980000D02*
X98620000Y-107690000D01*
X96660000Y-117940000D02*
X98620000Y-115980000D01*
X97980000Y-107050000D02*
X98620000Y-107690000D01*
X96620000Y-107520000D02*
X97090000Y-107050000D01*
%TO.N,Net-(D163-Pad1)*%
X93450001Y-102900001D02*
X89646769Y-102900001D01*
X83300547Y-109246223D02*
X83291140Y-109246223D01*
X89646769Y-102900001D02*
X83300547Y-109246223D01*
%TO.N,Net-(D163-Pad2)*%
X83622280Y-109895849D02*
X83268727Y-109895849D01*
X90960008Y-104564995D02*
X90960008Y-106344980D01*
X92125002Y-103400001D02*
X90960008Y-104564995D01*
X85878119Y-107640010D02*
X83622280Y-109895849D01*
X89664978Y-107640010D02*
X85878119Y-107640010D01*
X90960008Y-106344980D02*
X89664978Y-107640010D01*
%TO.N,Net-(D163-Pad3)*%
X89809956Y-107990020D02*
X86174345Y-107990020D01*
X86174345Y-107990020D02*
X83618515Y-110545850D01*
X83618515Y-110545850D02*
X83264962Y-110545850D01*
X91630000Y-105120000D02*
X91630000Y-106169976D01*
X91630000Y-106169976D02*
X89809956Y-107990020D01*
%TO.N,Net-(D179-Pad1)*%
X86319323Y-108340030D02*
X91427971Y-108340030D01*
X83403147Y-111181004D02*
X83478349Y-111181004D01*
X93938001Y-105830000D02*
X97540000Y-105830000D01*
X91427971Y-108340030D02*
X93938001Y-105830000D01*
X83478349Y-111181004D02*
X86319323Y-108340030D01*
X97540000Y-105830000D02*
X98130000Y-105240000D01*
%TO.N,Net-(D179-Pad2)*%
X97223191Y-108690040D02*
X97548505Y-108364726D01*
X86639960Y-108690040D02*
X97223191Y-108690040D01*
X83400000Y-111930000D02*
X86639960Y-108690040D01*
X83340000Y-111930000D02*
X83400000Y-111930000D01*
%TO.N,Net-(D179-Pad3)*%
X87070402Y-109040050D02*
X95670061Y-109040050D01*
X83574050Y-112536402D02*
X87070402Y-109040050D01*
X95670061Y-109040050D02*
X96830000Y-110199989D01*
%TO.N,Net-(D195-Pad4)*%
X105046542Y-105323813D02*
X105046542Y-67802540D01*
X103003843Y-65759841D02*
X103003843Y-60678514D01*
X105046542Y-67802540D02*
X103003843Y-65759841D01*
%TO.N,Net-(D196-Pad4)*%
X105677622Y-66712378D02*
X106450000Y-65940000D01*
X105677622Y-100302378D02*
X105677622Y-66712378D01*
X106450000Y-65940000D02*
X107800000Y-65940000D01*
X105677622Y-104941070D02*
X105396552Y-104660000D01*
X105396552Y-104660000D02*
X105396552Y-100583448D01*
X105396552Y-100583448D02*
X105677622Y-100302378D01*
%TO.N,Net-(D197-Pad4)*%
X106027632Y-100447356D02*
X106027632Y-72912368D01*
X106027632Y-72912368D02*
X107800000Y-71140000D01*
X106248538Y-104857383D02*
X105770000Y-104378845D01*
X105770000Y-104378845D02*
X105770000Y-100704988D01*
X105770000Y-100704988D02*
X106027632Y-100447356D01*
%TO.N,Net-(D198-Pad4)*%
X107800000Y-76340000D02*
X106377642Y-77762358D01*
X106377642Y-77762358D02*
X106377642Y-100592334D01*
X106120010Y-103750010D02*
X106520000Y-104150000D01*
X106377642Y-100592334D02*
X106120010Y-100849966D01*
X106120010Y-100849966D02*
X106120010Y-103750010D01*
%TO.N,Net-(D204-Pad4)*%
X113436666Y-107591333D02*
X114440000Y-106587999D01*
X114440000Y-106587999D02*
X114440000Y-104650004D01*
X116390004Y-102700000D02*
X116790000Y-102700000D01*
X112260001Y-101789999D02*
X107580000Y-106470000D01*
X103410000Y-106470000D02*
X102150000Y-105210000D01*
X118574999Y-105105001D02*
X118574999Y-104474999D01*
X118574999Y-104474999D02*
X116795000Y-102695000D01*
X114440000Y-104650004D02*
X116390004Y-102700000D01*
X116795000Y-102695000D02*
X115889999Y-101789999D01*
X115889999Y-101789999D02*
X112260001Y-101789999D01*
X106370000Y-106690000D02*
X106150000Y-106470000D01*
X106370000Y-107320000D02*
X106370000Y-106690000D01*
X106150000Y-106470000D02*
X103410000Y-106470000D01*
X107580000Y-106470000D02*
X106150000Y-106470000D01*
D17*
%TO.N,Net-(D205-Pad4)*%
X113550000Y-112840000D02*
X109760000Y-112840000D01*
X109760000Y-112840000D02*
X109280000Y-112840000D01*
X108760000Y-113360000D02*
X106950000Y-113360000D01*
X109280000Y-112840000D02*
X108760000Y-113360000D01*
D16*
X119113228Y-108060001D02*
X119433229Y-107740000D01*
X117190000Y-106830002D02*
X118419999Y-108060001D01*
D17*
X106520000Y-113790000D02*
X103270000Y-113790000D01*
X106950000Y-113360000D02*
X106520000Y-113790000D01*
D16*
X119830000Y-107740000D02*
X120048506Y-107958506D01*
D17*
X103270000Y-113790000D02*
X102280000Y-112800000D01*
D16*
X118419999Y-108060001D02*
X119113228Y-108060001D01*
X119433229Y-107740000D02*
X119830000Y-107740000D01*
X120048506Y-111681494D02*
X118890000Y-112840000D01*
D17*
X118640001Y-113089999D02*
X113799999Y-113089999D01*
D16*
X120048506Y-107958506D02*
X120048506Y-111681494D01*
D17*
X113799999Y-113089999D02*
X113550000Y-112840000D01*
D16*
X117190000Y-106830002D02*
X117190000Y-106390000D01*
D17*
X113340000Y-113050000D02*
X113550000Y-112840000D01*
X113340000Y-113110000D02*
X113340000Y-113050000D01*
X118890000Y-112840000D02*
X118640001Y-113089999D01*
D16*
%TO.N,Net-(D206-Pad4)*%
X118620000Y-107520000D02*
X119090000Y-107050000D01*
X119980000Y-107050000D02*
X120620000Y-107690000D01*
X118660000Y-117940000D02*
X120620000Y-115980000D01*
X120620000Y-115980000D02*
X120620000Y-107690000D01*
X119090000Y-107050000D02*
X119980000Y-107050000D01*
%TO.N,Net-(D211-Pad2)*%
X108310000Y-115350000D02*
X108510000Y-115550000D01*
X104975001Y-114435011D02*
X107395011Y-114435011D01*
X107395011Y-114435011D02*
X108310000Y-115350000D01*
%TO.N,Net-(D211-Pad1)*%
X101690000Y-110510768D02*
X104934586Y-107266182D01*
X109700002Y-118714999D02*
X106434999Y-118714999D01*
X106434999Y-118714999D02*
X101690000Y-113970000D01*
X109950001Y-118465000D02*
X109700002Y-118714999D01*
X101690000Y-113970000D02*
X101690000Y-110510768D01*
X104934586Y-107266182D02*
X105288139Y-107266182D01*
%TO.N,Net-(D262-Pad4)*%
X124370000Y-77790000D02*
X124370000Y-76340000D01*
X128120010Y-81540010D02*
X124370000Y-77790000D01*
X128120010Y-99319990D02*
X128120010Y-100959990D01*
X128120010Y-99319990D02*
X128120010Y-81540010D01*
X128120010Y-100959990D02*
X126990000Y-102090000D01*
X126990000Y-103780000D02*
X126990000Y-104320000D01*
X126990000Y-104320000D02*
X127610000Y-104940000D01*
X126990000Y-102090000D02*
X126990000Y-103780000D01*
X126990000Y-103780000D02*
X126990000Y-104190000D01*
%TO.N,Net-(D268-Pad4)*%
X138795000Y-102695000D02*
X137889999Y-101789999D01*
X137889999Y-101789999D02*
X134260001Y-101789999D01*
X136440000Y-104650004D02*
X138390004Y-102700000D01*
X135436666Y-107591333D02*
X136440000Y-106587999D01*
X140574999Y-105105001D02*
X140574999Y-104474999D01*
X136440000Y-106587999D02*
X136440000Y-104650004D01*
X134260001Y-101789999D02*
X129580000Y-106470000D01*
X125410000Y-106470000D02*
X124150000Y-105210000D01*
X140574999Y-104474999D02*
X138795000Y-102695000D01*
X138390004Y-102700000D02*
X138790000Y-102700000D01*
X128280000Y-107310000D02*
X128300000Y-107330000D01*
X128280000Y-106470000D02*
X128280000Y-107310000D01*
X129580000Y-106470000D02*
X128280000Y-106470000D01*
X128280000Y-106470000D02*
X125410000Y-106470000D01*
D17*
%TO.N,Net-(D269-Pad4)*%
X130760000Y-113360000D02*
X128950000Y-113360000D01*
X128950000Y-113360000D02*
X128520000Y-113790000D01*
X131760000Y-112840000D02*
X131280000Y-112840000D01*
X131280000Y-112840000D02*
X130760000Y-113360000D01*
X128520000Y-113790000D02*
X125270000Y-113790000D01*
X125270000Y-113790000D02*
X124280000Y-112800000D01*
X135799999Y-113089999D02*
X135550000Y-112840000D01*
X140640001Y-113089999D02*
X135799999Y-113089999D01*
D16*
X139190000Y-106830002D02*
X139190000Y-106390000D01*
X140419999Y-108060001D02*
X141113228Y-108060001D01*
X141113228Y-108060001D02*
X141433229Y-107740000D01*
X141433229Y-107740000D02*
X141830000Y-107740000D01*
X141830000Y-107740000D02*
X142048506Y-107958506D01*
X142048506Y-107958506D02*
X142048506Y-111681494D01*
X139190000Y-106830002D02*
X140419999Y-108060001D01*
X142048506Y-111681494D02*
X140890000Y-112840000D01*
X140640001Y-113089999D02*
X140890000Y-112840000D01*
D17*
X135340000Y-112960000D02*
X135460000Y-112840000D01*
X135340000Y-113110000D02*
X135340000Y-112960000D01*
X135460000Y-112840000D02*
X131760000Y-112840000D01*
X135550000Y-112840000D02*
X135460000Y-112840000D01*
D16*
%TO.N,Net-(D270-Pad4)*%
X141090000Y-107050000D02*
X141980000Y-107050000D01*
X140660000Y-117940000D02*
X142620000Y-115980000D01*
X142620000Y-115980000D02*
X142620000Y-107690000D01*
X140620000Y-107520000D02*
X141090000Y-107050000D01*
X141980000Y-107050000D02*
X142620000Y-107690000D01*
%TO.N,Net-(D332-Pad4)*%
X162574999Y-105105001D02*
X162574999Y-104474999D01*
X160795000Y-102695000D02*
X159889999Y-101789999D01*
X159889999Y-101789999D02*
X156260001Y-101789999D01*
X157436666Y-107591333D02*
X158440000Y-106587999D01*
X158440000Y-106587999D02*
X158440000Y-104650004D01*
X156260001Y-101789999D02*
X151580000Y-106470000D01*
X147410000Y-106470000D02*
X146150000Y-105210000D01*
X158440000Y-104650004D02*
X160390004Y-102700000D01*
X160390004Y-102700000D02*
X160790000Y-102700000D01*
X162574999Y-104474999D02*
X160795000Y-102695000D01*
X150300000Y-107250000D02*
X150320000Y-107270000D01*
X150300000Y-106470000D02*
X150300000Y-107250000D01*
X151580000Y-106470000D02*
X150300000Y-106470000D01*
X150300000Y-106470000D02*
X147410000Y-106470000D01*
D17*
%TO.N,Net-(D333-Pad4)*%
X150950000Y-113360000D02*
X150520000Y-113790000D01*
D16*
X164048506Y-111681494D02*
X162890000Y-112840000D01*
D17*
X157550000Y-112840000D02*
X153760000Y-112840000D01*
D16*
X163433229Y-107740000D02*
X163830000Y-107740000D01*
X163113228Y-108060001D02*
X163433229Y-107740000D01*
D17*
X152760000Y-113360000D02*
X150950000Y-113360000D01*
D16*
X163830000Y-107740000D02*
X164048506Y-107958506D01*
D17*
X153760000Y-112840000D02*
X153280000Y-112840000D01*
D16*
X161190000Y-106830002D02*
X162419999Y-108060001D01*
X162419999Y-108060001D02*
X163113228Y-108060001D01*
D17*
X153280000Y-112840000D02*
X152760000Y-113360000D01*
X150520000Y-113790000D02*
X147270000Y-113790000D01*
X147270000Y-113790000D02*
X146280000Y-112800000D01*
X162640001Y-113089999D02*
X157799999Y-113089999D01*
D16*
X164048506Y-107958506D02*
X164048506Y-111681494D01*
D17*
X157799999Y-113089999D02*
X157550000Y-112840000D01*
D16*
X161190000Y-106830002D02*
X161190000Y-106390000D01*
X162640001Y-113089999D02*
X162890000Y-112840000D01*
X157340000Y-113050000D02*
X157550000Y-112840000D01*
X157340000Y-113110000D02*
X157340000Y-113050000D01*
%TO.N,Net-(D334-Pad4)*%
X163980000Y-107050000D02*
X164620000Y-107690000D01*
X162660000Y-117940000D02*
X164620000Y-115980000D01*
X162620000Y-107520000D02*
X163090000Y-107050000D01*
X163090000Y-107050000D02*
X163980000Y-107050000D01*
X164620000Y-115980000D02*
X164620000Y-107690000D01*
%TO.N,EN*%
X66999999Y-45090001D02*
X71250000Y-40840000D01*
X64009999Y-45090001D02*
X66999999Y-45090001D01*
X63380001Y-44460003D02*
X64009999Y-45090001D01*
X63380001Y-41885723D02*
X63380001Y-44460003D01*
X62454268Y-40959990D02*
X63380001Y-41885723D01*
X51710010Y-40959990D02*
X62454268Y-40959990D01*
X71250000Y-40840000D02*
X71250000Y-38440000D01*
X44875000Y-47795000D02*
X51710010Y-40959990D01*
X44875000Y-49085000D02*
X44875000Y-47795000D01*
%TO.N,USB_D+*%
X50800000Y-52730000D02*
X55940000Y-47590000D01*
X56643999Y-42849999D02*
X57839999Y-42849999D01*
X55940000Y-43553998D02*
X56643999Y-42849999D01*
X55940000Y-47590000D02*
X55940000Y-43553998D01*
X57910000Y-42920000D02*
X57910000Y-43180000D01*
X57839999Y-42849999D02*
X57910000Y-42920000D01*
%TO.N,USB_D-*%
X56618276Y-43300000D02*
X56860000Y-43300000D01*
X56240010Y-43678266D02*
X56618276Y-43300000D01*
X56240009Y-47714269D02*
X56240010Y-43678266D01*
X51400000Y-52554278D02*
X56240009Y-47714269D01*
X51400000Y-52830000D02*
X51400000Y-52554278D01*
%TO.N,Net-(D25-Pad2)*%
X38975001Y-114435011D02*
X41395011Y-114435011D01*
X41395011Y-114435011D02*
X42310000Y-115350000D01*
X42310000Y-115350000D02*
X42510000Y-115550000D01*
X42310000Y-115360000D02*
X42310000Y-115350000D01*
X42500000Y-115480000D02*
X42310000Y-115360000D01*
%TO.N,Net-(D25-Pad1)*%
X35690000Y-113970000D02*
X35690000Y-110510768D01*
X35690000Y-110510768D02*
X38934586Y-107266182D01*
X43950001Y-118465000D02*
X43700002Y-118714999D01*
X38934586Y-107266182D02*
X39288139Y-107266182D01*
X40434999Y-118714999D02*
X35690000Y-113970000D01*
X43700002Y-118714999D02*
X40434999Y-118714999D01*
%TO.N,Net-(D40-Pad3)*%
X45809956Y-107990020D02*
X42174345Y-107990020D01*
X39618515Y-110545850D02*
X39264962Y-110545850D01*
X47630000Y-106169976D02*
X45809956Y-107990020D01*
X47630000Y-105120000D02*
X47630000Y-106169976D01*
X42174345Y-107990020D02*
X39618515Y-110545850D01*
%TO.N,Net-(D40-Pad2)*%
X39622280Y-109895849D02*
X39268727Y-109895849D01*
X46960008Y-106344980D02*
X45664978Y-107640010D01*
X46960008Y-104564995D02*
X46960008Y-106344980D01*
X48125002Y-103400001D02*
X46960008Y-104564995D01*
X45664978Y-107640010D02*
X41878119Y-107640010D01*
X41878119Y-107640010D02*
X39622280Y-109895849D01*
%TO.N,Net-(D40-Pad1)*%
X49450001Y-102900001D02*
X45646769Y-102900001D01*
X39300547Y-109246223D02*
X39291140Y-109246223D01*
X45646769Y-102900001D02*
X39300547Y-109246223D01*
%TO.N,Net-(D55-Pad3)*%
X43070402Y-109040050D02*
X51670061Y-109040050D01*
X39574050Y-112536402D02*
X43070402Y-109040050D01*
X51670061Y-109040050D02*
X52830000Y-110199989D01*
%TO.N,Net-(D55-Pad2)*%
X42639960Y-108690040D02*
X53223191Y-108690040D01*
X39400000Y-111930000D02*
X42639960Y-108690040D01*
X39340000Y-111930000D02*
X39400000Y-111930000D01*
X53223191Y-108690040D02*
X53548505Y-108364726D01*
%TO.N,Net-(D55-Pad1)*%
X53540000Y-105830000D02*
X54130000Y-105240000D01*
X49938001Y-105830000D02*
X53540000Y-105830000D01*
X42319323Y-108340030D02*
X47427971Y-108340030D01*
X47427971Y-108340030D02*
X49938001Y-105830000D01*
X39478349Y-111181004D02*
X42319323Y-108340030D01*
X39403147Y-111181004D02*
X39478349Y-111181004D01*
%TO.N,Net-(D87-Pad1)*%
X62434999Y-118714999D02*
X57690000Y-113970000D01*
X65700002Y-118714999D02*
X62434999Y-118714999D01*
X57690000Y-113970000D02*
X57690000Y-110510768D01*
X60934586Y-107266182D02*
X61288139Y-107266182D01*
X65950001Y-118465000D02*
X65700002Y-118714999D01*
X57690000Y-110510768D02*
X60934586Y-107266182D01*
%TO.N,Net-(D87-Pad2)*%
X64310000Y-115350000D02*
X64310000Y-115360000D01*
X63395011Y-114435011D02*
X64310000Y-115350000D01*
X64310000Y-115350000D02*
X64510000Y-115550000D01*
X64310000Y-115360000D02*
X64510000Y-115560000D01*
X60975001Y-114435011D02*
X63395011Y-114435011D01*
%TO.N,Net-(D103-Pad1)*%
X71450001Y-102900001D02*
X67646769Y-102900001D01*
X61300547Y-109246223D02*
X61291140Y-109246223D01*
X67646769Y-102900001D02*
X61300547Y-109246223D01*
%TO.N,Net-(D103-Pad2)*%
X61622280Y-109895849D02*
X61268727Y-109895849D01*
X68960008Y-106344980D02*
X67664978Y-107640010D01*
X70125002Y-103400001D02*
X68960008Y-104564995D01*
X67664978Y-107640010D02*
X63878119Y-107640010D01*
X68960008Y-104564995D02*
X68960008Y-106344980D01*
X63878119Y-107640010D02*
X61622280Y-109895849D01*
%TO.N,Net-(D103-Pad3)*%
X67809956Y-107990020D02*
X64174345Y-107990020D01*
X61618515Y-110545850D02*
X61264962Y-110545850D01*
X69630000Y-106169976D02*
X67809956Y-107990020D01*
X64174345Y-107990020D02*
X61618515Y-110545850D01*
X69630000Y-105120000D02*
X69630000Y-106169976D01*
%TO.N,Net-(D118-Pad1)*%
X64319323Y-108340030D02*
X69427971Y-108340030D01*
X61478349Y-111181004D02*
X64319323Y-108340030D01*
X61403147Y-111181004D02*
X61478349Y-111181004D01*
X71938001Y-105830000D02*
X75540000Y-105830000D01*
X69427971Y-108340030D02*
X71938001Y-105830000D01*
X75540000Y-105830000D02*
X76130000Y-105240000D01*
%TO.N,Net-(D118-Pad2)*%
X64639960Y-108690040D02*
X75223191Y-108690040D01*
X75223191Y-108690040D02*
X75548505Y-108364726D01*
X61340000Y-111930000D02*
X61400000Y-111930000D01*
X61400000Y-111930000D02*
X64639960Y-108690040D01*
%TO.N,Net-(D118-Pad3)*%
X65070402Y-109040050D02*
X73670061Y-109040050D01*
X61574050Y-112536402D02*
X65070402Y-109040050D01*
X73670061Y-109040050D02*
X74830000Y-110199989D01*
D17*
%TO.N,Net-(D118-Pad4)*%
X63407666Y-100592334D02*
X66830000Y-97170000D01*
X74770000Y-78650000D02*
X74770000Y-76230000D01*
X66830000Y-97170000D02*
X66830000Y-86590000D01*
X66830000Y-86590000D02*
X74770000Y-78650000D01*
X62377642Y-100592334D02*
X63407666Y-100592334D01*
D16*
X62377642Y-100592334D02*
X62120010Y-100849966D01*
X62120010Y-103750010D02*
X62520000Y-104150000D01*
X62120010Y-100849966D02*
X62120010Y-103750010D01*
%TO.N,Net-(D148-Pad4)*%
X83677622Y-66712378D02*
X84450000Y-65940000D01*
X83677622Y-105168120D02*
X83677622Y-104941070D01*
X84450000Y-65940000D02*
X85800000Y-65940000D01*
X83396552Y-104660000D02*
X83396552Y-100583448D01*
X83677622Y-104941070D02*
X83396552Y-104660000D01*
X83677622Y-100302378D02*
X83677622Y-66712378D01*
X83396552Y-100583448D02*
X83677622Y-100302378D01*
%TO.N,Net-(D148-Pad2)*%
X86310000Y-115350000D02*
X86510000Y-115550000D01*
X85395011Y-114435011D02*
X86310000Y-115350000D01*
X86310000Y-115360000D02*
X86510000Y-115560000D01*
X86310000Y-115350000D02*
X86310000Y-115360000D01*
X82975001Y-114435011D02*
X85395011Y-114435011D01*
%TO.N,Net-(D148-Pad1)*%
X87950001Y-118465000D02*
X87700002Y-118714999D01*
X82934586Y-107266182D02*
X83288139Y-107266182D01*
X79690000Y-110510768D02*
X82934586Y-107266182D01*
X87700002Y-118714999D02*
X84434999Y-118714999D01*
X79690000Y-113970000D02*
X79690000Y-110510768D01*
X84434999Y-118714999D02*
X79690000Y-113970000D01*
%TO.N,Net-(D163-Pad4)*%
X83046542Y-105323813D02*
X83046542Y-67802540D01*
D17*
X89181142Y-60678514D02*
X91451486Y-60678514D01*
X83046542Y-66813114D02*
X89181142Y-60678514D01*
X83046542Y-67802540D02*
X83046542Y-66813114D01*
D16*
%TO.N,Net-(D228-Pad1)*%
X111646769Y-102900001D02*
X105300547Y-109246223D01*
X115450001Y-102900001D02*
X111646769Y-102900001D01*
%TO.N,Net-(D228-Pad2)*%
X112960008Y-106344980D02*
X111664978Y-107640010D01*
X107878119Y-107640010D02*
X105622280Y-109895849D01*
X112960008Y-104564995D02*
X112960008Y-106344980D01*
X111664978Y-107640010D02*
X107878119Y-107640010D01*
X114125002Y-103400001D02*
X112960008Y-104564995D01*
X105622280Y-109895849D02*
X105268727Y-109895849D01*
%TO.N,Net-(D228-Pad3)*%
X111809956Y-107990020D02*
X108174345Y-107990020D01*
X108174345Y-107990020D02*
X105618515Y-110545850D01*
X113630000Y-106169976D02*
X111809956Y-107990020D01*
X113630000Y-105120000D02*
X113630000Y-106169976D01*
X105618515Y-110545850D02*
X105264962Y-110545850D01*
%TO.N,Net-(D245-Pad1)*%
X115938001Y-105830000D02*
X119540000Y-105830000D01*
X105478349Y-111181004D02*
X108319323Y-108340030D01*
X108319323Y-108340030D02*
X113427971Y-108340030D01*
X119540000Y-105830000D02*
X120130000Y-105240000D01*
X113427971Y-108340030D02*
X115938001Y-105830000D01*
%TO.N,Net-(D245-Pad2)*%
X119223191Y-108690040D02*
X119548505Y-108364726D01*
X108639960Y-108690040D02*
X119223191Y-108690040D01*
X105400000Y-111930000D02*
X108639960Y-108690040D01*
%TO.N,Net-(D245-Pad3)*%
X109070402Y-109040050D02*
X117670061Y-109040050D01*
X105574050Y-112536402D02*
X109070402Y-109040050D01*
X117670061Y-109040050D02*
X118830000Y-110199989D01*
%TO.N,Net-(D279-Pad2)*%
X130310000Y-115350000D02*
X130510000Y-115550000D01*
X129395011Y-114435011D02*
X130310000Y-115350000D01*
X126975001Y-114435011D02*
X129395011Y-114435011D01*
%TO.N,Net-(D279-Pad1)*%
X128434999Y-118714999D02*
X123690000Y-113970000D01*
X123690000Y-113970000D02*
X123690000Y-110510768D01*
X131950001Y-118465000D02*
X131700002Y-118714999D01*
X123690000Y-110510768D02*
X126934586Y-107266182D01*
X131700002Y-118714999D02*
X128434999Y-118714999D01*
X126934586Y-107266182D02*
X127288139Y-107266182D01*
%TO.N,Net-(D296-Pad3)*%
X127264962Y-110545850D02*
X127618515Y-110545850D01*
X130174345Y-107990020D02*
X127618515Y-110545850D01*
X135630000Y-106169976D02*
X133809956Y-107990020D01*
X133809956Y-107990020D02*
X130174345Y-107990020D01*
X135630000Y-105120000D02*
X135630000Y-106169976D01*
%TO.N,Net-(D296-Pad2)*%
X127268727Y-109895849D02*
X127622280Y-109895849D01*
X134960008Y-106344980D02*
X133664978Y-107640010D01*
X136125002Y-103400001D02*
X134960008Y-104564995D01*
X129878119Y-107640010D02*
X127622280Y-109895849D01*
X133664978Y-107640010D02*
X129878119Y-107640010D01*
X134960008Y-104564995D02*
X134960008Y-106344980D01*
%TO.N,Net-(D296-Pad1)*%
X133646769Y-102900001D02*
X127300547Y-109246223D01*
X137450001Y-102900001D02*
X133646769Y-102900001D01*
%TO.N,Net-(D312-Pad3)*%
X131070402Y-109040050D02*
X139670061Y-109040050D01*
X139670061Y-109040050D02*
X140830000Y-110199989D01*
X127574050Y-112536402D02*
X131070402Y-109040050D01*
%TO.N,Net-(D312-Pad2)*%
X141223191Y-108690040D02*
X141548505Y-108364726D01*
X130639960Y-108690040D02*
X141223191Y-108690040D01*
X127400000Y-111930000D02*
X130639960Y-108690040D01*
%TO.N,Net-(D312-Pad1)*%
X141540000Y-105830000D02*
X142130000Y-105240000D01*
X135427971Y-108340030D02*
X137938001Y-105830000D01*
X130319323Y-108340030D02*
X135427971Y-108340030D01*
X137938001Y-105830000D02*
X141540000Y-105830000D01*
X127478349Y-111181004D02*
X130319323Y-108340030D01*
%TO.N,Net-(D345-Pad1)*%
X145690000Y-110510768D02*
X148934586Y-107266182D01*
X145690000Y-113970000D02*
X145690000Y-110510768D01*
X153700002Y-118714999D02*
X150434999Y-118714999D01*
X150434999Y-118714999D02*
X145690000Y-113970000D01*
X153950001Y-118465000D02*
X153700002Y-118714999D01*
X148934586Y-107266182D02*
X149288139Y-107266182D01*
%TO.N,Net-(D345-Pad2)*%
X148975001Y-114435011D02*
X151395011Y-114435011D01*
X151395011Y-114435011D02*
X152310000Y-115350000D01*
X152310000Y-115350000D02*
X152510000Y-115550000D01*
%TO.N,Net-(D361-Pad1)*%
X159450001Y-102900001D02*
X155646769Y-102900001D01*
X155646769Y-102900001D02*
X149300547Y-109246223D01*
%TO.N,Net-(D361-Pad2)*%
X149268727Y-109895849D02*
X149622280Y-109895849D01*
X156960008Y-106344980D02*
X155664978Y-107640010D01*
X151878119Y-107640010D02*
X149622280Y-109895849D01*
X158125002Y-103400001D02*
X156960008Y-104564995D01*
X155664978Y-107640010D02*
X151878119Y-107640010D01*
X156960008Y-104564995D02*
X156960008Y-106344980D01*
%TO.N,Net-(D361-Pad3)*%
X149264962Y-110545850D02*
X149618515Y-110545850D01*
X155809956Y-107990020D02*
X152174345Y-107990020D01*
X157630000Y-106169976D02*
X155809956Y-107990020D01*
X152174345Y-107990020D02*
X149618515Y-110545850D01*
X157630000Y-105120000D02*
X157630000Y-106169976D01*
%TO.N,Net-(D378-Pad3)*%
X149574050Y-112536402D02*
X153070402Y-109040050D01*
X161670061Y-109040050D02*
X162830000Y-110199989D01*
X153070402Y-109040050D02*
X161670061Y-109040050D01*
%TO.N,Net-(D378-Pad2)*%
X163223191Y-108690040D02*
X163548505Y-108364726D01*
X149400000Y-111930000D02*
X152639960Y-108690040D01*
X152639960Y-108690040D02*
X163223191Y-108690040D01*
%TO.N,Net-(D378-Pad1)*%
X159938001Y-105830000D02*
X163540000Y-105830000D01*
X149478349Y-111181004D02*
X152319323Y-108340030D01*
X163540000Y-105830000D02*
X164130000Y-105240000D01*
X152319323Y-108340030D02*
X157427971Y-108340030D01*
X157427971Y-108340030D02*
X159938001Y-105830000D01*
%TO.N,IO_0*%
X45830000Y-47690000D02*
X52260000Y-41260000D01*
X52260000Y-41260000D02*
X62330000Y-41260000D01*
X62880000Y-41810000D02*
X62880000Y-44590000D01*
X62330000Y-41260000D02*
X62880000Y-41810000D01*
X45830000Y-55610002D02*
X43700000Y-57740002D01*
X45830000Y-47690000D02*
X45830000Y-55610002D01*
X43700000Y-57740002D02*
X43700000Y-58200000D01*
%TO.N,TXD_0*%
X43890001Y-56809999D02*
X44190000Y-56510000D01*
X26855000Y-56810000D02*
X43890001Y-56809999D01*
%TO.N,RXD_0*%
X43660000Y-56010000D02*
X44370000Y-55300000D01*
X28480000Y-56010000D02*
X43660000Y-56010000D01*
%TD*%
M02*
