%TF.GenerationSoftware,KiCad,Pcbnew,(5.1.7)-1*%
%TF.CreationDate,2021-01-23T13:14:39+03:00*%
%TF.ProjectId,LED_Cloud,4c45445f-436c-46f7-9564-2e6b69636164,rev?*%
%TF.SameCoordinates,Original*%
%TF.FileFunction,Soldermask,Bot*%
%TF.FilePolarity,Negative*%
%FSLAX46Y46*%
G04 Gerber Fmt 4.6, Leading zero omitted, Abs format (unit mm)*
G04 Created by KiCad (PCBNEW (5.1.7)-1) date 2021-01-23 13:14:39*
%MOMM*%
%LPD*%
G01*
G04 APERTURE LIST*
%ADD10R,5.000000X5.000000*%
%ADD11R,0.900000X2.000000*%
%ADD12R,2.000000X0.900000*%
%ADD13R,1.800000X4.400000*%
%ADD14O,1.800000X4.000000*%
%ADD15O,4.000000X1.800000*%
%ADD16R,4.241800X4.241800*%
%ADD17R,0.203200X0.812800*%
%ADD18R,0.812800X0.203200*%
%ADD19R,0.700000X1.000000*%
%ADD20R,3.350000X3.350000*%
%ADD21R,2.000000X1.500000*%
%ADD22R,2.000000X3.800000*%
%ADD23R,0.800000X0.900000*%
%ADD24R,0.900000X0.800000*%
%ADD25R,1.900000X1.900000*%
%ADD26R,1.800000X1.900000*%
%ADD27R,2.100000X1.600000*%
%ADD28R,0.400000X1.350000*%
%ADD29R,0.650000X1.060000*%
%ADD30R,1.100000X1.100000*%
G04 APERTURE END LIST*
D10*
%TO.C,U3*%
X30305000Y-49730000D03*
D11*
X22805000Y-42230000D03*
X24075000Y-42230000D03*
X25345000Y-42230000D03*
X26615000Y-42230000D03*
X27885000Y-42230000D03*
X29155000Y-42230000D03*
X30425000Y-42230000D03*
X31695000Y-42230000D03*
X32965000Y-42230000D03*
X34235000Y-42230000D03*
X35505000Y-42230000D03*
X36775000Y-42230000D03*
X38045000Y-42230000D03*
X39315000Y-42230000D03*
D12*
X40315000Y-45015000D03*
X40315000Y-46285000D03*
X40315000Y-47555000D03*
X40315000Y-48825000D03*
X40315000Y-50095000D03*
X40315000Y-51365000D03*
X40315000Y-52635000D03*
X40315000Y-53905000D03*
X40315000Y-55175000D03*
X40315000Y-56445000D03*
D11*
X39315000Y-59230000D03*
X38045000Y-59230000D03*
X36775000Y-59230000D03*
X35505000Y-59230000D03*
X34235000Y-59230000D03*
X32965000Y-59230000D03*
X31695000Y-59230000D03*
X30425000Y-59230000D03*
X29155000Y-59230000D03*
X27885000Y-59230000D03*
X26615000Y-59230000D03*
X25345000Y-59230000D03*
X24075000Y-59230000D03*
X22805000Y-59230000D03*
%TD*%
D13*
%TO.C,J2*%
X28700000Y-157090000D03*
D14*
X22900000Y-157090000D03*
D15*
X25700000Y-152290000D03*
%TD*%
D16*
%TO.C,U9*%
X153840000Y-110210000D03*
D17*
X151639999Y-113156400D03*
X152040001Y-113156400D03*
X152440000Y-113156400D03*
X152839999Y-113156400D03*
X153240001Y-113156400D03*
X153640000Y-113156400D03*
X154040000Y-113156400D03*
X154439999Y-113156400D03*
X154840001Y-113156400D03*
X155240000Y-113156400D03*
X155639999Y-113156400D03*
X156040001Y-113156400D03*
D18*
X156786400Y-112410001D03*
X156786400Y-112009999D03*
X156786400Y-111610000D03*
X156786400Y-111210001D03*
X156786400Y-110809999D03*
X156786400Y-110410000D03*
X156786400Y-110010000D03*
X156786400Y-109610001D03*
X156786400Y-109209999D03*
X156786400Y-108810000D03*
X156786400Y-108410001D03*
X156786400Y-108009999D03*
D17*
X156040001Y-107263600D03*
X155639999Y-107263600D03*
X155240000Y-107263600D03*
X154840001Y-107263600D03*
X154439999Y-107263600D03*
X154040000Y-107263600D03*
X153640000Y-107263600D03*
X153240001Y-107263600D03*
X152839999Y-107263600D03*
X152440000Y-107263600D03*
X152040001Y-107263600D03*
X151639999Y-107263600D03*
D18*
X150893600Y-108009999D03*
X150893600Y-108410001D03*
X150893600Y-108810000D03*
X150893600Y-109209999D03*
X150893600Y-109610001D03*
X150893600Y-110010000D03*
X150893600Y-110410000D03*
X150893600Y-110809999D03*
X150893600Y-111210001D03*
X150893600Y-111610000D03*
X150893600Y-112009999D03*
X150893600Y-112410001D03*
%TD*%
D16*
%TO.C,U8*%
X131840000Y-110210000D03*
D17*
X129639999Y-113156400D03*
X130040001Y-113156400D03*
X130440000Y-113156400D03*
X130839999Y-113156400D03*
X131240001Y-113156400D03*
X131640000Y-113156400D03*
X132040000Y-113156400D03*
X132439999Y-113156400D03*
X132840001Y-113156400D03*
X133240000Y-113156400D03*
X133639999Y-113156400D03*
X134040001Y-113156400D03*
D18*
X134786400Y-112410001D03*
X134786400Y-112009999D03*
X134786400Y-111610000D03*
X134786400Y-111210001D03*
X134786400Y-110809999D03*
X134786400Y-110410000D03*
X134786400Y-110010000D03*
X134786400Y-109610001D03*
X134786400Y-109209999D03*
X134786400Y-108810000D03*
X134786400Y-108410001D03*
X134786400Y-108009999D03*
D17*
X134040001Y-107263600D03*
X133639999Y-107263600D03*
X133240000Y-107263600D03*
X132840001Y-107263600D03*
X132439999Y-107263600D03*
X132040000Y-107263600D03*
X131640000Y-107263600D03*
X131240001Y-107263600D03*
X130839999Y-107263600D03*
X130440000Y-107263600D03*
X130040001Y-107263600D03*
X129639999Y-107263600D03*
D18*
X128893600Y-108009999D03*
X128893600Y-108410001D03*
X128893600Y-108810000D03*
X128893600Y-109209999D03*
X128893600Y-109610001D03*
X128893600Y-110010000D03*
X128893600Y-110410000D03*
X128893600Y-110809999D03*
X128893600Y-111210001D03*
X128893600Y-111610000D03*
X128893600Y-112009999D03*
X128893600Y-112410001D03*
%TD*%
D16*
%TO.C,U7*%
X109840000Y-110210000D03*
D17*
X107639999Y-113156400D03*
X108040001Y-113156400D03*
X108440000Y-113156400D03*
X108839999Y-113156400D03*
X109240001Y-113156400D03*
X109640000Y-113156400D03*
X110040000Y-113156400D03*
X110439999Y-113156400D03*
X110840001Y-113156400D03*
X111240000Y-113156400D03*
X111639999Y-113156400D03*
X112040001Y-113156400D03*
D18*
X112786400Y-112410001D03*
X112786400Y-112009999D03*
X112786400Y-111610000D03*
X112786400Y-111210001D03*
X112786400Y-110809999D03*
X112786400Y-110410000D03*
X112786400Y-110010000D03*
X112786400Y-109610001D03*
X112786400Y-109209999D03*
X112786400Y-108810000D03*
X112786400Y-108410001D03*
X112786400Y-108009999D03*
D17*
X112040001Y-107263600D03*
X111639999Y-107263600D03*
X111240000Y-107263600D03*
X110840001Y-107263600D03*
X110439999Y-107263600D03*
X110040000Y-107263600D03*
X109640000Y-107263600D03*
X109240001Y-107263600D03*
X108839999Y-107263600D03*
X108440000Y-107263600D03*
X108040001Y-107263600D03*
X107639999Y-107263600D03*
D18*
X106893600Y-108009999D03*
X106893600Y-108410001D03*
X106893600Y-108810000D03*
X106893600Y-109209999D03*
X106893600Y-109610001D03*
X106893600Y-110010000D03*
X106893600Y-110410000D03*
X106893600Y-110809999D03*
X106893600Y-111210001D03*
X106893600Y-111610000D03*
X106893600Y-112009999D03*
X106893600Y-112410001D03*
%TD*%
D16*
%TO.C,U6*%
X87840000Y-110210000D03*
D17*
X85639999Y-113156400D03*
X86040001Y-113156400D03*
X86440000Y-113156400D03*
X86839999Y-113156400D03*
X87240001Y-113156400D03*
X87640000Y-113156400D03*
X88040000Y-113156400D03*
X88439999Y-113156400D03*
X88840001Y-113156400D03*
X89240000Y-113156400D03*
X89639999Y-113156400D03*
X90040001Y-113156400D03*
D18*
X90786400Y-112410001D03*
X90786400Y-112009999D03*
X90786400Y-111610000D03*
X90786400Y-111210001D03*
X90786400Y-110809999D03*
X90786400Y-110410000D03*
X90786400Y-110010000D03*
X90786400Y-109610001D03*
X90786400Y-109209999D03*
X90786400Y-108810000D03*
X90786400Y-108410001D03*
X90786400Y-108009999D03*
D17*
X90040001Y-107263600D03*
X89639999Y-107263600D03*
X89240000Y-107263600D03*
X88840001Y-107263600D03*
X88439999Y-107263600D03*
X88040000Y-107263600D03*
X87640000Y-107263600D03*
X87240001Y-107263600D03*
X86839999Y-107263600D03*
X86440000Y-107263600D03*
X86040001Y-107263600D03*
X85639999Y-107263600D03*
D18*
X84893600Y-108009999D03*
X84893600Y-108410001D03*
X84893600Y-108810000D03*
X84893600Y-109209999D03*
X84893600Y-109610001D03*
X84893600Y-110010000D03*
X84893600Y-110410000D03*
X84893600Y-110809999D03*
X84893600Y-111210001D03*
X84893600Y-111610000D03*
X84893600Y-112009999D03*
X84893600Y-112410001D03*
%TD*%
D16*
%TO.C,U5*%
X65840000Y-110210000D03*
D17*
X63639999Y-113156400D03*
X64040001Y-113156400D03*
X64440000Y-113156400D03*
X64839999Y-113156400D03*
X65240001Y-113156400D03*
X65640000Y-113156400D03*
X66040000Y-113156400D03*
X66439999Y-113156400D03*
X66840001Y-113156400D03*
X67240000Y-113156400D03*
X67639999Y-113156400D03*
X68040001Y-113156400D03*
D18*
X68786400Y-112410001D03*
X68786400Y-112009999D03*
X68786400Y-111610000D03*
X68786400Y-111210001D03*
X68786400Y-110809999D03*
X68786400Y-110410000D03*
X68786400Y-110010000D03*
X68786400Y-109610001D03*
X68786400Y-109209999D03*
X68786400Y-108810000D03*
X68786400Y-108410001D03*
X68786400Y-108009999D03*
D17*
X68040001Y-107263600D03*
X67639999Y-107263600D03*
X67240000Y-107263600D03*
X66840001Y-107263600D03*
X66439999Y-107263600D03*
X66040000Y-107263600D03*
X65640000Y-107263600D03*
X65240001Y-107263600D03*
X64839999Y-107263600D03*
X64440000Y-107263600D03*
X64040001Y-107263600D03*
X63639999Y-107263600D03*
D18*
X62893600Y-108009999D03*
X62893600Y-108410001D03*
X62893600Y-108810000D03*
X62893600Y-109209999D03*
X62893600Y-109610001D03*
X62893600Y-110010000D03*
X62893600Y-110410000D03*
X62893600Y-110809999D03*
X62893600Y-111210001D03*
X62893600Y-111610000D03*
X62893600Y-112009999D03*
X62893600Y-112410001D03*
%TD*%
D16*
%TO.C,U4*%
X43840000Y-110210000D03*
D17*
X41639999Y-113156400D03*
X42040001Y-113156400D03*
X42440000Y-113156400D03*
X42839999Y-113156400D03*
X43240001Y-113156400D03*
X43640000Y-113156400D03*
X44040000Y-113156400D03*
X44439999Y-113156400D03*
X44840001Y-113156400D03*
X45240000Y-113156400D03*
X45639999Y-113156400D03*
X46040001Y-113156400D03*
D18*
X46786400Y-112410001D03*
X46786400Y-112009999D03*
X46786400Y-111610000D03*
X46786400Y-111210001D03*
X46786400Y-110809999D03*
X46786400Y-110410000D03*
X46786400Y-110010000D03*
X46786400Y-109610001D03*
X46786400Y-109209999D03*
X46786400Y-108810000D03*
X46786400Y-108410001D03*
X46786400Y-108009999D03*
D17*
X46040001Y-107263600D03*
X45639999Y-107263600D03*
X45240000Y-107263600D03*
X44840001Y-107263600D03*
X44439999Y-107263600D03*
X44040000Y-107263600D03*
X43640000Y-107263600D03*
X43240001Y-107263600D03*
X42839999Y-107263600D03*
X42440000Y-107263600D03*
X42040001Y-107263600D03*
X41639999Y-107263600D03*
D18*
X40893600Y-108009999D03*
X40893600Y-108410001D03*
X40893600Y-108810000D03*
X40893600Y-109209999D03*
X40893600Y-109610001D03*
X40893600Y-110010000D03*
X40893600Y-110410000D03*
X40893600Y-110809999D03*
X40893600Y-111210001D03*
X40893600Y-111610000D03*
X40893600Y-112009999D03*
X40893600Y-112410001D03*
%TD*%
D19*
%TO.C,SW2*%
X67325000Y-38570000D03*
X67325000Y-43070000D03*
X69475000Y-38570000D03*
X69475000Y-43070000D03*
%TD*%
%TO.C,SW1*%
X72395000Y-38680000D03*
X72395000Y-43180000D03*
X74545000Y-38680000D03*
X74545000Y-43180000D03*
%TD*%
%TO.C,R17*%
G36*
G01*
X67955000Y-44475000D02*
X67955000Y-45025000D01*
G75*
G02*
X67755000Y-45225000I-200000J0D01*
G01*
X67355000Y-45225000D01*
G75*
G02*
X67155000Y-45025000I0J200000D01*
G01*
X67155000Y-44475000D01*
G75*
G02*
X67355000Y-44275000I200000J0D01*
G01*
X67755000Y-44275000D01*
G75*
G02*
X67955000Y-44475000I0J-200000D01*
G01*
G37*
G36*
G01*
X69605000Y-44475000D02*
X69605000Y-45025000D01*
G75*
G02*
X69405000Y-45225000I-200000J0D01*
G01*
X69005000Y-45225000D01*
G75*
G02*
X68805000Y-45025000I0J200000D01*
G01*
X68805000Y-44475000D01*
G75*
G02*
X69005000Y-44275000I200000J0D01*
G01*
X69405000Y-44275000D01*
G75*
G02*
X69605000Y-44475000I0J-200000D01*
G01*
G37*
%TD*%
%TO.C,R16*%
G36*
G01*
X72955000Y-44445000D02*
X72955000Y-44995000D01*
G75*
G02*
X72755000Y-45195000I-200000J0D01*
G01*
X72355000Y-45195000D01*
G75*
G02*
X72155000Y-44995000I0J200000D01*
G01*
X72155000Y-44445000D01*
G75*
G02*
X72355000Y-44245000I200000J0D01*
G01*
X72755000Y-44245000D01*
G75*
G02*
X72955000Y-44445000I0J-200000D01*
G01*
G37*
G36*
G01*
X74605000Y-44445000D02*
X74605000Y-44995000D01*
G75*
G02*
X74405000Y-45195000I-200000J0D01*
G01*
X74005000Y-45195000D01*
G75*
G02*
X73805000Y-44995000I0J200000D01*
G01*
X73805000Y-44445000D01*
G75*
G02*
X74005000Y-44245000I200000J0D01*
G01*
X74405000Y-44245000D01*
G75*
G02*
X74605000Y-44445000I0J-200000D01*
G01*
G37*
%TD*%
%TO.C,C52*%
G36*
G01*
X42270000Y-59775000D02*
X42770000Y-59775000D01*
G75*
G02*
X42995000Y-60000000I0J-225000D01*
G01*
X42995000Y-60450000D01*
G75*
G02*
X42770000Y-60675000I-225000J0D01*
G01*
X42270000Y-60675000D01*
G75*
G02*
X42045000Y-60450000I0J225000D01*
G01*
X42045000Y-60000000D01*
G75*
G02*
X42270000Y-59775000I225000J0D01*
G01*
G37*
G36*
G01*
X42270000Y-58225000D02*
X42770000Y-58225000D01*
G75*
G02*
X42995000Y-58450000I0J-225000D01*
G01*
X42995000Y-58900000D01*
G75*
G02*
X42770000Y-59125000I-225000J0D01*
G01*
X42270000Y-59125000D01*
G75*
G02*
X42045000Y-58900000I0J225000D01*
G01*
X42045000Y-58450000D01*
G75*
G02*
X42270000Y-58225000I225000J0D01*
G01*
G37*
%TD*%
%TO.C,C51*%
G36*
G01*
X34130000Y-39155000D02*
X33630000Y-39155000D01*
G75*
G02*
X33405000Y-38930000I0J225000D01*
G01*
X33405000Y-38480000D01*
G75*
G02*
X33630000Y-38255000I225000J0D01*
G01*
X34130000Y-38255000D01*
G75*
G02*
X34355000Y-38480000I0J-225000D01*
G01*
X34355000Y-38930000D01*
G75*
G02*
X34130000Y-39155000I-225000J0D01*
G01*
G37*
G36*
G01*
X34130000Y-40705000D02*
X33630000Y-40705000D01*
G75*
G02*
X33405000Y-40480000I0J225000D01*
G01*
X33405000Y-40030000D01*
G75*
G02*
X33630000Y-39805000I225000J0D01*
G01*
X34130000Y-39805000D01*
G75*
G02*
X34355000Y-40030000I0J-225000D01*
G01*
X34355000Y-40480000D01*
G75*
G02*
X34130000Y-40705000I-225000J0D01*
G01*
G37*
%TD*%
%TO.C,R14*%
G36*
G01*
X20125000Y-67515000D02*
X20125000Y-66965000D01*
G75*
G02*
X20325000Y-66765000I200000J0D01*
G01*
X20725000Y-66765000D01*
G75*
G02*
X20925000Y-66965000I0J-200000D01*
G01*
X20925000Y-67515000D01*
G75*
G02*
X20725000Y-67715000I-200000J0D01*
G01*
X20325000Y-67715000D01*
G75*
G02*
X20125000Y-67515000I0J200000D01*
G01*
G37*
G36*
G01*
X18475000Y-67515000D02*
X18475000Y-66965000D01*
G75*
G02*
X18675000Y-66765000I200000J0D01*
G01*
X19075000Y-66765000D01*
G75*
G02*
X19275000Y-66965000I0J-200000D01*
G01*
X19275000Y-67515000D01*
G75*
G02*
X19075000Y-67715000I-200000J0D01*
G01*
X18675000Y-67715000D01*
G75*
G02*
X18475000Y-67515000I0J200000D01*
G01*
G37*
%TD*%
%TO.C,R13*%
G36*
G01*
X20125000Y-70255000D02*
X20125000Y-69705000D01*
G75*
G02*
X20325000Y-69505000I200000J0D01*
G01*
X20725000Y-69505000D01*
G75*
G02*
X20925000Y-69705000I0J-200000D01*
G01*
X20925000Y-70255000D01*
G75*
G02*
X20725000Y-70455000I-200000J0D01*
G01*
X20325000Y-70455000D01*
G75*
G02*
X20125000Y-70255000I0J200000D01*
G01*
G37*
G36*
G01*
X18475000Y-70255000D02*
X18475000Y-69705000D01*
G75*
G02*
X18675000Y-69505000I200000J0D01*
G01*
X19075000Y-69505000D01*
G75*
G02*
X19275000Y-69705000I0J-200000D01*
G01*
X19275000Y-70255000D01*
G75*
G02*
X19075000Y-70455000I-200000J0D01*
G01*
X18675000Y-70455000D01*
G75*
G02*
X18475000Y-70255000I0J200000D01*
G01*
G37*
%TD*%
%TO.C,R12*%
G36*
G01*
X20125000Y-72995000D02*
X20125000Y-72445000D01*
G75*
G02*
X20325000Y-72245000I200000J0D01*
G01*
X20725000Y-72245000D01*
G75*
G02*
X20925000Y-72445000I0J-200000D01*
G01*
X20925000Y-72995000D01*
G75*
G02*
X20725000Y-73195000I-200000J0D01*
G01*
X20325000Y-73195000D01*
G75*
G02*
X20125000Y-72995000I0J200000D01*
G01*
G37*
G36*
G01*
X18475000Y-72995000D02*
X18475000Y-72445000D01*
G75*
G02*
X18675000Y-72245000I200000J0D01*
G01*
X19075000Y-72245000D01*
G75*
G02*
X19275000Y-72445000I0J-200000D01*
G01*
X19275000Y-72995000D01*
G75*
G02*
X19075000Y-73195000I-200000J0D01*
G01*
X18675000Y-73195000D01*
G75*
G02*
X18475000Y-72995000I0J200000D01*
G01*
G37*
%TD*%
%TO.C,R11*%
G36*
G01*
X20125000Y-75735000D02*
X20125000Y-75185000D01*
G75*
G02*
X20325000Y-74985000I200000J0D01*
G01*
X20725000Y-74985000D01*
G75*
G02*
X20925000Y-75185000I0J-200000D01*
G01*
X20925000Y-75735000D01*
G75*
G02*
X20725000Y-75935000I-200000J0D01*
G01*
X20325000Y-75935000D01*
G75*
G02*
X20125000Y-75735000I0J200000D01*
G01*
G37*
G36*
G01*
X18475000Y-75735000D02*
X18475000Y-75185000D01*
G75*
G02*
X18675000Y-74985000I200000J0D01*
G01*
X19075000Y-74985000D01*
G75*
G02*
X19275000Y-75185000I0J-200000D01*
G01*
X19275000Y-75735000D01*
G75*
G02*
X19075000Y-75935000I-200000J0D01*
G01*
X18675000Y-75935000D01*
G75*
G02*
X18475000Y-75735000I0J200000D01*
G01*
G37*
%TD*%
%TO.C,D6*%
G36*
G01*
X16890000Y-67496250D02*
X16890000Y-66983750D01*
G75*
G02*
X17108750Y-66765000I218750J0D01*
G01*
X17546250Y-66765000D01*
G75*
G02*
X17765000Y-66983750I0J-218750D01*
G01*
X17765000Y-67496250D01*
G75*
G02*
X17546250Y-67715000I-218750J0D01*
G01*
X17108750Y-67715000D01*
G75*
G02*
X16890000Y-67496250I0J218750D01*
G01*
G37*
G36*
G01*
X15315000Y-67496250D02*
X15315000Y-66983750D01*
G75*
G02*
X15533750Y-66765000I218750J0D01*
G01*
X15971250Y-66765000D01*
G75*
G02*
X16190000Y-66983750I0J-218750D01*
G01*
X16190000Y-67496250D01*
G75*
G02*
X15971250Y-67715000I-218750J0D01*
G01*
X15533750Y-67715000D01*
G75*
G02*
X15315000Y-67496250I0J218750D01*
G01*
G37*
%TD*%
%TO.C,D5*%
G36*
G01*
X16890000Y-70236250D02*
X16890000Y-69723750D01*
G75*
G02*
X17108750Y-69505000I218750J0D01*
G01*
X17546250Y-69505000D01*
G75*
G02*
X17765000Y-69723750I0J-218750D01*
G01*
X17765000Y-70236250D01*
G75*
G02*
X17546250Y-70455000I-218750J0D01*
G01*
X17108750Y-70455000D01*
G75*
G02*
X16890000Y-70236250I0J218750D01*
G01*
G37*
G36*
G01*
X15315000Y-70236250D02*
X15315000Y-69723750D01*
G75*
G02*
X15533750Y-69505000I218750J0D01*
G01*
X15971250Y-69505000D01*
G75*
G02*
X16190000Y-69723750I0J-218750D01*
G01*
X16190000Y-70236250D01*
G75*
G02*
X15971250Y-70455000I-218750J0D01*
G01*
X15533750Y-70455000D01*
G75*
G02*
X15315000Y-70236250I0J218750D01*
G01*
G37*
%TD*%
%TO.C,D4*%
G36*
G01*
X16890000Y-72976250D02*
X16890000Y-72463750D01*
G75*
G02*
X17108750Y-72245000I218750J0D01*
G01*
X17546250Y-72245000D01*
G75*
G02*
X17765000Y-72463750I0J-218750D01*
G01*
X17765000Y-72976250D01*
G75*
G02*
X17546250Y-73195000I-218750J0D01*
G01*
X17108750Y-73195000D01*
G75*
G02*
X16890000Y-72976250I0J218750D01*
G01*
G37*
G36*
G01*
X15315000Y-72976250D02*
X15315000Y-72463750D01*
G75*
G02*
X15533750Y-72245000I218750J0D01*
G01*
X15971250Y-72245000D01*
G75*
G02*
X16190000Y-72463750I0J-218750D01*
G01*
X16190000Y-72976250D01*
G75*
G02*
X15971250Y-73195000I-218750J0D01*
G01*
X15533750Y-73195000D01*
G75*
G02*
X15315000Y-72976250I0J218750D01*
G01*
G37*
%TD*%
%TO.C,D3*%
G36*
G01*
X16890000Y-75716250D02*
X16890000Y-75203750D01*
G75*
G02*
X17108750Y-74985000I218750J0D01*
G01*
X17546250Y-74985000D01*
G75*
G02*
X17765000Y-75203750I0J-218750D01*
G01*
X17765000Y-75716250D01*
G75*
G02*
X17546250Y-75935000I-218750J0D01*
G01*
X17108750Y-75935000D01*
G75*
G02*
X16890000Y-75716250I0J218750D01*
G01*
G37*
G36*
G01*
X15315000Y-75716250D02*
X15315000Y-75203750D01*
G75*
G02*
X15533750Y-74985000I218750J0D01*
G01*
X15971250Y-74985000D01*
G75*
G02*
X16190000Y-75203750I0J-218750D01*
G01*
X16190000Y-75716250D01*
G75*
G02*
X15971250Y-75935000I-218750J0D01*
G01*
X15533750Y-75935000D01*
G75*
G02*
X15315000Y-75716250I0J218750D01*
G01*
G37*
%TD*%
D20*
%TO.C,U2*%
X51340000Y-56380000D03*
G36*
G01*
X48552500Y-54755000D02*
X49227500Y-54755000D01*
G75*
G02*
X49290000Y-54817500I0J-62500D01*
G01*
X49290000Y-54942500D01*
G75*
G02*
X49227500Y-55005000I-62500J0D01*
G01*
X48552500Y-55005000D01*
G75*
G02*
X48490000Y-54942500I0J62500D01*
G01*
X48490000Y-54817500D01*
G75*
G02*
X48552500Y-54755000I62500J0D01*
G01*
G37*
G36*
G01*
X48552500Y-55255000D02*
X49227500Y-55255000D01*
G75*
G02*
X49290000Y-55317500I0J-62500D01*
G01*
X49290000Y-55442500D01*
G75*
G02*
X49227500Y-55505000I-62500J0D01*
G01*
X48552500Y-55505000D01*
G75*
G02*
X48490000Y-55442500I0J62500D01*
G01*
X48490000Y-55317500D01*
G75*
G02*
X48552500Y-55255000I62500J0D01*
G01*
G37*
G36*
G01*
X48552500Y-55755000D02*
X49227500Y-55755000D01*
G75*
G02*
X49290000Y-55817500I0J-62500D01*
G01*
X49290000Y-55942500D01*
G75*
G02*
X49227500Y-56005000I-62500J0D01*
G01*
X48552500Y-56005000D01*
G75*
G02*
X48490000Y-55942500I0J62500D01*
G01*
X48490000Y-55817500D01*
G75*
G02*
X48552500Y-55755000I62500J0D01*
G01*
G37*
G36*
G01*
X48552500Y-56255000D02*
X49227500Y-56255000D01*
G75*
G02*
X49290000Y-56317500I0J-62500D01*
G01*
X49290000Y-56442500D01*
G75*
G02*
X49227500Y-56505000I-62500J0D01*
G01*
X48552500Y-56505000D01*
G75*
G02*
X48490000Y-56442500I0J62500D01*
G01*
X48490000Y-56317500D01*
G75*
G02*
X48552500Y-56255000I62500J0D01*
G01*
G37*
G36*
G01*
X48552500Y-56755000D02*
X49227500Y-56755000D01*
G75*
G02*
X49290000Y-56817500I0J-62500D01*
G01*
X49290000Y-56942500D01*
G75*
G02*
X49227500Y-57005000I-62500J0D01*
G01*
X48552500Y-57005000D01*
G75*
G02*
X48490000Y-56942500I0J62500D01*
G01*
X48490000Y-56817500D01*
G75*
G02*
X48552500Y-56755000I62500J0D01*
G01*
G37*
G36*
G01*
X48552500Y-57255000D02*
X49227500Y-57255000D01*
G75*
G02*
X49290000Y-57317500I0J-62500D01*
G01*
X49290000Y-57442500D01*
G75*
G02*
X49227500Y-57505000I-62500J0D01*
G01*
X48552500Y-57505000D01*
G75*
G02*
X48490000Y-57442500I0J62500D01*
G01*
X48490000Y-57317500D01*
G75*
G02*
X48552500Y-57255000I62500J0D01*
G01*
G37*
G36*
G01*
X48552500Y-57755000D02*
X49227500Y-57755000D01*
G75*
G02*
X49290000Y-57817500I0J-62500D01*
G01*
X49290000Y-57942500D01*
G75*
G02*
X49227500Y-58005000I-62500J0D01*
G01*
X48552500Y-58005000D01*
G75*
G02*
X48490000Y-57942500I0J62500D01*
G01*
X48490000Y-57817500D01*
G75*
G02*
X48552500Y-57755000I62500J0D01*
G01*
G37*
G36*
G01*
X49777500Y-58430000D02*
X49902500Y-58430000D01*
G75*
G02*
X49965000Y-58492500I0J-62500D01*
G01*
X49965000Y-59167500D01*
G75*
G02*
X49902500Y-59230000I-62500J0D01*
G01*
X49777500Y-59230000D01*
G75*
G02*
X49715000Y-59167500I0J62500D01*
G01*
X49715000Y-58492500D01*
G75*
G02*
X49777500Y-58430000I62500J0D01*
G01*
G37*
G36*
G01*
X50277500Y-58430000D02*
X50402500Y-58430000D01*
G75*
G02*
X50465000Y-58492500I0J-62500D01*
G01*
X50465000Y-59167500D01*
G75*
G02*
X50402500Y-59230000I-62500J0D01*
G01*
X50277500Y-59230000D01*
G75*
G02*
X50215000Y-59167500I0J62500D01*
G01*
X50215000Y-58492500D01*
G75*
G02*
X50277500Y-58430000I62500J0D01*
G01*
G37*
G36*
G01*
X50777500Y-58430000D02*
X50902500Y-58430000D01*
G75*
G02*
X50965000Y-58492500I0J-62500D01*
G01*
X50965000Y-59167500D01*
G75*
G02*
X50902500Y-59230000I-62500J0D01*
G01*
X50777500Y-59230000D01*
G75*
G02*
X50715000Y-59167500I0J62500D01*
G01*
X50715000Y-58492500D01*
G75*
G02*
X50777500Y-58430000I62500J0D01*
G01*
G37*
G36*
G01*
X51277500Y-58430000D02*
X51402500Y-58430000D01*
G75*
G02*
X51465000Y-58492500I0J-62500D01*
G01*
X51465000Y-59167500D01*
G75*
G02*
X51402500Y-59230000I-62500J0D01*
G01*
X51277500Y-59230000D01*
G75*
G02*
X51215000Y-59167500I0J62500D01*
G01*
X51215000Y-58492500D01*
G75*
G02*
X51277500Y-58430000I62500J0D01*
G01*
G37*
G36*
G01*
X51777500Y-58430000D02*
X51902500Y-58430000D01*
G75*
G02*
X51965000Y-58492500I0J-62500D01*
G01*
X51965000Y-59167500D01*
G75*
G02*
X51902500Y-59230000I-62500J0D01*
G01*
X51777500Y-59230000D01*
G75*
G02*
X51715000Y-59167500I0J62500D01*
G01*
X51715000Y-58492500D01*
G75*
G02*
X51777500Y-58430000I62500J0D01*
G01*
G37*
G36*
G01*
X52277500Y-58430000D02*
X52402500Y-58430000D01*
G75*
G02*
X52465000Y-58492500I0J-62500D01*
G01*
X52465000Y-59167500D01*
G75*
G02*
X52402500Y-59230000I-62500J0D01*
G01*
X52277500Y-59230000D01*
G75*
G02*
X52215000Y-59167500I0J62500D01*
G01*
X52215000Y-58492500D01*
G75*
G02*
X52277500Y-58430000I62500J0D01*
G01*
G37*
G36*
G01*
X52777500Y-58430000D02*
X52902500Y-58430000D01*
G75*
G02*
X52965000Y-58492500I0J-62500D01*
G01*
X52965000Y-59167500D01*
G75*
G02*
X52902500Y-59230000I-62500J0D01*
G01*
X52777500Y-59230000D01*
G75*
G02*
X52715000Y-59167500I0J62500D01*
G01*
X52715000Y-58492500D01*
G75*
G02*
X52777500Y-58430000I62500J0D01*
G01*
G37*
G36*
G01*
X53452500Y-57755000D02*
X54127500Y-57755000D01*
G75*
G02*
X54190000Y-57817500I0J-62500D01*
G01*
X54190000Y-57942500D01*
G75*
G02*
X54127500Y-58005000I-62500J0D01*
G01*
X53452500Y-58005000D01*
G75*
G02*
X53390000Y-57942500I0J62500D01*
G01*
X53390000Y-57817500D01*
G75*
G02*
X53452500Y-57755000I62500J0D01*
G01*
G37*
G36*
G01*
X53452500Y-57255000D02*
X54127500Y-57255000D01*
G75*
G02*
X54190000Y-57317500I0J-62500D01*
G01*
X54190000Y-57442500D01*
G75*
G02*
X54127500Y-57505000I-62500J0D01*
G01*
X53452500Y-57505000D01*
G75*
G02*
X53390000Y-57442500I0J62500D01*
G01*
X53390000Y-57317500D01*
G75*
G02*
X53452500Y-57255000I62500J0D01*
G01*
G37*
G36*
G01*
X53452500Y-56755000D02*
X54127500Y-56755000D01*
G75*
G02*
X54190000Y-56817500I0J-62500D01*
G01*
X54190000Y-56942500D01*
G75*
G02*
X54127500Y-57005000I-62500J0D01*
G01*
X53452500Y-57005000D01*
G75*
G02*
X53390000Y-56942500I0J62500D01*
G01*
X53390000Y-56817500D01*
G75*
G02*
X53452500Y-56755000I62500J0D01*
G01*
G37*
G36*
G01*
X53452500Y-56255000D02*
X54127500Y-56255000D01*
G75*
G02*
X54190000Y-56317500I0J-62500D01*
G01*
X54190000Y-56442500D01*
G75*
G02*
X54127500Y-56505000I-62500J0D01*
G01*
X53452500Y-56505000D01*
G75*
G02*
X53390000Y-56442500I0J62500D01*
G01*
X53390000Y-56317500D01*
G75*
G02*
X53452500Y-56255000I62500J0D01*
G01*
G37*
G36*
G01*
X53452500Y-55755000D02*
X54127500Y-55755000D01*
G75*
G02*
X54190000Y-55817500I0J-62500D01*
G01*
X54190000Y-55942500D01*
G75*
G02*
X54127500Y-56005000I-62500J0D01*
G01*
X53452500Y-56005000D01*
G75*
G02*
X53390000Y-55942500I0J62500D01*
G01*
X53390000Y-55817500D01*
G75*
G02*
X53452500Y-55755000I62500J0D01*
G01*
G37*
G36*
G01*
X53452500Y-55255000D02*
X54127500Y-55255000D01*
G75*
G02*
X54190000Y-55317500I0J-62500D01*
G01*
X54190000Y-55442500D01*
G75*
G02*
X54127500Y-55505000I-62500J0D01*
G01*
X53452500Y-55505000D01*
G75*
G02*
X53390000Y-55442500I0J62500D01*
G01*
X53390000Y-55317500D01*
G75*
G02*
X53452500Y-55255000I62500J0D01*
G01*
G37*
G36*
G01*
X53452500Y-54755000D02*
X54127500Y-54755000D01*
G75*
G02*
X54190000Y-54817500I0J-62500D01*
G01*
X54190000Y-54942500D01*
G75*
G02*
X54127500Y-55005000I-62500J0D01*
G01*
X53452500Y-55005000D01*
G75*
G02*
X53390000Y-54942500I0J62500D01*
G01*
X53390000Y-54817500D01*
G75*
G02*
X53452500Y-54755000I62500J0D01*
G01*
G37*
G36*
G01*
X52777500Y-53530000D02*
X52902500Y-53530000D01*
G75*
G02*
X52965000Y-53592500I0J-62500D01*
G01*
X52965000Y-54267500D01*
G75*
G02*
X52902500Y-54330000I-62500J0D01*
G01*
X52777500Y-54330000D01*
G75*
G02*
X52715000Y-54267500I0J62500D01*
G01*
X52715000Y-53592500D01*
G75*
G02*
X52777500Y-53530000I62500J0D01*
G01*
G37*
G36*
G01*
X52277500Y-53530000D02*
X52402500Y-53530000D01*
G75*
G02*
X52465000Y-53592500I0J-62500D01*
G01*
X52465000Y-54267500D01*
G75*
G02*
X52402500Y-54330000I-62500J0D01*
G01*
X52277500Y-54330000D01*
G75*
G02*
X52215000Y-54267500I0J62500D01*
G01*
X52215000Y-53592500D01*
G75*
G02*
X52277500Y-53530000I62500J0D01*
G01*
G37*
G36*
G01*
X51777500Y-53530000D02*
X51902500Y-53530000D01*
G75*
G02*
X51965000Y-53592500I0J-62500D01*
G01*
X51965000Y-54267500D01*
G75*
G02*
X51902500Y-54330000I-62500J0D01*
G01*
X51777500Y-54330000D01*
G75*
G02*
X51715000Y-54267500I0J62500D01*
G01*
X51715000Y-53592500D01*
G75*
G02*
X51777500Y-53530000I62500J0D01*
G01*
G37*
G36*
G01*
X51277500Y-53530000D02*
X51402500Y-53530000D01*
G75*
G02*
X51465000Y-53592500I0J-62500D01*
G01*
X51465000Y-54267500D01*
G75*
G02*
X51402500Y-54330000I-62500J0D01*
G01*
X51277500Y-54330000D01*
G75*
G02*
X51215000Y-54267500I0J62500D01*
G01*
X51215000Y-53592500D01*
G75*
G02*
X51277500Y-53530000I62500J0D01*
G01*
G37*
G36*
G01*
X50777500Y-53530000D02*
X50902500Y-53530000D01*
G75*
G02*
X50965000Y-53592500I0J-62500D01*
G01*
X50965000Y-54267500D01*
G75*
G02*
X50902500Y-54330000I-62500J0D01*
G01*
X50777500Y-54330000D01*
G75*
G02*
X50715000Y-54267500I0J62500D01*
G01*
X50715000Y-53592500D01*
G75*
G02*
X50777500Y-53530000I62500J0D01*
G01*
G37*
G36*
G01*
X50277500Y-53530000D02*
X50402500Y-53530000D01*
G75*
G02*
X50465000Y-53592500I0J-62500D01*
G01*
X50465000Y-54267500D01*
G75*
G02*
X50402500Y-54330000I-62500J0D01*
G01*
X50277500Y-54330000D01*
G75*
G02*
X50215000Y-54267500I0J62500D01*
G01*
X50215000Y-53592500D01*
G75*
G02*
X50277500Y-53530000I62500J0D01*
G01*
G37*
G36*
G01*
X49777500Y-53530000D02*
X49902500Y-53530000D01*
G75*
G02*
X49965000Y-53592500I0J-62500D01*
G01*
X49965000Y-54267500D01*
G75*
G02*
X49902500Y-54330000I-62500J0D01*
G01*
X49777500Y-54330000D01*
G75*
G02*
X49715000Y-54267500I0J62500D01*
G01*
X49715000Y-53592500D01*
G75*
G02*
X49777500Y-53530000I62500J0D01*
G01*
G37*
%TD*%
D21*
%TO.C,U1*%
X50670000Y-40060000D03*
X50670000Y-44660000D03*
X50670000Y-42360000D03*
D22*
X44370000Y-42360000D03*
%TD*%
%TO.C,R8*%
G36*
G01*
X27685000Y-61465000D02*
X27685000Y-62015000D01*
G75*
G02*
X27485000Y-62215000I-200000J0D01*
G01*
X27085000Y-62215000D01*
G75*
G02*
X26885000Y-62015000I0J200000D01*
G01*
X26885000Y-61465000D01*
G75*
G02*
X27085000Y-61265000I200000J0D01*
G01*
X27485000Y-61265000D01*
G75*
G02*
X27685000Y-61465000I0J-200000D01*
G01*
G37*
G36*
G01*
X29335000Y-61465000D02*
X29335000Y-62015000D01*
G75*
G02*
X29135000Y-62215000I-200000J0D01*
G01*
X28735000Y-62215000D01*
G75*
G02*
X28535000Y-62015000I0J200000D01*
G01*
X28535000Y-61465000D01*
G75*
G02*
X28735000Y-61265000I200000J0D01*
G01*
X29135000Y-61265000D01*
G75*
G02*
X29335000Y-61465000I0J-200000D01*
G01*
G37*
%TD*%
%TO.C,R7*%
G36*
G01*
X25505000Y-62005000D02*
X25505000Y-61455000D01*
G75*
G02*
X25705000Y-61255000I200000J0D01*
G01*
X26105000Y-61255000D01*
G75*
G02*
X26305000Y-61455000I0J-200000D01*
G01*
X26305000Y-62005000D01*
G75*
G02*
X26105000Y-62205000I-200000J0D01*
G01*
X25705000Y-62205000D01*
G75*
G02*
X25505000Y-62005000I0J200000D01*
G01*
G37*
G36*
G01*
X23855000Y-62005000D02*
X23855000Y-61455000D01*
G75*
G02*
X24055000Y-61255000I200000J0D01*
G01*
X24455000Y-61255000D01*
G75*
G02*
X24655000Y-61455000I0J-200000D01*
G01*
X24655000Y-62005000D01*
G75*
G02*
X24455000Y-62205000I-200000J0D01*
G01*
X24055000Y-62205000D01*
G75*
G02*
X23855000Y-62005000I0J200000D01*
G01*
G37*
%TD*%
%TO.C,R5*%
G36*
G01*
X43105000Y-48045000D02*
X43655000Y-48045000D01*
G75*
G02*
X43855000Y-48245000I0J-200000D01*
G01*
X43855000Y-48645000D01*
G75*
G02*
X43655000Y-48845000I-200000J0D01*
G01*
X43105000Y-48845000D01*
G75*
G02*
X42905000Y-48645000I0J200000D01*
G01*
X42905000Y-48245000D01*
G75*
G02*
X43105000Y-48045000I200000J0D01*
G01*
G37*
G36*
G01*
X43105000Y-46395000D02*
X43655000Y-46395000D01*
G75*
G02*
X43855000Y-46595000I0J-200000D01*
G01*
X43855000Y-46995000D01*
G75*
G02*
X43655000Y-47195000I-200000J0D01*
G01*
X43105000Y-47195000D01*
G75*
G02*
X42905000Y-46995000I0J200000D01*
G01*
X42905000Y-46595000D01*
G75*
G02*
X43105000Y-46395000I200000J0D01*
G01*
G37*
%TD*%
%TO.C,R4*%
G36*
G01*
X47555000Y-50735000D02*
X47005000Y-50735000D01*
G75*
G02*
X46805000Y-50535000I0J200000D01*
G01*
X46805000Y-50135000D01*
G75*
G02*
X47005000Y-49935000I200000J0D01*
G01*
X47555000Y-49935000D01*
G75*
G02*
X47755000Y-50135000I0J-200000D01*
G01*
X47755000Y-50535000D01*
G75*
G02*
X47555000Y-50735000I-200000J0D01*
G01*
G37*
G36*
G01*
X47555000Y-52385000D02*
X47005000Y-52385000D01*
G75*
G02*
X46805000Y-52185000I0J200000D01*
G01*
X46805000Y-51785000D01*
G75*
G02*
X47005000Y-51585000I200000J0D01*
G01*
X47555000Y-51585000D01*
G75*
G02*
X47755000Y-51785000I0J-200000D01*
G01*
X47755000Y-52185000D01*
G75*
G02*
X47555000Y-52385000I-200000J0D01*
G01*
G37*
%TD*%
%TO.C,R3*%
G36*
G01*
X46965000Y-55305000D02*
X46965000Y-54755000D01*
G75*
G02*
X47165000Y-54555000I200000J0D01*
G01*
X47565000Y-54555000D01*
G75*
G02*
X47765000Y-54755000I0J-200000D01*
G01*
X47765000Y-55305000D01*
G75*
G02*
X47565000Y-55505000I-200000J0D01*
G01*
X47165000Y-55505000D01*
G75*
G02*
X46965000Y-55305000I0J200000D01*
G01*
G37*
G36*
G01*
X45315000Y-55305000D02*
X45315000Y-54755000D01*
G75*
G02*
X45515000Y-54555000I200000J0D01*
G01*
X45915000Y-54555000D01*
G75*
G02*
X46115000Y-54755000I0J-200000D01*
G01*
X46115000Y-55305000D01*
G75*
G02*
X45915000Y-55505000I-200000J0D01*
G01*
X45515000Y-55505000D01*
G75*
G02*
X45315000Y-55305000I0J200000D01*
G01*
G37*
%TD*%
%TO.C,R2*%
G36*
G01*
X46955000Y-56815000D02*
X46955000Y-56265000D01*
G75*
G02*
X47155000Y-56065000I200000J0D01*
G01*
X47555000Y-56065000D01*
G75*
G02*
X47755000Y-56265000I0J-200000D01*
G01*
X47755000Y-56815000D01*
G75*
G02*
X47555000Y-57015000I-200000J0D01*
G01*
X47155000Y-57015000D01*
G75*
G02*
X46955000Y-56815000I0J200000D01*
G01*
G37*
G36*
G01*
X45305000Y-56815000D02*
X45305000Y-56265000D01*
G75*
G02*
X45505000Y-56065000I200000J0D01*
G01*
X45905000Y-56065000D01*
G75*
G02*
X46105000Y-56265000I0J-200000D01*
G01*
X46105000Y-56815000D01*
G75*
G02*
X45905000Y-57015000I-200000J0D01*
G01*
X45505000Y-57015000D01*
G75*
G02*
X45305000Y-56815000I0J200000D01*
G01*
G37*
%TD*%
%TO.C,R1*%
G36*
G01*
X29885000Y-39025000D02*
X29335000Y-39025000D01*
G75*
G02*
X29135000Y-38825000I0J200000D01*
G01*
X29135000Y-38425000D01*
G75*
G02*
X29335000Y-38225000I200000J0D01*
G01*
X29885000Y-38225000D01*
G75*
G02*
X30085000Y-38425000I0J-200000D01*
G01*
X30085000Y-38825000D01*
G75*
G02*
X29885000Y-39025000I-200000J0D01*
G01*
G37*
G36*
G01*
X29885000Y-40675000D02*
X29335000Y-40675000D01*
G75*
G02*
X29135000Y-40475000I0J200000D01*
G01*
X29135000Y-40075000D01*
G75*
G02*
X29335000Y-39875000I200000J0D01*
G01*
X29885000Y-39875000D01*
G75*
G02*
X30085000Y-40075000I0J-200000D01*
G01*
X30085000Y-40475000D01*
G75*
G02*
X29885000Y-40675000I-200000J0D01*
G01*
G37*
%TD*%
D23*
%TO.C,Q2*%
X45920000Y-48840000D03*
X46870000Y-46840000D03*
X44970000Y-46840000D03*
%TD*%
D24*
%TO.C,Q1*%
X45560000Y-51390000D03*
X43560000Y-50440000D03*
X43560000Y-52340000D03*
%TD*%
D25*
%TO.C,J1*%
X58710000Y-39460000D03*
X56310000Y-39460000D03*
D26*
X61310000Y-39460000D03*
X53710000Y-39460000D03*
D27*
X60610000Y-42010000D03*
X54410000Y-42010000D03*
D28*
X58810000Y-42135000D03*
X56210000Y-42135000D03*
X58160000Y-42135000D03*
X56860000Y-42135000D03*
X57510000Y-42135000D03*
%TD*%
D29*
%TO.C,D2*%
X58240000Y-46710000D03*
X57290000Y-46710000D03*
X59190000Y-46710000D03*
X59190000Y-44510000D03*
X58240000Y-44510000D03*
X57290000Y-44510000D03*
%TD*%
D30*
%TO.C,D1*%
X55250000Y-44210000D03*
X55250000Y-47010000D03*
%TD*%
%TO.C,C8*%
G36*
G01*
X55645000Y-54310000D02*
X55645000Y-54810000D01*
G75*
G02*
X55420000Y-55035000I-225000J0D01*
G01*
X54970000Y-55035000D01*
G75*
G02*
X54745000Y-54810000I0J225000D01*
G01*
X54745000Y-54310000D01*
G75*
G02*
X54970000Y-54085000I225000J0D01*
G01*
X55420000Y-54085000D01*
G75*
G02*
X55645000Y-54310000I0J-225000D01*
G01*
G37*
G36*
G01*
X57195000Y-54310000D02*
X57195000Y-54810000D01*
G75*
G02*
X56970000Y-55035000I-225000J0D01*
G01*
X56520000Y-55035000D01*
G75*
G02*
X56295000Y-54810000I0J225000D01*
G01*
X56295000Y-54310000D01*
G75*
G02*
X56520000Y-54085000I225000J0D01*
G01*
X56970000Y-54085000D01*
G75*
G02*
X57195000Y-54310000I0J-225000D01*
G01*
G37*
%TD*%
%TO.C,C7*%
G36*
G01*
X31540000Y-39805000D02*
X32040000Y-39805000D01*
G75*
G02*
X32265000Y-40030000I0J-225000D01*
G01*
X32265000Y-40480000D01*
G75*
G02*
X32040000Y-40705000I-225000J0D01*
G01*
X31540000Y-40705000D01*
G75*
G02*
X31315000Y-40480000I0J225000D01*
G01*
X31315000Y-40030000D01*
G75*
G02*
X31540000Y-39805000I225000J0D01*
G01*
G37*
G36*
G01*
X31540000Y-38255000D02*
X32040000Y-38255000D01*
G75*
G02*
X32265000Y-38480000I0J-225000D01*
G01*
X32265000Y-38930000D01*
G75*
G02*
X32040000Y-39155000I-225000J0D01*
G01*
X31540000Y-39155000D01*
G75*
G02*
X31315000Y-38930000I0J225000D01*
G01*
X31315000Y-38480000D01*
G75*
G02*
X31540000Y-38255000I225000J0D01*
G01*
G37*
%TD*%
%TO.C,C6*%
G36*
G01*
X53689999Y-51700000D02*
X54590001Y-51700000D01*
G75*
G02*
X54840000Y-51949999I0J-249999D01*
G01*
X54840000Y-52600001D01*
G75*
G02*
X54590001Y-52850000I-249999J0D01*
G01*
X53689999Y-52850000D01*
G75*
G02*
X53440000Y-52600001I0J249999D01*
G01*
X53440000Y-51949999D01*
G75*
G02*
X53689999Y-51700000I249999J0D01*
G01*
G37*
G36*
G01*
X53689999Y-49650000D02*
X54590001Y-49650000D01*
G75*
G02*
X54840000Y-49899999I0J-249999D01*
G01*
X54840000Y-50550001D01*
G75*
G02*
X54590001Y-50800000I-249999J0D01*
G01*
X53689999Y-50800000D01*
G75*
G02*
X53440000Y-50550001I0J249999D01*
G01*
X53440000Y-49899999D01*
G75*
G02*
X53689999Y-49650000I249999J0D01*
G01*
G37*
%TD*%
%TO.C,C5*%
G36*
G01*
X52170000Y-51945000D02*
X52670000Y-51945000D01*
G75*
G02*
X52895000Y-52170000I0J-225000D01*
G01*
X52895000Y-52620000D01*
G75*
G02*
X52670000Y-52845000I-225000J0D01*
G01*
X52170000Y-52845000D01*
G75*
G02*
X51945000Y-52620000I0J225000D01*
G01*
X51945000Y-52170000D01*
G75*
G02*
X52170000Y-51945000I225000J0D01*
G01*
G37*
G36*
G01*
X52170000Y-50395000D02*
X52670000Y-50395000D01*
G75*
G02*
X52895000Y-50620000I0J-225000D01*
G01*
X52895000Y-51070000D01*
G75*
G02*
X52670000Y-51295000I-225000J0D01*
G01*
X52170000Y-51295000D01*
G75*
G02*
X51945000Y-51070000I0J225000D01*
G01*
X51945000Y-50620000D01*
G75*
G02*
X52170000Y-50395000I225000J0D01*
G01*
G37*
%TD*%
%TO.C,C4*%
G36*
G01*
X26200000Y-38609999D02*
X26200000Y-39510001D01*
G75*
G02*
X25950001Y-39760000I-249999J0D01*
G01*
X25299999Y-39760000D01*
G75*
G02*
X25050000Y-39510001I0J249999D01*
G01*
X25050000Y-38609999D01*
G75*
G02*
X25299999Y-38360000I249999J0D01*
G01*
X25950001Y-38360000D01*
G75*
G02*
X26200000Y-38609999I0J-249999D01*
G01*
G37*
G36*
G01*
X28250000Y-38609999D02*
X28250000Y-39510001D01*
G75*
G02*
X28000001Y-39760000I-249999J0D01*
G01*
X27349999Y-39760000D01*
G75*
G02*
X27100000Y-39510001I0J249999D01*
G01*
X27100000Y-38609999D01*
G75*
G02*
X27349999Y-38360000I249999J0D01*
G01*
X28000001Y-38360000D01*
G75*
G02*
X28250000Y-38609999I0J-249999D01*
G01*
G37*
%TD*%
%TO.C,C3*%
G36*
G01*
X23405000Y-40420000D02*
X23405000Y-39920000D01*
G75*
G02*
X23630000Y-39695000I225000J0D01*
G01*
X24080000Y-39695000D01*
G75*
G02*
X24305000Y-39920000I0J-225000D01*
G01*
X24305000Y-40420000D01*
G75*
G02*
X24080000Y-40645000I-225000J0D01*
G01*
X23630000Y-40645000D01*
G75*
G02*
X23405000Y-40420000I0J225000D01*
G01*
G37*
G36*
G01*
X21855000Y-40420000D02*
X21855000Y-39920000D01*
G75*
G02*
X22080000Y-39695000I225000J0D01*
G01*
X22530000Y-39695000D01*
G75*
G02*
X22755000Y-39920000I0J-225000D01*
G01*
X22755000Y-40420000D01*
G75*
G02*
X22530000Y-40645000I-225000J0D01*
G01*
X22080000Y-40645000D01*
G75*
G02*
X21855000Y-40420000I0J225000D01*
G01*
G37*
%TD*%
%TO.C,C2*%
G36*
G01*
X49470000Y-46999999D02*
X49470000Y-47900001D01*
G75*
G02*
X49220001Y-48150000I-249999J0D01*
G01*
X48569999Y-48150000D01*
G75*
G02*
X48320000Y-47900001I0J249999D01*
G01*
X48320000Y-46999999D01*
G75*
G02*
X48569999Y-46750000I249999J0D01*
G01*
X49220001Y-46750000D01*
G75*
G02*
X49470000Y-46999999I0J-249999D01*
G01*
G37*
G36*
G01*
X51520000Y-46999999D02*
X51520000Y-47900001D01*
G75*
G02*
X51270001Y-48150000I-249999J0D01*
G01*
X50619999Y-48150000D01*
G75*
G02*
X50370000Y-47900001I0J249999D01*
G01*
X50370000Y-46999999D01*
G75*
G02*
X50619999Y-46750000I249999J0D01*
G01*
X51270001Y-46750000D01*
G75*
G02*
X51520000Y-46999999I0J-249999D01*
G01*
G37*
%TD*%
%TO.C,C1*%
G36*
G01*
X52629999Y-45385000D02*
X53530001Y-45385000D01*
G75*
G02*
X53780000Y-45634999I0J-249999D01*
G01*
X53780000Y-46285001D01*
G75*
G02*
X53530001Y-46535000I-249999J0D01*
G01*
X52629999Y-46535000D01*
G75*
G02*
X52380000Y-46285001I0J249999D01*
G01*
X52380000Y-45634999D01*
G75*
G02*
X52629999Y-45385000I249999J0D01*
G01*
G37*
G36*
G01*
X52629999Y-43335000D02*
X53530001Y-43335000D01*
G75*
G02*
X53780000Y-43584999I0J-249999D01*
G01*
X53780000Y-44235001D01*
G75*
G02*
X53530001Y-44485000I-249999J0D01*
G01*
X52629999Y-44485000D01*
G75*
G02*
X52380000Y-44235001I0J249999D01*
G01*
X52380000Y-43584999D01*
G75*
G02*
X52629999Y-43335000I249999J0D01*
G01*
G37*
%TD*%
%TO.C,C46*%
G36*
G01*
X156310000Y-114505000D02*
X156810000Y-114505000D01*
G75*
G02*
X157035000Y-114730000I0J-225000D01*
G01*
X157035000Y-115180000D01*
G75*
G02*
X156810000Y-115405000I-225000J0D01*
G01*
X156310000Y-115405000D01*
G75*
G02*
X156085000Y-115180000I0J225000D01*
G01*
X156085000Y-114730000D01*
G75*
G02*
X156310000Y-114505000I225000J0D01*
G01*
G37*
G36*
G01*
X156310000Y-116055000D02*
X156810000Y-116055000D01*
G75*
G02*
X157035000Y-116280000I0J-225000D01*
G01*
X157035000Y-116730000D01*
G75*
G02*
X156810000Y-116955000I-225000J0D01*
G01*
X156310000Y-116955000D01*
G75*
G02*
X156085000Y-116730000I0J225000D01*
G01*
X156085000Y-116280000D01*
G75*
G02*
X156310000Y-116055000I225000J0D01*
G01*
G37*
%TD*%
%TO.C,C44*%
G36*
G01*
X158945000Y-109910000D02*
X158945000Y-109410000D01*
G75*
G02*
X159170000Y-109185000I225000J0D01*
G01*
X159620000Y-109185000D01*
G75*
G02*
X159845000Y-109410000I0J-225000D01*
G01*
X159845000Y-109910000D01*
G75*
G02*
X159620000Y-110135000I-225000J0D01*
G01*
X159170000Y-110135000D01*
G75*
G02*
X158945000Y-109910000I0J225000D01*
G01*
G37*
G36*
G01*
X160495000Y-109910000D02*
X160495000Y-109410000D01*
G75*
G02*
X160720000Y-109185000I225000J0D01*
G01*
X161170000Y-109185000D01*
G75*
G02*
X161395000Y-109410000I0J-225000D01*
G01*
X161395000Y-109910000D01*
G75*
G02*
X161170000Y-110135000I-225000J0D01*
G01*
X160720000Y-110135000D01*
G75*
G02*
X160495000Y-109910000I0J225000D01*
G01*
G37*
%TD*%
%TO.C,C49*%
G36*
G01*
X157860000Y-114495000D02*
X158360000Y-114495000D01*
G75*
G02*
X158585000Y-114720000I0J-225000D01*
G01*
X158585000Y-115170000D01*
G75*
G02*
X158360000Y-115395000I-225000J0D01*
G01*
X157860000Y-115395000D01*
G75*
G02*
X157635000Y-115170000I0J225000D01*
G01*
X157635000Y-114720000D01*
G75*
G02*
X157860000Y-114495000I225000J0D01*
G01*
G37*
G36*
G01*
X157860000Y-116045000D02*
X158360000Y-116045000D01*
G75*
G02*
X158585000Y-116270000I0J-225000D01*
G01*
X158585000Y-116720000D01*
G75*
G02*
X158360000Y-116945000I-225000J0D01*
G01*
X157860000Y-116945000D01*
G75*
G02*
X157635000Y-116720000I0J225000D01*
G01*
X157635000Y-116270000D01*
G75*
G02*
X157860000Y-116045000I225000J0D01*
G01*
G37*
%TD*%
%TO.C,C50*%
G36*
G01*
X154740000Y-114495000D02*
X155240000Y-114495000D01*
G75*
G02*
X155465000Y-114720000I0J-225000D01*
G01*
X155465000Y-115170000D01*
G75*
G02*
X155240000Y-115395000I-225000J0D01*
G01*
X154740000Y-115395000D01*
G75*
G02*
X154515000Y-115170000I0J225000D01*
G01*
X154515000Y-114720000D01*
G75*
G02*
X154740000Y-114495000I225000J0D01*
G01*
G37*
G36*
G01*
X154740000Y-116045000D02*
X155240000Y-116045000D01*
G75*
G02*
X155465000Y-116270000I0J-225000D01*
G01*
X155465000Y-116720000D01*
G75*
G02*
X155240000Y-116945000I-225000J0D01*
G01*
X154740000Y-116945000D01*
G75*
G02*
X154515000Y-116720000I0J225000D01*
G01*
X154515000Y-116270000D01*
G75*
G02*
X154740000Y-116045000I225000J0D01*
G01*
G37*
%TD*%
%TO.C,C45*%
G36*
G01*
X153840000Y-103645000D02*
X153340000Y-103645000D01*
G75*
G02*
X153115000Y-103420000I0J225000D01*
G01*
X153115000Y-102970000D01*
G75*
G02*
X153340000Y-102745000I225000J0D01*
G01*
X153840000Y-102745000D01*
G75*
G02*
X154065000Y-102970000I0J-225000D01*
G01*
X154065000Y-103420000D01*
G75*
G02*
X153840000Y-103645000I-225000J0D01*
G01*
G37*
G36*
G01*
X153840000Y-102095000D02*
X153340000Y-102095000D01*
G75*
G02*
X153115000Y-101870000I0J225000D01*
G01*
X153115000Y-101420000D01*
G75*
G02*
X153340000Y-101195000I225000J0D01*
G01*
X153840000Y-101195000D01*
G75*
G02*
X154065000Y-101420000I0J-225000D01*
G01*
X154065000Y-101870000D01*
G75*
G02*
X153840000Y-102095000I-225000J0D01*
G01*
G37*
%TD*%
%TO.C,R35*%
G36*
G01*
X160845000Y-112915000D02*
X160845000Y-113465000D01*
G75*
G02*
X160645000Y-113665000I-200000J0D01*
G01*
X160245000Y-113665000D01*
G75*
G02*
X160045000Y-113465000I0J200000D01*
G01*
X160045000Y-112915000D01*
G75*
G02*
X160245000Y-112715000I200000J0D01*
G01*
X160645000Y-112715000D01*
G75*
G02*
X160845000Y-112915000I0J-200000D01*
G01*
G37*
G36*
G01*
X159195000Y-112915000D02*
X159195000Y-113465000D01*
G75*
G02*
X158995000Y-113665000I-200000J0D01*
G01*
X158595000Y-113665000D01*
G75*
G02*
X158395000Y-113465000I0J200000D01*
G01*
X158395000Y-112915000D01*
G75*
G02*
X158595000Y-112715000I200000J0D01*
G01*
X158995000Y-112715000D01*
G75*
G02*
X159195000Y-112915000I0J-200000D01*
G01*
G37*
%TD*%
%TO.C,C47*%
G36*
G01*
X155330000Y-103655000D02*
X154830000Y-103655000D01*
G75*
G02*
X154605000Y-103430000I0J225000D01*
G01*
X154605000Y-102980000D01*
G75*
G02*
X154830000Y-102755000I225000J0D01*
G01*
X155330000Y-102755000D01*
G75*
G02*
X155555000Y-102980000I0J-225000D01*
G01*
X155555000Y-103430000D01*
G75*
G02*
X155330000Y-103655000I-225000J0D01*
G01*
G37*
G36*
G01*
X155330000Y-102105000D02*
X154830000Y-102105000D01*
G75*
G02*
X154605000Y-101880000I0J225000D01*
G01*
X154605000Y-101430000D01*
G75*
G02*
X154830000Y-101205000I225000J0D01*
G01*
X155330000Y-101205000D01*
G75*
G02*
X155555000Y-101430000I0J-225000D01*
G01*
X155555000Y-101880000D01*
G75*
G02*
X155330000Y-102105000I-225000J0D01*
G01*
G37*
%TD*%
%TO.C,C48*%
G36*
G01*
X158925000Y-108450000D02*
X158925000Y-107950000D01*
G75*
G02*
X159150000Y-107725000I225000J0D01*
G01*
X159600000Y-107725000D01*
G75*
G02*
X159825000Y-107950000I0J-225000D01*
G01*
X159825000Y-108450000D01*
G75*
G02*
X159600000Y-108675000I-225000J0D01*
G01*
X159150000Y-108675000D01*
G75*
G02*
X158925000Y-108450000I0J225000D01*
G01*
G37*
G36*
G01*
X160475000Y-108450000D02*
X160475000Y-107950000D01*
G75*
G02*
X160700000Y-107725000I225000J0D01*
G01*
X161150000Y-107725000D01*
G75*
G02*
X161375000Y-107950000I0J-225000D01*
G01*
X161375000Y-108450000D01*
G75*
G02*
X161150000Y-108675000I-225000J0D01*
G01*
X160700000Y-108675000D01*
G75*
G02*
X160475000Y-108450000I0J225000D01*
G01*
G37*
%TD*%
%TO.C,C39*%
G36*
G01*
X134310000Y-116055000D02*
X134810000Y-116055000D01*
G75*
G02*
X135035000Y-116280000I0J-225000D01*
G01*
X135035000Y-116730000D01*
G75*
G02*
X134810000Y-116955000I-225000J0D01*
G01*
X134310000Y-116955000D01*
G75*
G02*
X134085000Y-116730000I0J225000D01*
G01*
X134085000Y-116280000D01*
G75*
G02*
X134310000Y-116055000I225000J0D01*
G01*
G37*
G36*
G01*
X134310000Y-114505000D02*
X134810000Y-114505000D01*
G75*
G02*
X135035000Y-114730000I0J-225000D01*
G01*
X135035000Y-115180000D01*
G75*
G02*
X134810000Y-115405000I-225000J0D01*
G01*
X134310000Y-115405000D01*
G75*
G02*
X134085000Y-115180000I0J225000D01*
G01*
X134085000Y-114730000D01*
G75*
G02*
X134310000Y-114505000I225000J0D01*
G01*
G37*
%TD*%
%TO.C,C37*%
G36*
G01*
X138495000Y-109910000D02*
X138495000Y-109410000D01*
G75*
G02*
X138720000Y-109185000I225000J0D01*
G01*
X139170000Y-109185000D01*
G75*
G02*
X139395000Y-109410000I0J-225000D01*
G01*
X139395000Y-109910000D01*
G75*
G02*
X139170000Y-110135000I-225000J0D01*
G01*
X138720000Y-110135000D01*
G75*
G02*
X138495000Y-109910000I0J225000D01*
G01*
G37*
G36*
G01*
X136945000Y-109910000D02*
X136945000Y-109410000D01*
G75*
G02*
X137170000Y-109185000I225000J0D01*
G01*
X137620000Y-109185000D01*
G75*
G02*
X137845000Y-109410000I0J-225000D01*
G01*
X137845000Y-109910000D01*
G75*
G02*
X137620000Y-110135000I-225000J0D01*
G01*
X137170000Y-110135000D01*
G75*
G02*
X136945000Y-109910000I0J225000D01*
G01*
G37*
%TD*%
%TO.C,C43*%
G36*
G01*
X132740000Y-116045000D02*
X133240000Y-116045000D01*
G75*
G02*
X133465000Y-116270000I0J-225000D01*
G01*
X133465000Y-116720000D01*
G75*
G02*
X133240000Y-116945000I-225000J0D01*
G01*
X132740000Y-116945000D01*
G75*
G02*
X132515000Y-116720000I0J225000D01*
G01*
X132515000Y-116270000D01*
G75*
G02*
X132740000Y-116045000I225000J0D01*
G01*
G37*
G36*
G01*
X132740000Y-114495000D02*
X133240000Y-114495000D01*
G75*
G02*
X133465000Y-114720000I0J-225000D01*
G01*
X133465000Y-115170000D01*
G75*
G02*
X133240000Y-115395000I-225000J0D01*
G01*
X132740000Y-115395000D01*
G75*
G02*
X132515000Y-115170000I0J225000D01*
G01*
X132515000Y-114720000D01*
G75*
G02*
X132740000Y-114495000I225000J0D01*
G01*
G37*
%TD*%
%TO.C,C38*%
G36*
G01*
X131840000Y-102095000D02*
X131340000Y-102095000D01*
G75*
G02*
X131115000Y-101870000I0J225000D01*
G01*
X131115000Y-101420000D01*
G75*
G02*
X131340000Y-101195000I225000J0D01*
G01*
X131840000Y-101195000D01*
G75*
G02*
X132065000Y-101420000I0J-225000D01*
G01*
X132065000Y-101870000D01*
G75*
G02*
X131840000Y-102095000I-225000J0D01*
G01*
G37*
G36*
G01*
X131840000Y-103645000D02*
X131340000Y-103645000D01*
G75*
G02*
X131115000Y-103420000I0J225000D01*
G01*
X131115000Y-102970000D01*
G75*
G02*
X131340000Y-102745000I225000J0D01*
G01*
X131840000Y-102745000D01*
G75*
G02*
X132065000Y-102970000I0J-225000D01*
G01*
X132065000Y-103420000D01*
G75*
G02*
X131840000Y-103645000I-225000J0D01*
G01*
G37*
%TD*%
%TO.C,C40*%
G36*
G01*
X133330000Y-102105000D02*
X132830000Y-102105000D01*
G75*
G02*
X132605000Y-101880000I0J225000D01*
G01*
X132605000Y-101430000D01*
G75*
G02*
X132830000Y-101205000I225000J0D01*
G01*
X133330000Y-101205000D01*
G75*
G02*
X133555000Y-101430000I0J-225000D01*
G01*
X133555000Y-101880000D01*
G75*
G02*
X133330000Y-102105000I-225000J0D01*
G01*
G37*
G36*
G01*
X133330000Y-103655000D02*
X132830000Y-103655000D01*
G75*
G02*
X132605000Y-103430000I0J225000D01*
G01*
X132605000Y-102980000D01*
G75*
G02*
X132830000Y-102755000I225000J0D01*
G01*
X133330000Y-102755000D01*
G75*
G02*
X133555000Y-102980000I0J-225000D01*
G01*
X133555000Y-103430000D01*
G75*
G02*
X133330000Y-103655000I-225000J0D01*
G01*
G37*
%TD*%
%TO.C,R30*%
G36*
G01*
X137195000Y-112915000D02*
X137195000Y-113465000D01*
G75*
G02*
X136995000Y-113665000I-200000J0D01*
G01*
X136595000Y-113665000D01*
G75*
G02*
X136395000Y-113465000I0J200000D01*
G01*
X136395000Y-112915000D01*
G75*
G02*
X136595000Y-112715000I200000J0D01*
G01*
X136995000Y-112715000D01*
G75*
G02*
X137195000Y-112915000I0J-200000D01*
G01*
G37*
G36*
G01*
X138845000Y-112915000D02*
X138845000Y-113465000D01*
G75*
G02*
X138645000Y-113665000I-200000J0D01*
G01*
X138245000Y-113665000D01*
G75*
G02*
X138045000Y-113465000I0J200000D01*
G01*
X138045000Y-112915000D01*
G75*
G02*
X138245000Y-112715000I200000J0D01*
G01*
X138645000Y-112715000D01*
G75*
G02*
X138845000Y-112915000I0J-200000D01*
G01*
G37*
%TD*%
%TO.C,C42*%
G36*
G01*
X135860000Y-116045000D02*
X136360000Y-116045000D01*
G75*
G02*
X136585000Y-116270000I0J-225000D01*
G01*
X136585000Y-116720000D01*
G75*
G02*
X136360000Y-116945000I-225000J0D01*
G01*
X135860000Y-116945000D01*
G75*
G02*
X135635000Y-116720000I0J225000D01*
G01*
X135635000Y-116270000D01*
G75*
G02*
X135860000Y-116045000I225000J0D01*
G01*
G37*
G36*
G01*
X135860000Y-114495000D02*
X136360000Y-114495000D01*
G75*
G02*
X136585000Y-114720000I0J-225000D01*
G01*
X136585000Y-115170000D01*
G75*
G02*
X136360000Y-115395000I-225000J0D01*
G01*
X135860000Y-115395000D01*
G75*
G02*
X135635000Y-115170000I0J225000D01*
G01*
X135635000Y-114720000D01*
G75*
G02*
X135860000Y-114495000I225000J0D01*
G01*
G37*
%TD*%
%TO.C,C41*%
G36*
G01*
X138475000Y-108450000D02*
X138475000Y-107950000D01*
G75*
G02*
X138700000Y-107725000I225000J0D01*
G01*
X139150000Y-107725000D01*
G75*
G02*
X139375000Y-107950000I0J-225000D01*
G01*
X139375000Y-108450000D01*
G75*
G02*
X139150000Y-108675000I-225000J0D01*
G01*
X138700000Y-108675000D01*
G75*
G02*
X138475000Y-108450000I0J225000D01*
G01*
G37*
G36*
G01*
X136925000Y-108450000D02*
X136925000Y-107950000D01*
G75*
G02*
X137150000Y-107725000I225000J0D01*
G01*
X137600000Y-107725000D01*
G75*
G02*
X137825000Y-107950000I0J-225000D01*
G01*
X137825000Y-108450000D01*
G75*
G02*
X137600000Y-108675000I-225000J0D01*
G01*
X137150000Y-108675000D01*
G75*
G02*
X136925000Y-108450000I0J225000D01*
G01*
G37*
%TD*%
%TO.C,C30*%
G36*
G01*
X114945000Y-109910000D02*
X114945000Y-109410000D01*
G75*
G02*
X115170000Y-109185000I225000J0D01*
G01*
X115620000Y-109185000D01*
G75*
G02*
X115845000Y-109410000I0J-225000D01*
G01*
X115845000Y-109910000D01*
G75*
G02*
X115620000Y-110135000I-225000J0D01*
G01*
X115170000Y-110135000D01*
G75*
G02*
X114945000Y-109910000I0J225000D01*
G01*
G37*
G36*
G01*
X116495000Y-109910000D02*
X116495000Y-109410000D01*
G75*
G02*
X116720000Y-109185000I225000J0D01*
G01*
X117170000Y-109185000D01*
G75*
G02*
X117395000Y-109410000I0J-225000D01*
G01*
X117395000Y-109910000D01*
G75*
G02*
X117170000Y-110135000I-225000J0D01*
G01*
X116720000Y-110135000D01*
G75*
G02*
X116495000Y-109910000I0J225000D01*
G01*
G37*
%TD*%
%TO.C,C32*%
G36*
G01*
X112310000Y-114505000D02*
X112810000Y-114505000D01*
G75*
G02*
X113035000Y-114730000I0J-225000D01*
G01*
X113035000Y-115180000D01*
G75*
G02*
X112810000Y-115405000I-225000J0D01*
G01*
X112310000Y-115405000D01*
G75*
G02*
X112085000Y-115180000I0J225000D01*
G01*
X112085000Y-114730000D01*
G75*
G02*
X112310000Y-114505000I225000J0D01*
G01*
G37*
G36*
G01*
X112310000Y-116055000D02*
X112810000Y-116055000D01*
G75*
G02*
X113035000Y-116280000I0J-225000D01*
G01*
X113035000Y-116730000D01*
G75*
G02*
X112810000Y-116955000I-225000J0D01*
G01*
X112310000Y-116955000D01*
G75*
G02*
X112085000Y-116730000I0J225000D01*
G01*
X112085000Y-116280000D01*
G75*
G02*
X112310000Y-116055000I225000J0D01*
G01*
G37*
%TD*%
%TO.C,C31*%
G36*
G01*
X109840000Y-103645000D02*
X109340000Y-103645000D01*
G75*
G02*
X109115000Y-103420000I0J225000D01*
G01*
X109115000Y-102970000D01*
G75*
G02*
X109340000Y-102745000I225000J0D01*
G01*
X109840000Y-102745000D01*
G75*
G02*
X110065000Y-102970000I0J-225000D01*
G01*
X110065000Y-103420000D01*
G75*
G02*
X109840000Y-103645000I-225000J0D01*
G01*
G37*
G36*
G01*
X109840000Y-102095000D02*
X109340000Y-102095000D01*
G75*
G02*
X109115000Y-101870000I0J225000D01*
G01*
X109115000Y-101420000D01*
G75*
G02*
X109340000Y-101195000I225000J0D01*
G01*
X109840000Y-101195000D01*
G75*
G02*
X110065000Y-101420000I0J-225000D01*
G01*
X110065000Y-101870000D01*
G75*
G02*
X109840000Y-102095000I-225000J0D01*
G01*
G37*
%TD*%
%TO.C,C33*%
G36*
G01*
X111330000Y-103655000D02*
X110830000Y-103655000D01*
G75*
G02*
X110605000Y-103430000I0J225000D01*
G01*
X110605000Y-102980000D01*
G75*
G02*
X110830000Y-102755000I225000J0D01*
G01*
X111330000Y-102755000D01*
G75*
G02*
X111555000Y-102980000I0J-225000D01*
G01*
X111555000Y-103430000D01*
G75*
G02*
X111330000Y-103655000I-225000J0D01*
G01*
G37*
G36*
G01*
X111330000Y-102105000D02*
X110830000Y-102105000D01*
G75*
G02*
X110605000Y-101880000I0J225000D01*
G01*
X110605000Y-101430000D01*
G75*
G02*
X110830000Y-101205000I225000J0D01*
G01*
X111330000Y-101205000D01*
G75*
G02*
X111555000Y-101430000I0J-225000D01*
G01*
X111555000Y-101880000D01*
G75*
G02*
X111330000Y-102105000I-225000J0D01*
G01*
G37*
%TD*%
%TO.C,C36*%
G36*
G01*
X110740000Y-114495000D02*
X111240000Y-114495000D01*
G75*
G02*
X111465000Y-114720000I0J-225000D01*
G01*
X111465000Y-115170000D01*
G75*
G02*
X111240000Y-115395000I-225000J0D01*
G01*
X110740000Y-115395000D01*
G75*
G02*
X110515000Y-115170000I0J225000D01*
G01*
X110515000Y-114720000D01*
G75*
G02*
X110740000Y-114495000I225000J0D01*
G01*
G37*
G36*
G01*
X110740000Y-116045000D02*
X111240000Y-116045000D01*
G75*
G02*
X111465000Y-116270000I0J-225000D01*
G01*
X111465000Y-116720000D01*
G75*
G02*
X111240000Y-116945000I-225000J0D01*
G01*
X110740000Y-116945000D01*
G75*
G02*
X110515000Y-116720000I0J225000D01*
G01*
X110515000Y-116270000D01*
G75*
G02*
X110740000Y-116045000I225000J0D01*
G01*
G37*
%TD*%
%TO.C,R25*%
G36*
G01*
X116845000Y-112915000D02*
X116845000Y-113465000D01*
G75*
G02*
X116645000Y-113665000I-200000J0D01*
G01*
X116245000Y-113665000D01*
G75*
G02*
X116045000Y-113465000I0J200000D01*
G01*
X116045000Y-112915000D01*
G75*
G02*
X116245000Y-112715000I200000J0D01*
G01*
X116645000Y-112715000D01*
G75*
G02*
X116845000Y-112915000I0J-200000D01*
G01*
G37*
G36*
G01*
X115195000Y-112915000D02*
X115195000Y-113465000D01*
G75*
G02*
X114995000Y-113665000I-200000J0D01*
G01*
X114595000Y-113665000D01*
G75*
G02*
X114395000Y-113465000I0J200000D01*
G01*
X114395000Y-112915000D01*
G75*
G02*
X114595000Y-112715000I200000J0D01*
G01*
X114995000Y-112715000D01*
G75*
G02*
X115195000Y-112915000I0J-200000D01*
G01*
G37*
%TD*%
%TO.C,C35*%
G36*
G01*
X113860000Y-114495000D02*
X114360000Y-114495000D01*
G75*
G02*
X114585000Y-114720000I0J-225000D01*
G01*
X114585000Y-115170000D01*
G75*
G02*
X114360000Y-115395000I-225000J0D01*
G01*
X113860000Y-115395000D01*
G75*
G02*
X113635000Y-115170000I0J225000D01*
G01*
X113635000Y-114720000D01*
G75*
G02*
X113860000Y-114495000I225000J0D01*
G01*
G37*
G36*
G01*
X113860000Y-116045000D02*
X114360000Y-116045000D01*
G75*
G02*
X114585000Y-116270000I0J-225000D01*
G01*
X114585000Y-116720000D01*
G75*
G02*
X114360000Y-116945000I-225000J0D01*
G01*
X113860000Y-116945000D01*
G75*
G02*
X113635000Y-116720000I0J225000D01*
G01*
X113635000Y-116270000D01*
G75*
G02*
X113860000Y-116045000I225000J0D01*
G01*
G37*
%TD*%
%TO.C,C34*%
G36*
G01*
X114925000Y-108450000D02*
X114925000Y-107950000D01*
G75*
G02*
X115150000Y-107725000I225000J0D01*
G01*
X115600000Y-107725000D01*
G75*
G02*
X115825000Y-107950000I0J-225000D01*
G01*
X115825000Y-108450000D01*
G75*
G02*
X115600000Y-108675000I-225000J0D01*
G01*
X115150000Y-108675000D01*
G75*
G02*
X114925000Y-108450000I0J225000D01*
G01*
G37*
G36*
G01*
X116475000Y-108450000D02*
X116475000Y-107950000D01*
G75*
G02*
X116700000Y-107725000I225000J0D01*
G01*
X117150000Y-107725000D01*
G75*
G02*
X117375000Y-107950000I0J-225000D01*
G01*
X117375000Y-108450000D01*
G75*
G02*
X117150000Y-108675000I-225000J0D01*
G01*
X116700000Y-108675000D01*
G75*
G02*
X116475000Y-108450000I0J225000D01*
G01*
G37*
%TD*%
%TO.C,R20*%
G36*
G01*
X93195000Y-112915000D02*
X93195000Y-113465000D01*
G75*
G02*
X92995000Y-113665000I-200000J0D01*
G01*
X92595000Y-113665000D01*
G75*
G02*
X92395000Y-113465000I0J200000D01*
G01*
X92395000Y-112915000D01*
G75*
G02*
X92595000Y-112715000I200000J0D01*
G01*
X92995000Y-112715000D01*
G75*
G02*
X93195000Y-112915000I0J-200000D01*
G01*
G37*
G36*
G01*
X94845000Y-112915000D02*
X94845000Y-113465000D01*
G75*
G02*
X94645000Y-113665000I-200000J0D01*
G01*
X94245000Y-113665000D01*
G75*
G02*
X94045000Y-113465000I0J200000D01*
G01*
X94045000Y-112915000D01*
G75*
G02*
X94245000Y-112715000I200000J0D01*
G01*
X94645000Y-112715000D01*
G75*
G02*
X94845000Y-112915000I0J-200000D01*
G01*
G37*
%TD*%
%TO.C,C29*%
G36*
G01*
X88740000Y-116045000D02*
X89240000Y-116045000D01*
G75*
G02*
X89465000Y-116270000I0J-225000D01*
G01*
X89465000Y-116720000D01*
G75*
G02*
X89240000Y-116945000I-225000J0D01*
G01*
X88740000Y-116945000D01*
G75*
G02*
X88515000Y-116720000I0J225000D01*
G01*
X88515000Y-116270000D01*
G75*
G02*
X88740000Y-116045000I225000J0D01*
G01*
G37*
G36*
G01*
X88740000Y-114495000D02*
X89240000Y-114495000D01*
G75*
G02*
X89465000Y-114720000I0J-225000D01*
G01*
X89465000Y-115170000D01*
G75*
G02*
X89240000Y-115395000I-225000J0D01*
G01*
X88740000Y-115395000D01*
G75*
G02*
X88515000Y-115170000I0J225000D01*
G01*
X88515000Y-114720000D01*
G75*
G02*
X88740000Y-114495000I225000J0D01*
G01*
G37*
%TD*%
%TO.C,C28*%
G36*
G01*
X91860000Y-116045000D02*
X92360000Y-116045000D01*
G75*
G02*
X92585000Y-116270000I0J-225000D01*
G01*
X92585000Y-116720000D01*
G75*
G02*
X92360000Y-116945000I-225000J0D01*
G01*
X91860000Y-116945000D01*
G75*
G02*
X91635000Y-116720000I0J225000D01*
G01*
X91635000Y-116270000D01*
G75*
G02*
X91860000Y-116045000I225000J0D01*
G01*
G37*
G36*
G01*
X91860000Y-114495000D02*
X92360000Y-114495000D01*
G75*
G02*
X92585000Y-114720000I0J-225000D01*
G01*
X92585000Y-115170000D01*
G75*
G02*
X92360000Y-115395000I-225000J0D01*
G01*
X91860000Y-115395000D01*
G75*
G02*
X91635000Y-115170000I0J225000D01*
G01*
X91635000Y-114720000D01*
G75*
G02*
X91860000Y-114495000I225000J0D01*
G01*
G37*
%TD*%
%TO.C,C26*%
G36*
G01*
X89330000Y-102105000D02*
X88830000Y-102105000D01*
G75*
G02*
X88605000Y-101880000I0J225000D01*
G01*
X88605000Y-101430000D01*
G75*
G02*
X88830000Y-101205000I225000J0D01*
G01*
X89330000Y-101205000D01*
G75*
G02*
X89555000Y-101430000I0J-225000D01*
G01*
X89555000Y-101880000D01*
G75*
G02*
X89330000Y-102105000I-225000J0D01*
G01*
G37*
G36*
G01*
X89330000Y-103655000D02*
X88830000Y-103655000D01*
G75*
G02*
X88605000Y-103430000I0J225000D01*
G01*
X88605000Y-102980000D01*
G75*
G02*
X88830000Y-102755000I225000J0D01*
G01*
X89330000Y-102755000D01*
G75*
G02*
X89555000Y-102980000I0J-225000D01*
G01*
X89555000Y-103430000D01*
G75*
G02*
X89330000Y-103655000I-225000J0D01*
G01*
G37*
%TD*%
%TO.C,C27*%
G36*
G01*
X94475000Y-108450000D02*
X94475000Y-107950000D01*
G75*
G02*
X94700000Y-107725000I225000J0D01*
G01*
X95150000Y-107725000D01*
G75*
G02*
X95375000Y-107950000I0J-225000D01*
G01*
X95375000Y-108450000D01*
G75*
G02*
X95150000Y-108675000I-225000J0D01*
G01*
X94700000Y-108675000D01*
G75*
G02*
X94475000Y-108450000I0J225000D01*
G01*
G37*
G36*
G01*
X92925000Y-108450000D02*
X92925000Y-107950000D01*
G75*
G02*
X93150000Y-107725000I225000J0D01*
G01*
X93600000Y-107725000D01*
G75*
G02*
X93825000Y-107950000I0J-225000D01*
G01*
X93825000Y-108450000D01*
G75*
G02*
X93600000Y-108675000I-225000J0D01*
G01*
X93150000Y-108675000D01*
G75*
G02*
X92925000Y-108450000I0J225000D01*
G01*
G37*
%TD*%
%TO.C,C24*%
G36*
G01*
X87840000Y-102095000D02*
X87340000Y-102095000D01*
G75*
G02*
X87115000Y-101870000I0J225000D01*
G01*
X87115000Y-101420000D01*
G75*
G02*
X87340000Y-101195000I225000J0D01*
G01*
X87840000Y-101195000D01*
G75*
G02*
X88065000Y-101420000I0J-225000D01*
G01*
X88065000Y-101870000D01*
G75*
G02*
X87840000Y-102095000I-225000J0D01*
G01*
G37*
G36*
G01*
X87840000Y-103645000D02*
X87340000Y-103645000D01*
G75*
G02*
X87115000Y-103420000I0J225000D01*
G01*
X87115000Y-102970000D01*
G75*
G02*
X87340000Y-102745000I225000J0D01*
G01*
X87840000Y-102745000D01*
G75*
G02*
X88065000Y-102970000I0J-225000D01*
G01*
X88065000Y-103420000D01*
G75*
G02*
X87840000Y-103645000I-225000J0D01*
G01*
G37*
%TD*%
%TO.C,C25*%
G36*
G01*
X90310000Y-116055000D02*
X90810000Y-116055000D01*
G75*
G02*
X91035000Y-116280000I0J-225000D01*
G01*
X91035000Y-116730000D01*
G75*
G02*
X90810000Y-116955000I-225000J0D01*
G01*
X90310000Y-116955000D01*
G75*
G02*
X90085000Y-116730000I0J225000D01*
G01*
X90085000Y-116280000D01*
G75*
G02*
X90310000Y-116055000I225000J0D01*
G01*
G37*
G36*
G01*
X90310000Y-114505000D02*
X90810000Y-114505000D01*
G75*
G02*
X91035000Y-114730000I0J-225000D01*
G01*
X91035000Y-115180000D01*
G75*
G02*
X90810000Y-115405000I-225000J0D01*
G01*
X90310000Y-115405000D01*
G75*
G02*
X90085000Y-115180000I0J225000D01*
G01*
X90085000Y-114730000D01*
G75*
G02*
X90310000Y-114505000I225000J0D01*
G01*
G37*
%TD*%
%TO.C,C23*%
G36*
G01*
X94495000Y-109910000D02*
X94495000Y-109410000D01*
G75*
G02*
X94720000Y-109185000I225000J0D01*
G01*
X95170000Y-109185000D01*
G75*
G02*
X95395000Y-109410000I0J-225000D01*
G01*
X95395000Y-109910000D01*
G75*
G02*
X95170000Y-110135000I-225000J0D01*
G01*
X94720000Y-110135000D01*
G75*
G02*
X94495000Y-109910000I0J225000D01*
G01*
G37*
G36*
G01*
X92945000Y-109910000D02*
X92945000Y-109410000D01*
G75*
G02*
X93170000Y-109185000I225000J0D01*
G01*
X93620000Y-109185000D01*
G75*
G02*
X93845000Y-109410000I0J-225000D01*
G01*
X93845000Y-109910000D01*
G75*
G02*
X93620000Y-110135000I-225000J0D01*
G01*
X93170000Y-110135000D01*
G75*
G02*
X92945000Y-109910000I0J225000D01*
G01*
G37*
%TD*%
%TO.C,R15*%
G36*
G01*
X72845000Y-112915000D02*
X72845000Y-113465000D01*
G75*
G02*
X72645000Y-113665000I-200000J0D01*
G01*
X72245000Y-113665000D01*
G75*
G02*
X72045000Y-113465000I0J200000D01*
G01*
X72045000Y-112915000D01*
G75*
G02*
X72245000Y-112715000I200000J0D01*
G01*
X72645000Y-112715000D01*
G75*
G02*
X72845000Y-112915000I0J-200000D01*
G01*
G37*
G36*
G01*
X71195000Y-112915000D02*
X71195000Y-113465000D01*
G75*
G02*
X70995000Y-113665000I-200000J0D01*
G01*
X70595000Y-113665000D01*
G75*
G02*
X70395000Y-113465000I0J200000D01*
G01*
X70395000Y-112915000D01*
G75*
G02*
X70595000Y-112715000I200000J0D01*
G01*
X70995000Y-112715000D01*
G75*
G02*
X71195000Y-112915000I0J-200000D01*
G01*
G37*
%TD*%
%TO.C,C18*%
G36*
G01*
X68310000Y-114505000D02*
X68810000Y-114505000D01*
G75*
G02*
X69035000Y-114730000I0J-225000D01*
G01*
X69035000Y-115180000D01*
G75*
G02*
X68810000Y-115405000I-225000J0D01*
G01*
X68310000Y-115405000D01*
G75*
G02*
X68085000Y-115180000I0J225000D01*
G01*
X68085000Y-114730000D01*
G75*
G02*
X68310000Y-114505000I225000J0D01*
G01*
G37*
G36*
G01*
X68310000Y-116055000D02*
X68810000Y-116055000D01*
G75*
G02*
X69035000Y-116280000I0J-225000D01*
G01*
X69035000Y-116730000D01*
G75*
G02*
X68810000Y-116955000I-225000J0D01*
G01*
X68310000Y-116955000D01*
G75*
G02*
X68085000Y-116730000I0J225000D01*
G01*
X68085000Y-116280000D01*
G75*
G02*
X68310000Y-116055000I225000J0D01*
G01*
G37*
%TD*%
%TO.C,C17*%
G36*
G01*
X65840000Y-103645000D02*
X65340000Y-103645000D01*
G75*
G02*
X65115000Y-103420000I0J225000D01*
G01*
X65115000Y-102970000D01*
G75*
G02*
X65340000Y-102745000I225000J0D01*
G01*
X65840000Y-102745000D01*
G75*
G02*
X66065000Y-102970000I0J-225000D01*
G01*
X66065000Y-103420000D01*
G75*
G02*
X65840000Y-103645000I-225000J0D01*
G01*
G37*
G36*
G01*
X65840000Y-102095000D02*
X65340000Y-102095000D01*
G75*
G02*
X65115000Y-101870000I0J225000D01*
G01*
X65115000Y-101420000D01*
G75*
G02*
X65340000Y-101195000I225000J0D01*
G01*
X65840000Y-101195000D01*
G75*
G02*
X66065000Y-101420000I0J-225000D01*
G01*
X66065000Y-101870000D01*
G75*
G02*
X65840000Y-102095000I-225000J0D01*
G01*
G37*
%TD*%
%TO.C,C22*%
G36*
G01*
X66740000Y-114495000D02*
X67240000Y-114495000D01*
G75*
G02*
X67465000Y-114720000I0J-225000D01*
G01*
X67465000Y-115170000D01*
G75*
G02*
X67240000Y-115395000I-225000J0D01*
G01*
X66740000Y-115395000D01*
G75*
G02*
X66515000Y-115170000I0J225000D01*
G01*
X66515000Y-114720000D01*
G75*
G02*
X66740000Y-114495000I225000J0D01*
G01*
G37*
G36*
G01*
X66740000Y-116045000D02*
X67240000Y-116045000D01*
G75*
G02*
X67465000Y-116270000I0J-225000D01*
G01*
X67465000Y-116720000D01*
G75*
G02*
X67240000Y-116945000I-225000J0D01*
G01*
X66740000Y-116945000D01*
G75*
G02*
X66515000Y-116720000I0J225000D01*
G01*
X66515000Y-116270000D01*
G75*
G02*
X66740000Y-116045000I225000J0D01*
G01*
G37*
%TD*%
%TO.C,C21*%
G36*
G01*
X69860000Y-114495000D02*
X70360000Y-114495000D01*
G75*
G02*
X70585000Y-114720000I0J-225000D01*
G01*
X70585000Y-115170000D01*
G75*
G02*
X70360000Y-115395000I-225000J0D01*
G01*
X69860000Y-115395000D01*
G75*
G02*
X69635000Y-115170000I0J225000D01*
G01*
X69635000Y-114720000D01*
G75*
G02*
X69860000Y-114495000I225000J0D01*
G01*
G37*
G36*
G01*
X69860000Y-116045000D02*
X70360000Y-116045000D01*
G75*
G02*
X70585000Y-116270000I0J-225000D01*
G01*
X70585000Y-116720000D01*
G75*
G02*
X70360000Y-116945000I-225000J0D01*
G01*
X69860000Y-116945000D01*
G75*
G02*
X69635000Y-116720000I0J225000D01*
G01*
X69635000Y-116270000D01*
G75*
G02*
X69860000Y-116045000I225000J0D01*
G01*
G37*
%TD*%
%TO.C,C20*%
G36*
G01*
X70925000Y-108450000D02*
X70925000Y-107950000D01*
G75*
G02*
X71150000Y-107725000I225000J0D01*
G01*
X71600000Y-107725000D01*
G75*
G02*
X71825000Y-107950000I0J-225000D01*
G01*
X71825000Y-108450000D01*
G75*
G02*
X71600000Y-108675000I-225000J0D01*
G01*
X71150000Y-108675000D01*
G75*
G02*
X70925000Y-108450000I0J225000D01*
G01*
G37*
G36*
G01*
X72475000Y-108450000D02*
X72475000Y-107950000D01*
G75*
G02*
X72700000Y-107725000I225000J0D01*
G01*
X73150000Y-107725000D01*
G75*
G02*
X73375000Y-107950000I0J-225000D01*
G01*
X73375000Y-108450000D01*
G75*
G02*
X73150000Y-108675000I-225000J0D01*
G01*
X72700000Y-108675000D01*
G75*
G02*
X72475000Y-108450000I0J225000D01*
G01*
G37*
%TD*%
%TO.C,C19*%
G36*
G01*
X67330000Y-103655000D02*
X66830000Y-103655000D01*
G75*
G02*
X66605000Y-103430000I0J225000D01*
G01*
X66605000Y-102980000D01*
G75*
G02*
X66830000Y-102755000I225000J0D01*
G01*
X67330000Y-102755000D01*
G75*
G02*
X67555000Y-102980000I0J-225000D01*
G01*
X67555000Y-103430000D01*
G75*
G02*
X67330000Y-103655000I-225000J0D01*
G01*
G37*
G36*
G01*
X67330000Y-102105000D02*
X66830000Y-102105000D01*
G75*
G02*
X66605000Y-101880000I0J225000D01*
G01*
X66605000Y-101430000D01*
G75*
G02*
X66830000Y-101205000I225000J0D01*
G01*
X67330000Y-101205000D01*
G75*
G02*
X67555000Y-101430000I0J-225000D01*
G01*
X67555000Y-101880000D01*
G75*
G02*
X67330000Y-102105000I-225000J0D01*
G01*
G37*
%TD*%
%TO.C,C16*%
G36*
G01*
X70945000Y-109910000D02*
X70945000Y-109410000D01*
G75*
G02*
X71170000Y-109185000I225000J0D01*
G01*
X71620000Y-109185000D01*
G75*
G02*
X71845000Y-109410000I0J-225000D01*
G01*
X71845000Y-109910000D01*
G75*
G02*
X71620000Y-110135000I-225000J0D01*
G01*
X71170000Y-110135000D01*
G75*
G02*
X70945000Y-109910000I0J225000D01*
G01*
G37*
G36*
G01*
X72495000Y-109910000D02*
X72495000Y-109410000D01*
G75*
G02*
X72720000Y-109185000I225000J0D01*
G01*
X73170000Y-109185000D01*
G75*
G02*
X73395000Y-109410000I0J-225000D01*
G01*
X73395000Y-109910000D01*
G75*
G02*
X73170000Y-110135000I-225000J0D01*
G01*
X72720000Y-110135000D01*
G75*
G02*
X72495000Y-109910000I0J225000D01*
G01*
G37*
%TD*%
%TO.C,R10*%
G36*
G01*
X49195000Y-112915000D02*
X49195000Y-113465000D01*
G75*
G02*
X48995000Y-113665000I-200000J0D01*
G01*
X48595000Y-113665000D01*
G75*
G02*
X48395000Y-113465000I0J200000D01*
G01*
X48395000Y-112915000D01*
G75*
G02*
X48595000Y-112715000I200000J0D01*
G01*
X48995000Y-112715000D01*
G75*
G02*
X49195000Y-112915000I0J-200000D01*
G01*
G37*
G36*
G01*
X50845000Y-112915000D02*
X50845000Y-113465000D01*
G75*
G02*
X50645000Y-113665000I-200000J0D01*
G01*
X50245000Y-113665000D01*
G75*
G02*
X50045000Y-113465000I0J200000D01*
G01*
X50045000Y-112915000D01*
G75*
G02*
X50245000Y-112715000I200000J0D01*
G01*
X50645000Y-112715000D01*
G75*
G02*
X50845000Y-112915000I0J-200000D01*
G01*
G37*
%TD*%
%TO.C,C15*%
G36*
G01*
X44740000Y-116045000D02*
X45240000Y-116045000D01*
G75*
G02*
X45465000Y-116270000I0J-225000D01*
G01*
X45465000Y-116720000D01*
G75*
G02*
X45240000Y-116945000I-225000J0D01*
G01*
X44740000Y-116945000D01*
G75*
G02*
X44515000Y-116720000I0J225000D01*
G01*
X44515000Y-116270000D01*
G75*
G02*
X44740000Y-116045000I225000J0D01*
G01*
G37*
G36*
G01*
X44740000Y-114495000D02*
X45240000Y-114495000D01*
G75*
G02*
X45465000Y-114720000I0J-225000D01*
G01*
X45465000Y-115170000D01*
G75*
G02*
X45240000Y-115395000I-225000J0D01*
G01*
X44740000Y-115395000D01*
G75*
G02*
X44515000Y-115170000I0J225000D01*
G01*
X44515000Y-114720000D01*
G75*
G02*
X44740000Y-114495000I225000J0D01*
G01*
G37*
%TD*%
%TO.C,C14*%
G36*
G01*
X47860000Y-116045000D02*
X48360000Y-116045000D01*
G75*
G02*
X48585000Y-116270000I0J-225000D01*
G01*
X48585000Y-116720000D01*
G75*
G02*
X48360000Y-116945000I-225000J0D01*
G01*
X47860000Y-116945000D01*
G75*
G02*
X47635000Y-116720000I0J225000D01*
G01*
X47635000Y-116270000D01*
G75*
G02*
X47860000Y-116045000I225000J0D01*
G01*
G37*
G36*
G01*
X47860000Y-114495000D02*
X48360000Y-114495000D01*
G75*
G02*
X48585000Y-114720000I0J-225000D01*
G01*
X48585000Y-115170000D01*
G75*
G02*
X48360000Y-115395000I-225000J0D01*
G01*
X47860000Y-115395000D01*
G75*
G02*
X47635000Y-115170000I0J225000D01*
G01*
X47635000Y-114720000D01*
G75*
G02*
X47860000Y-114495000I225000J0D01*
G01*
G37*
%TD*%
%TO.C,C13*%
G36*
G01*
X50475000Y-108450000D02*
X50475000Y-107950000D01*
G75*
G02*
X50700000Y-107725000I225000J0D01*
G01*
X51150000Y-107725000D01*
G75*
G02*
X51375000Y-107950000I0J-225000D01*
G01*
X51375000Y-108450000D01*
G75*
G02*
X51150000Y-108675000I-225000J0D01*
G01*
X50700000Y-108675000D01*
G75*
G02*
X50475000Y-108450000I0J225000D01*
G01*
G37*
G36*
G01*
X48925000Y-108450000D02*
X48925000Y-107950000D01*
G75*
G02*
X49150000Y-107725000I225000J0D01*
G01*
X49600000Y-107725000D01*
G75*
G02*
X49825000Y-107950000I0J-225000D01*
G01*
X49825000Y-108450000D01*
G75*
G02*
X49600000Y-108675000I-225000J0D01*
G01*
X49150000Y-108675000D01*
G75*
G02*
X48925000Y-108450000I0J225000D01*
G01*
G37*
%TD*%
%TO.C,C12*%
G36*
G01*
X45330000Y-102105000D02*
X44830000Y-102105000D01*
G75*
G02*
X44605000Y-101880000I0J225000D01*
G01*
X44605000Y-101430000D01*
G75*
G02*
X44830000Y-101205000I225000J0D01*
G01*
X45330000Y-101205000D01*
G75*
G02*
X45555000Y-101430000I0J-225000D01*
G01*
X45555000Y-101880000D01*
G75*
G02*
X45330000Y-102105000I-225000J0D01*
G01*
G37*
G36*
G01*
X45330000Y-103655000D02*
X44830000Y-103655000D01*
G75*
G02*
X44605000Y-103430000I0J225000D01*
G01*
X44605000Y-102980000D01*
G75*
G02*
X44830000Y-102755000I225000J0D01*
G01*
X45330000Y-102755000D01*
G75*
G02*
X45555000Y-102980000I0J-225000D01*
G01*
X45555000Y-103430000D01*
G75*
G02*
X45330000Y-103655000I-225000J0D01*
G01*
G37*
%TD*%
%TO.C,C11*%
G36*
G01*
X46310000Y-116055000D02*
X46810000Y-116055000D01*
G75*
G02*
X47035000Y-116280000I0J-225000D01*
G01*
X47035000Y-116730000D01*
G75*
G02*
X46810000Y-116955000I-225000J0D01*
G01*
X46310000Y-116955000D01*
G75*
G02*
X46085000Y-116730000I0J225000D01*
G01*
X46085000Y-116280000D01*
G75*
G02*
X46310000Y-116055000I225000J0D01*
G01*
G37*
G36*
G01*
X46310000Y-114505000D02*
X46810000Y-114505000D01*
G75*
G02*
X47035000Y-114730000I0J-225000D01*
G01*
X47035000Y-115180000D01*
G75*
G02*
X46810000Y-115405000I-225000J0D01*
G01*
X46310000Y-115405000D01*
G75*
G02*
X46085000Y-115180000I0J225000D01*
G01*
X46085000Y-114730000D01*
G75*
G02*
X46310000Y-114505000I225000J0D01*
G01*
G37*
%TD*%
%TO.C,C10*%
G36*
G01*
X43840000Y-102095000D02*
X43340000Y-102095000D01*
G75*
G02*
X43115000Y-101870000I0J225000D01*
G01*
X43115000Y-101420000D01*
G75*
G02*
X43340000Y-101195000I225000J0D01*
G01*
X43840000Y-101195000D01*
G75*
G02*
X44065000Y-101420000I0J-225000D01*
G01*
X44065000Y-101870000D01*
G75*
G02*
X43840000Y-102095000I-225000J0D01*
G01*
G37*
G36*
G01*
X43840000Y-103645000D02*
X43340000Y-103645000D01*
G75*
G02*
X43115000Y-103420000I0J225000D01*
G01*
X43115000Y-102970000D01*
G75*
G02*
X43340000Y-102745000I225000J0D01*
G01*
X43840000Y-102745000D01*
G75*
G02*
X44065000Y-102970000I0J-225000D01*
G01*
X44065000Y-103420000D01*
G75*
G02*
X43840000Y-103645000I-225000J0D01*
G01*
G37*
%TD*%
%TO.C,C9*%
G36*
G01*
X50495000Y-109910000D02*
X50495000Y-109410000D01*
G75*
G02*
X50720000Y-109185000I225000J0D01*
G01*
X51170000Y-109185000D01*
G75*
G02*
X51395000Y-109410000I0J-225000D01*
G01*
X51395000Y-109910000D01*
G75*
G02*
X51170000Y-110135000I-225000J0D01*
G01*
X50720000Y-110135000D01*
G75*
G02*
X50495000Y-109910000I0J225000D01*
G01*
G37*
G36*
G01*
X48945000Y-109910000D02*
X48945000Y-109410000D01*
G75*
G02*
X49170000Y-109185000I225000J0D01*
G01*
X49620000Y-109185000D01*
G75*
G02*
X49845000Y-109410000I0J-225000D01*
G01*
X49845000Y-109910000D01*
G75*
G02*
X49620000Y-110135000I-225000J0D01*
G01*
X49170000Y-110135000D01*
G75*
G02*
X48945000Y-109910000I0J225000D01*
G01*
G37*
%TD*%
M02*
