M48
; DRILL file {KiCad (5.1.9)-1} date 06/06/21 22:23:06
; FORMAT={2:4/ absolute / inch / suppress leading zeros}
; #@! TF.CreationDate,2021-06-06T22:23:06-05:00
; #@! TF.GenerationSoftware,Kicad,Pcbnew,(5.1.9)-1
; #@! TF.FileFunction,Plated,1,2,PTH
FMAT,2
INCH,TZ
T1C0.0157
T2C0.0236
T3C0.0335
%
G90
G05
T1
X53898Y-49685
X54350Y-46732
X54654Y-47177
X55079Y-47736
X55157Y-42126
X55315Y-49055
X55551Y-42441
X55906Y-45118
X55906Y-48327
X55945Y-42795
X56240Y-43701
X56496Y-51457
X56535Y-45295
X57087Y-45906
X57100Y-42800
X57323Y-28150
X58386Y-40709
X58386Y-38504
X58539Y-41406
X58772Y-29213
X58839Y-45748
X59252Y-43425
X59400Y-39400
X59469Y-30217
X59476Y-35185
X59843Y-43858
X59882Y-41181
X59882Y-42559
X59882Y-45236
X59882Y-46654
X59882Y-47913
X59882Y-49685
X60059Y-33445
X60276Y-36614
X60610Y-45650
X60906Y-49705
X61181Y-28150
X61260Y-35591
X61732Y-39803
X61772Y-35591
X61772Y-49291
X61993Y-30157
X62461Y-45650
X62461Y-46988
X62677Y-38976
X62800Y-32400
X63268Y-33504
X63583Y-38652
X63622Y-50669
X63898Y-37126
X64311Y-39035
X64311Y-49705
X64331Y-45650
X64331Y-51063
X64800Y-37700
X65315Y-36079
X65689Y-34961
X65689Y-37047
X65700Y-37900
X66083Y-51063
X66102Y-32244
X66102Y-35669
X66102Y-45630
X66102Y-49685
X66457Y-33937
X66471Y-37131
X67205Y-37283
X67598Y-35091
X67913Y-49665
X67913Y-51063
X67953Y-45630
X68976Y-37244
X69685Y-45650
X69685Y-49685
X69685Y-51063
X69744Y-38996
X70787Y-35906
X71476Y-37657
X71476Y-39016
X71496Y-45630
X71496Y-49705
X71496Y-51063
X72638Y-34685
X73366Y-39035
X73366Y-45630
X73366Y-49705
X73366Y-51043
X73799Y-36240
X75236Y-35039
X75256Y-36319
X75256Y-45630
X75256Y-49685
X75256Y-51043
X75276Y-39035
X77126Y-51043
X77146Y-39035
X77146Y-45650
X77165Y-34646
X77165Y-49685
X77283Y-36319
X78858Y-35906
X78858Y-49705
X78858Y-51043
X78878Y-39016
X78878Y-45650
X80591Y-37244
X80591Y-39016
X80591Y-45650
X80591Y-49705
X80591Y-51004
X82382Y-45650
X82382Y-51043
X82402Y-38622
X82402Y-39016
X82402Y-39803
X82402Y-49705
X84213Y-49705
X84213Y-51043
X84232Y-45669
X86063Y-45650
X86063Y-49705
X86063Y-51024
X87854Y-51024
X87874Y-41181
X87874Y-49705
X87894Y-45630
X89724Y-50669
X89744Y-44272
X89744Y-45650
X89744Y-48327
X89744Y-49685
X89764Y-42520
X91496Y-46496
X91496Y-47913
X91496Y-49291
X91535Y-43858
X91535Y-45236
T3
X54434Y-43898
X54434Y-45866
T2
G00X53233Y-43504
M15
G01X53509Y-43504
M16
G05
G00X53509Y-46260
M15
G01X53233Y-46260
M16
G05
T0
M30
