M48
; DRILL file {KiCad (5.1.7)-1} date 01/23/21 13:14:27
; FORMAT={-:-/ absolute / metric / decimal}
; #@! TF.CreationDate,2021-01-23T13:14:27+03:00
; #@! TF.GenerationSoftware,Kicad,Pcbnew,(5.1.7)-1
; #@! TF.FileFunction,Plated,1,4,PTH
FMAT,2
METRIC
T1C0.300
T2C0.400
T3C0.800
%
G90
G05
T1
X20.525Y-76.39
X21.75Y-67.93
X23.89Y-39.02
X24.14Y-63.46
X26.23Y-60.92
X26.855Y-56.81
X28.45Y-62.96
X28.48Y-56.01
X28.96Y-39.02
X36.15Y-105.21
X36.26Y-108.02
X36.28Y-112.8
X36.37Y-97.14
X36.37Y-102.34
X36.37Y-117.94
X37.0Y-105.08
X37.575Y-102.915
X37.58Y-105.5
X37.594Y-107.394
X37.81Y-110.55
X38.975Y-114.435
X38.981Y-115.085
X39.154Y-107.902
X39.199Y-115.697
X39.265Y-110.546
X39.269Y-109.896
X39.277Y-108.54
X39.288Y-107.266
X39.291Y-109.246
X39.34Y-104.45
X39.34Y-111.93
X39.403Y-111.181
X39.574Y-112.536
X39.85Y-115.94
X40.09Y-116.76
X40.38Y-117.35
X40.525Y-115.08
X40.53Y-88.24
X40.95Y-113.36
X41.75Y-105.24
X41.8Y-91.94
X41.8Y-97.14
X41.8Y-102.34
X41.8Y-117.94
X41.8Y-123.14
X41.8Y-128.34
X42.5Y-115.48
X43.06Y-110.36
X43.7Y-58.2
X43.95Y-118.465
X44.19Y-56.51
X44.3Y-39.99
X44.37Y-55.3
X44.875Y-49.085
X45.125Y-104.96
X45.19Y-109.66
X45.258Y-114.222
X45.34Y-105.943
X45.35Y-110.7
X45.83Y-47.69
X45.92Y-113.98
X45.989Y-103.691
X46.01Y-97.14
X46.025Y-91.94
X46.025Y-106.073
X47.29Y-86.74
X47.29Y-91.94
X47.29Y-97.14
X47.29Y-102.34
X47.29Y-117.94
X47.29Y-123.14
X47.29Y-128.34
X47.29Y-133.54
X47.34Y-113.11
X47.437Y-107.591
X47.63Y-105.12
X48.125Y-103.4
X49.41Y-52.44
X49.45Y-102.9
X49.979Y-111.669
X50.035Y-112.316
X50.19Y-107.15
X50.38Y-50.04
X50.41Y-111.12
X50.54Y-133.54
X50.7Y-100.3
X50.8Y-52.73
X51.05Y-128.34
X51.125Y-111.038
X51.19Y-106.39
X51.261Y-123.121
X51.4Y-52.83
X51.89Y-139.42
X52.62Y-107.52
X52.66Y-117.94
X52.75Y-105.19
X52.77Y-86.63
X52.77Y-91.83
X52.77Y-97.03
X52.77Y-102.23
X52.77Y-123.03
X52.77Y-128.23
X52.77Y-133.43
X52.779Y-138.62
X52.83Y-110.2
X52.89Y-112.84
X53.549Y-108.365
X54.13Y-105.24
X56.1Y-104.7
X56.21Y-111.98
X56.39Y-113.9
X56.86Y-43.3
X57.88Y-47.99
X57.91Y-43.18
X58.15Y-105.21
X58.26Y-108.02
X58.28Y-57.66
X58.28Y-112.8
X58.37Y-81.54
X58.37Y-86.74
X58.37Y-91.94
X58.37Y-97.14
X58.37Y-102.34
X58.37Y-117.94
X58.37Y-123.14
X58.37Y-128.34
X58.37Y-133.54
X58.37Y-138.74
X59.0Y-105.08
X59.575Y-102.915
X59.58Y-105.5
X59.594Y-107.394
X59.81Y-110.55
X60.975Y-114.435
X60.981Y-115.085
X61.154Y-107.902
X61.199Y-115.697
X61.265Y-110.546
X61.269Y-109.896
X61.277Y-108.54
X61.288Y-107.266
X61.291Y-109.246
X61.34Y-111.93
X61.403Y-111.181
X61.574Y-112.536
X61.85Y-115.94
X62.09Y-116.76
X62.38Y-117.35
X62.52Y-104.15
X62.525Y-115.08
X62.88Y-44.59
X62.95Y-113.36
X63.73Y-105.24
X63.8Y-81.54
X63.8Y-86.74
X63.8Y-91.94
X63.8Y-97.14
X63.8Y-102.34
X63.8Y-117.94
X63.8Y-123.14
X63.8Y-128.34
X63.8Y-133.54
X63.8Y-138.74
X64.51Y-115.56
X64.67Y-39.92
X65.06Y-110.36
X65.95Y-118.465
X66.525Y-81.54
X67.125Y-104.96
X67.19Y-109.66
X67.24Y-114.41
X67.34Y-105.943
X67.35Y-110.7
X67.92Y-113.98
X67.989Y-103.691
X68.01Y-97.14
X68.025Y-86.74
X68.025Y-91.94
X68.025Y-106.073
X68.24Y-39.82
X69.29Y-81.54
X69.29Y-86.74
X69.29Y-91.94
X69.29Y-97.14
X69.29Y-102.34
X69.29Y-117.94
X69.29Y-123.14
X69.29Y-128.34
X69.29Y-133.54
X69.29Y-138.74
X69.34Y-113.11
X69.437Y-107.591
X69.63Y-105.12
X70.125Y-103.4
X71.25Y-38.44
X71.45Y-102.9
X71.52Y-138.74
X71.979Y-111.669
X72.035Y-112.316
X72.19Y-107.15
X72.41Y-111.12
X72.5Y-100.5
X72.54Y-133.54
X73.05Y-128.34
X73.125Y-111.038
X73.19Y-106.39
X73.261Y-123.338
X74.62Y-107.52
X74.66Y-117.94
X74.75Y-105.19
X74.77Y-76.23
X74.77Y-81.43
X74.77Y-86.63
X74.77Y-91.83
X74.77Y-97.03
X74.77Y-102.23
X74.77Y-123.03
X74.77Y-128.23
X74.77Y-133.43
X74.77Y-138.63
X74.83Y-110.2
X74.89Y-112.84
X75.549Y-108.365
X76.13Y-105.24
X78.21Y-104.16
X78.23Y-111.51
X78.75Y-115.15
X80.15Y-105.21
X80.26Y-108.02
X80.28Y-112.8
X80.37Y-71.14
X80.37Y-76.34
X80.37Y-81.54
X80.37Y-86.74
X80.37Y-91.94
X80.37Y-97.14
X80.37Y-102.34
X80.37Y-117.94
X80.37Y-123.14
X80.37Y-128.34
X80.37Y-133.54
X80.37Y-138.74
X81.0Y-105.08
X81.575Y-102.915
X81.58Y-105.5
X81.594Y-107.394
X81.81Y-110.55
X82.975Y-114.435
X82.981Y-115.085
X83.047Y-105.324
X83.154Y-107.902
X83.199Y-115.697
X83.265Y-110.546
X83.269Y-109.896
X83.277Y-108.54
X83.288Y-107.266
X83.291Y-109.246
X83.34Y-111.93
X83.403Y-111.181
X83.574Y-112.536
X83.678Y-105.168
X83.85Y-115.94
X84.09Y-116.76
X84.249Y-104.857
X84.376Y-107.29
X84.38Y-117.35
X84.52Y-104.15
X84.525Y-115.08
X84.95Y-113.36
X85.8Y-65.94
X85.8Y-71.14
X85.8Y-76.34
X85.8Y-81.54
X85.8Y-86.74
X85.8Y-91.94
X85.8Y-97.14
X85.8Y-102.34
X85.8Y-117.94
X85.8Y-123.14
X85.8Y-128.34
X85.8Y-133.54
X85.8Y-138.74
X86.51Y-115.56
X87.06Y-110.36
X87.95Y-118.465
X88.525Y-81.54
X89.125Y-104.96
X89.19Y-109.66
X89.24Y-114.41
X89.34Y-105.943
X89.35Y-110.7
X89.92Y-113.98
X89.989Y-103.691
X90.01Y-97.14
X90.025Y-86.74
X90.025Y-91.94
X90.025Y-106.073
X91.29Y-65.94
X91.29Y-71.14
X91.29Y-76.34
X91.29Y-81.54
X91.29Y-86.74
X91.29Y-91.94
X91.29Y-97.14
X91.29Y-102.34
X91.29Y-117.94
X91.29Y-123.14
X91.29Y-128.34
X91.29Y-133.54
X91.29Y-138.74
X91.34Y-113.11
X91.437Y-107.591
X91.63Y-105.12
X92.125Y-103.4
X93.45Y-102.9
X93.52Y-138.74
X93.979Y-111.669
X94.035Y-112.316
X94.19Y-107.15
X94.4Y-100.2
X94.41Y-111.12
X94.54Y-133.54
X95.05Y-128.34
X95.125Y-111.038
X95.19Y-106.39
X95.261Y-123.338
X96.62Y-107.52
X96.66Y-117.94
X96.75Y-105.19
X96.77Y-65.83
X96.77Y-71.03
X96.77Y-76.23
X96.77Y-81.43
X96.77Y-86.63
X96.77Y-91.83
X96.77Y-97.03
X96.77Y-102.23
X96.77Y-123.03
X96.77Y-128.23
X96.77Y-133.43
X96.77Y-138.63
X96.83Y-110.2
X96.89Y-112.84
X97.549Y-108.365
X98.13Y-105.24
X100.2Y-100.4
X100.4Y-105.3
X102.15Y-105.21
X102.26Y-108.02
X102.28Y-112.8
X102.37Y-65.94
X102.37Y-71.14
X102.37Y-76.34
X102.37Y-81.54
X102.37Y-86.74
X102.37Y-91.94
X102.37Y-97.14
X102.37Y-102.34
X102.37Y-117.94
X102.37Y-123.14
X102.37Y-128.34
X102.37Y-133.54
X102.37Y-138.74
X103.0Y-105.08
X103.575Y-102.915
X103.58Y-105.5
X103.594Y-107.394
X103.81Y-110.55
X104.975Y-114.435
X104.981Y-115.085
X105.047Y-105.324
X105.154Y-107.902
X105.199Y-115.697
X105.265Y-110.546
X105.269Y-109.896
X105.277Y-108.54
X105.288Y-107.266
X105.291Y-109.246
X105.34Y-111.93
X105.403Y-111.181
X105.574Y-112.536
X105.678Y-105.168
X105.85Y-115.94
X106.09Y-116.76
X106.249Y-104.857
X106.37Y-107.32
X106.38Y-117.35
X106.52Y-104.15
X106.525Y-115.08
X106.95Y-113.36
X107.8Y-65.94
X107.8Y-71.14
X107.8Y-76.34
X107.8Y-81.54
X107.8Y-86.74
X107.8Y-91.94
X107.8Y-97.14
X107.8Y-102.34
X107.8Y-117.94
X107.8Y-123.14
X107.8Y-128.34
X107.8Y-133.54
X107.8Y-138.74
X108.51Y-115.56
X109.06Y-110.36
X109.95Y-118.465
X110.525Y-81.54
X111.125Y-104.96
X111.19Y-109.66
X111.24Y-114.41
X111.34Y-105.943
X111.35Y-110.7
X111.92Y-113.98
X111.989Y-103.691
X112.01Y-97.14
X112.025Y-86.74
X112.025Y-91.94
X112.025Y-106.073
X113.29Y-65.94
X113.29Y-71.14
X113.29Y-76.34
X113.29Y-81.54
X113.29Y-86.74
X113.29Y-91.94
X113.29Y-97.14
X113.29Y-102.34
X113.29Y-117.94
X113.29Y-123.14
X113.29Y-128.34
X113.29Y-133.54
X113.29Y-138.74
X113.34Y-113.11
X113.437Y-107.591
X113.63Y-105.12
X114.125Y-103.4
X115.45Y-102.9
X115.52Y-138.74
X115.979Y-111.669
X116.035Y-112.316
X116.19Y-107.15
X116.41Y-111.12
X116.54Y-133.54
X116.7Y-100.0
X117.05Y-128.34
X117.125Y-111.038
X117.19Y-106.39
X117.261Y-123.338
X118.62Y-107.52
X118.66Y-117.94
X118.75Y-105.19
X118.77Y-71.03
X118.77Y-76.23
X118.77Y-81.43
X118.77Y-86.63
X118.77Y-91.83
X118.77Y-97.03
X118.77Y-102.23
X118.77Y-123.03
X118.77Y-128.23
X118.77Y-133.43
X118.77Y-138.63
X118.83Y-110.2
X118.89Y-112.84
X119.549Y-108.365
X120.13Y-105.24
X122.1Y-105.5
X124.15Y-105.21
X124.26Y-108.02
X124.28Y-112.8
X124.37Y-76.34
X124.37Y-81.54
X124.37Y-86.74
X124.37Y-91.94
X124.37Y-97.14
X124.37Y-102.34
X124.37Y-117.94
X124.37Y-123.14
X124.37Y-128.34
X124.37Y-133.54
X124.37Y-138.74
X125.0Y-105.08
X125.575Y-102.915
X125.58Y-105.5
X125.594Y-107.394
X125.81Y-110.55
X126.975Y-114.435
X126.981Y-115.085
X127.154Y-107.902
X127.199Y-115.697
X127.265Y-110.546
X127.269Y-109.896
X127.277Y-108.54
X127.288Y-107.266
X127.291Y-109.246
X127.34Y-111.93
X127.403Y-111.181
X127.574Y-112.536
X127.61Y-104.94
X127.85Y-115.94
X128.09Y-116.76
X128.3Y-107.33
X128.38Y-117.35
X128.95Y-113.36
X129.61Y-115.44
X129.8Y-81.54
X129.8Y-86.74
X129.8Y-91.94
X129.8Y-97.14
X129.8Y-102.34
X129.8Y-117.94
X129.8Y-123.14
X129.8Y-128.34
X129.8Y-133.54
X129.8Y-138.74
X130.51Y-115.56
X131.06Y-110.36
X131.95Y-118.465
X132.525Y-81.54
X133.125Y-104.96
X133.19Y-109.66
X133.24Y-114.41
X133.34Y-105.943
X133.35Y-110.7
X133.92Y-113.98
X133.989Y-103.691
X134.01Y-97.14
X134.025Y-86.74
X134.025Y-91.94
X134.025Y-106.073
X135.29Y-86.74
X135.29Y-91.94
X135.29Y-97.14
X135.29Y-102.34
X135.29Y-117.94
X135.29Y-123.14
X135.29Y-128.34
X135.29Y-133.54
X135.29Y-138.74
X135.34Y-113.11
X135.437Y-107.591
X135.63Y-105.12
X136.125Y-103.4
X137.45Y-102.9
X137.52Y-138.74
X137.979Y-111.669
X138.035Y-112.316
X138.19Y-107.15
X138.3Y-100.2
X138.41Y-111.12
X138.54Y-133.54
X139.05Y-128.34
X139.125Y-111.038
X139.19Y-106.39
X139.261Y-123.338
X140.62Y-107.52
X140.66Y-117.94
X140.75Y-105.19
X140.77Y-86.63
X140.77Y-91.83
X140.77Y-97.03
X140.77Y-102.23
X140.77Y-123.03
X140.77Y-128.23
X140.77Y-133.43
X140.77Y-138.63
X140.83Y-110.2
X140.89Y-112.84
X141.549Y-108.365
X142.13Y-105.24
X144.21Y-105.5
X146.15Y-105.21
X146.26Y-108.02
X146.28Y-112.8
X146.37Y-91.94
X146.37Y-97.14
X146.37Y-102.34
X146.37Y-117.94
X146.37Y-123.14
X146.37Y-128.34
X146.37Y-133.54
X146.37Y-138.74
X147.0Y-105.08
X147.575Y-102.915
X147.58Y-105.5
X147.594Y-107.394
X147.81Y-110.55
X148.975Y-114.435
X148.981Y-115.085
X149.154Y-107.902
X149.199Y-115.697
X149.265Y-110.546
X149.269Y-109.896
X149.277Y-108.54
X149.288Y-107.266
X149.291Y-109.246
X149.34Y-111.93
X149.403Y-111.181
X149.574Y-112.536
X149.85Y-115.94
X150.09Y-116.76
X150.32Y-107.27
X150.38Y-117.35
X150.95Y-113.36
X151.8Y-91.94
X151.8Y-97.14
X151.8Y-102.34
X151.8Y-117.94
X151.8Y-123.14
X151.8Y-128.34
X151.8Y-133.54
X152.51Y-115.56
X153.06Y-110.36
X153.762Y-133.543
X153.95Y-118.465
X154.68Y-91.95
X155.19Y-109.66
X155.24Y-114.41
X155.35Y-110.7
X155.92Y-113.98
X155.989Y-103.691
X156.01Y-97.14
X156.025Y-106.073
X157.2Y-97.22
X157.29Y-102.34
X157.29Y-117.94
X157.29Y-123.14
X157.29Y-128.34
X157.34Y-113.11
X157.437Y-107.591
X157.63Y-105.12
X158.125Y-103.4
X159.45Y-102.9
X159.65Y-129.015
X159.979Y-111.669
X160.035Y-112.316
X160.19Y-107.15
X160.41Y-111.12
X160.6Y-100.2
X161.05Y-128.34
X161.125Y-111.038
X161.19Y-106.39
X161.261Y-123.338
X162.62Y-107.52
X162.66Y-117.94
X162.75Y-105.19
X162.77Y-102.23
X162.83Y-110.2
X162.89Y-112.84
X163.549Y-108.365
X164.13Y-105.24
T2
X91.451Y-60.679
X96.559Y-60.679
X103.004Y-60.679
X108.461Y-60.679
T3
G00X22.9Y-158.19
M15
G01X22.9Y-155.99
M16
G05
G00X24.6Y-152.29
M15
G01X26.8Y-152.29
M16
G05
G00X28.7Y-158.39
M15
G01X28.7Y-155.79
M16
G05
T0
M30
