G04 #@! TF.GenerationSoftware,KiCad,Pcbnew,(5.1.6)-1*
G04 #@! TF.CreationDate,2020-10-03T14:28:17-05:00*
G04 #@! TF.ProjectId,LEDs_RGB_cloud,4c454473-5f52-4474-925f-636c6f75642e,rev?*
G04 #@! TF.SameCoordinates,Original*
G04 #@! TF.FileFunction,Soldermask,Top*
G04 #@! TF.FilePolarity,Negative*
%FSLAX46Y46*%
G04 Gerber Fmt 4.6, Leading zero omitted, Abs format (unit mm)*
G04 Created by KiCad (PCBNEW (5.1.6)-1) date 2020-10-03 14:28:17*
%MOMM*%
%LPD*%
G01*
G04 APERTURE LIST*
%ADD10R,1.600000X1.100000*%
%ADD11C,3.300000*%
%ADD12C,2.700000*%
%ADD13R,2.700000X2.700000*%
G04 APERTURE END LIST*
D10*
X54750000Y-90000000D03*
X54750000Y-93200000D03*
X59650000Y-90000000D03*
X59650000Y-93200000D03*
X54950000Y-61500000D03*
X54950000Y-64700000D03*
X59850000Y-61500000D03*
X59850000Y-64700000D03*
X91550000Y-44450000D03*
X91550000Y-47650000D03*
X96450000Y-44450000D03*
X96450000Y-47650000D03*
X84275000Y-44450000D03*
X84275000Y-47650000D03*
X89175000Y-44450000D03*
X89175000Y-47650000D03*
X172050000Y-84300000D03*
X172050000Y-87500000D03*
X176950000Y-84300000D03*
X176950000Y-87500000D03*
X150380000Y-90020000D03*
X150380000Y-93220000D03*
X155280000Y-90020000D03*
X155280000Y-93220000D03*
X106150000Y-27350000D03*
X106150000Y-30550000D03*
X111050000Y-27350000D03*
X111050000Y-30550000D03*
X69550000Y-61500000D03*
X69550000Y-64700000D03*
X74450000Y-61500000D03*
X74450000Y-64700000D03*
X84250000Y-55890000D03*
X84250000Y-59090000D03*
X89150000Y-55890000D03*
X89150000Y-59090000D03*
X61960000Y-95850000D03*
X61960000Y-99050000D03*
X66860000Y-95850000D03*
X66860000Y-99050000D03*
X69060000Y-95850000D03*
X69060000Y-99050000D03*
X73960000Y-95850000D03*
X73960000Y-99050000D03*
X76410000Y-95850000D03*
X76410000Y-99050000D03*
X81310000Y-95850000D03*
X81310000Y-99050000D03*
X83760000Y-95850000D03*
X83760000Y-99050000D03*
X88660000Y-95850000D03*
X88660000Y-99050000D03*
X91160000Y-95850000D03*
X91160000Y-99050000D03*
X96060000Y-95850000D03*
X96060000Y-99050000D03*
X98560000Y-95850000D03*
X98560000Y-99050000D03*
X103460000Y-95850000D03*
X103460000Y-99050000D03*
X105960000Y-95850000D03*
X105960000Y-99050000D03*
X110860000Y-95850000D03*
X110860000Y-99050000D03*
X113360000Y-95850000D03*
X113360000Y-99050000D03*
X118260000Y-95850000D03*
X118260000Y-99050000D03*
X120660000Y-95850000D03*
X120660000Y-99050000D03*
X125560000Y-95850000D03*
X125560000Y-99050000D03*
X128060000Y-95850000D03*
X128060000Y-99050000D03*
X132960000Y-95850000D03*
X132960000Y-99050000D03*
X135560000Y-95850000D03*
X135560000Y-99050000D03*
X140460000Y-95850000D03*
X140460000Y-99050000D03*
X142960000Y-95850000D03*
X142960000Y-99050000D03*
X147860000Y-95850000D03*
X147860000Y-99050000D03*
X150360000Y-95850000D03*
X150360000Y-99050000D03*
X155260000Y-95850000D03*
X155260000Y-99050000D03*
X157760000Y-95850000D03*
X157760000Y-99050000D03*
X162660000Y-95850000D03*
X162660000Y-99050000D03*
X164860000Y-95850000D03*
X164860000Y-99050000D03*
X169760000Y-95850000D03*
X169760000Y-99050000D03*
X157760000Y-101550000D03*
X157760000Y-104750000D03*
X162660000Y-101550000D03*
X162660000Y-104750000D03*
X150360000Y-101550000D03*
X150360000Y-104750000D03*
X155260000Y-101550000D03*
X155260000Y-104750000D03*
X143060000Y-101550000D03*
X143060000Y-104750000D03*
X147960000Y-101550000D03*
X147960000Y-104750000D03*
X135560000Y-101550000D03*
X135560000Y-104750000D03*
X140460000Y-101550000D03*
X140460000Y-104750000D03*
X128060000Y-101550000D03*
X128060000Y-104750000D03*
X132960000Y-101550000D03*
X132960000Y-104750000D03*
X120660000Y-101550000D03*
X120660000Y-104750000D03*
X125560000Y-101550000D03*
X125560000Y-104750000D03*
X113310000Y-101550000D03*
X113310000Y-104750000D03*
X118210000Y-101550000D03*
X118210000Y-104750000D03*
X105960000Y-101550000D03*
X105960000Y-104750000D03*
X110860000Y-101550000D03*
X110860000Y-104750000D03*
X98460000Y-101550000D03*
X98460000Y-104750000D03*
X103360000Y-101550000D03*
X103360000Y-104750000D03*
X91160000Y-101550000D03*
X91160000Y-104750000D03*
X96060000Y-101550000D03*
X96060000Y-104750000D03*
X83840000Y-101560000D03*
X83840000Y-104760000D03*
X88740000Y-101560000D03*
X88740000Y-104760000D03*
X76430000Y-101540000D03*
X76430000Y-104740000D03*
X81330000Y-101540000D03*
X81330000Y-104740000D03*
X69080000Y-101540000D03*
X69080000Y-104740000D03*
X73980000Y-101540000D03*
X73980000Y-104740000D03*
X62250000Y-55890000D03*
X62250000Y-59090000D03*
X67150000Y-55890000D03*
X67150000Y-59090000D03*
X54950000Y-72900000D03*
X54950000Y-76100000D03*
X59850000Y-72900000D03*
X59850000Y-76100000D03*
X171950000Y-78600000D03*
X171950000Y-81800000D03*
X176850000Y-78600000D03*
X176850000Y-81800000D03*
X157350000Y-67200000D03*
X157350000Y-70400000D03*
X162250000Y-67200000D03*
X162250000Y-70400000D03*
X164650000Y-61490000D03*
X164650000Y-64690000D03*
X169550000Y-61490000D03*
X169550000Y-64690000D03*
X164880000Y-90020000D03*
X164880000Y-93220000D03*
X169780000Y-90020000D03*
X169780000Y-93220000D03*
X69550000Y-84300000D03*
X69550000Y-87500000D03*
X74450000Y-84300000D03*
X74450000Y-87500000D03*
D11*
X178000000Y-108000000D03*
X178000000Y-26000000D03*
X54000000Y-108000000D03*
X54000000Y-26000000D03*
D12*
X66840000Y-25000000D03*
X71920000Y-25000000D03*
D13*
X77000000Y-25000000D03*
D10*
X113550000Y-27400000D03*
X113550000Y-30600000D03*
X118450000Y-27400000D03*
X118450000Y-30600000D03*
X120850000Y-27400000D03*
X120850000Y-30600000D03*
X125750000Y-27400000D03*
X125750000Y-30600000D03*
X128050000Y-33150000D03*
X128050000Y-36350000D03*
X132950000Y-33150000D03*
X132950000Y-36350000D03*
X120750000Y-33100000D03*
X120750000Y-36300000D03*
X125650000Y-33100000D03*
X125650000Y-36300000D03*
X113450000Y-33100000D03*
X113450000Y-36300000D03*
X118350000Y-33100000D03*
X118350000Y-36300000D03*
X106150000Y-33100000D03*
X106150000Y-36300000D03*
X111050000Y-33100000D03*
X111050000Y-36300000D03*
X98850000Y-33100000D03*
X98850000Y-36300000D03*
X103750000Y-33100000D03*
X103750000Y-36300000D03*
X91550000Y-38750000D03*
X91550000Y-41950000D03*
X96450000Y-38750000D03*
X96450000Y-41950000D03*
X98850000Y-38750000D03*
X98850000Y-41950000D03*
X103750000Y-38750000D03*
X103750000Y-41950000D03*
X106150000Y-38750000D03*
X106150000Y-41950000D03*
X111050000Y-38750000D03*
X111050000Y-41950000D03*
X113450000Y-38750000D03*
X113450000Y-41950000D03*
X118350000Y-38750000D03*
X118350000Y-41950000D03*
X120750000Y-38750000D03*
X120750000Y-41950000D03*
X125650000Y-38750000D03*
X125650000Y-41950000D03*
X128050000Y-38750000D03*
X128050000Y-41950000D03*
X132950000Y-38750000D03*
X132950000Y-41950000D03*
X135350000Y-38750000D03*
X135350000Y-41950000D03*
X140250000Y-38750000D03*
X140250000Y-41950000D03*
X142650000Y-44450000D03*
X142650000Y-47650000D03*
X147550000Y-44450000D03*
X147550000Y-47650000D03*
X135350000Y-44450000D03*
X135350000Y-47650000D03*
X140250000Y-44450000D03*
X140250000Y-47650000D03*
X128050000Y-44450000D03*
X128050000Y-47650000D03*
X132950000Y-44450000D03*
X132950000Y-47650000D03*
X120750000Y-44450000D03*
X120750000Y-47650000D03*
X125650000Y-44450000D03*
X125650000Y-47650000D03*
X113450000Y-44450000D03*
X113450000Y-47650000D03*
X118350000Y-44450000D03*
X118350000Y-47650000D03*
X106150000Y-44450000D03*
X106150000Y-47650000D03*
X111050000Y-44450000D03*
X111050000Y-47650000D03*
X98850000Y-44450000D03*
X98850000Y-47650000D03*
X103750000Y-44450000D03*
X103750000Y-47650000D03*
X69550000Y-50200000D03*
X69550000Y-53400000D03*
X74450000Y-50200000D03*
X74450000Y-53400000D03*
X76950000Y-50200000D03*
X76950000Y-53400000D03*
X81850000Y-50200000D03*
X81850000Y-53400000D03*
X84250000Y-50200000D03*
X84250000Y-53400000D03*
X89150000Y-50200000D03*
X89150000Y-53400000D03*
X91550000Y-50200000D03*
X91550000Y-53400000D03*
X96450000Y-50200000D03*
X96450000Y-53400000D03*
X98850000Y-50200000D03*
X98850000Y-53400000D03*
X103750000Y-50200000D03*
X103750000Y-53400000D03*
X106150000Y-50200000D03*
X106150000Y-53400000D03*
X111050000Y-50200000D03*
X111050000Y-53400000D03*
X113450000Y-50200000D03*
X113450000Y-53400000D03*
X118350000Y-50200000D03*
X118350000Y-53400000D03*
X120750000Y-50200000D03*
X120750000Y-53400000D03*
X125650000Y-50200000D03*
X125650000Y-53400000D03*
X128050000Y-50200000D03*
X128050000Y-53400000D03*
X132950000Y-50200000D03*
X132950000Y-53400000D03*
X135350000Y-50200000D03*
X135350000Y-53400000D03*
X140250000Y-50200000D03*
X140250000Y-53400000D03*
X142650000Y-50200000D03*
X142650000Y-53400000D03*
X147550000Y-50200000D03*
X147550000Y-53400000D03*
X150050000Y-50200000D03*
X150050000Y-53400000D03*
X154950000Y-50200000D03*
X154950000Y-53400000D03*
X157350000Y-50200000D03*
X157350000Y-53400000D03*
X162250000Y-50200000D03*
X162250000Y-53400000D03*
X164670000Y-55900000D03*
X164670000Y-59100000D03*
X169570000Y-55900000D03*
X169570000Y-59100000D03*
X157350000Y-55890000D03*
X157350000Y-59090000D03*
X162250000Y-55890000D03*
X162250000Y-59090000D03*
X150050000Y-55890000D03*
X150050000Y-59090000D03*
X154950000Y-55890000D03*
X154950000Y-59090000D03*
X142650000Y-55890000D03*
X142650000Y-59090000D03*
X147550000Y-55890000D03*
X147550000Y-59090000D03*
X135350000Y-55890000D03*
X135350000Y-59090000D03*
X140250000Y-55890000D03*
X140250000Y-59090000D03*
X128050000Y-55890000D03*
X128050000Y-59090000D03*
X132950000Y-55890000D03*
X132950000Y-59090000D03*
X120750000Y-55890000D03*
X120750000Y-59090000D03*
X125650000Y-55890000D03*
X125650000Y-59090000D03*
X113450000Y-55890000D03*
X113450000Y-59090000D03*
X118350000Y-55890000D03*
X118350000Y-59090000D03*
X106150000Y-55890000D03*
X106150000Y-59090000D03*
X111050000Y-55890000D03*
X111050000Y-59090000D03*
X98850000Y-55890000D03*
X98850000Y-59090000D03*
X103750000Y-55890000D03*
X103750000Y-59090000D03*
X91550000Y-55890000D03*
X91550000Y-59090000D03*
X96450000Y-55890000D03*
X96450000Y-59090000D03*
X76950000Y-55890000D03*
X76950000Y-59090000D03*
X81850000Y-55890000D03*
X81850000Y-59090000D03*
X69550000Y-55890000D03*
X69550000Y-59090000D03*
X74450000Y-55890000D03*
X74450000Y-59090000D03*
X62250000Y-61490000D03*
X62250000Y-64690000D03*
X67150000Y-61490000D03*
X67150000Y-64690000D03*
X76850000Y-61490000D03*
X76850000Y-64690000D03*
X81750000Y-61490000D03*
X81750000Y-64690000D03*
X84250000Y-61490000D03*
X84250000Y-64690000D03*
X89150000Y-61490000D03*
X89150000Y-64690000D03*
X91610000Y-61500000D03*
X91610000Y-64700000D03*
X96510000Y-61500000D03*
X96510000Y-64700000D03*
X98850000Y-61490000D03*
X98850000Y-64690000D03*
X103750000Y-61490000D03*
X103750000Y-64690000D03*
X106150000Y-61490000D03*
X106150000Y-64690000D03*
X111050000Y-61490000D03*
X111050000Y-64690000D03*
X113450000Y-61490000D03*
X113450000Y-64690000D03*
X118350000Y-61490000D03*
X118350000Y-64690000D03*
X120750000Y-61490000D03*
X120750000Y-64690000D03*
X125650000Y-61490000D03*
X125650000Y-64690000D03*
X128050000Y-61490000D03*
X128050000Y-64690000D03*
X132950000Y-61490000D03*
X132950000Y-64690000D03*
X135350000Y-61490000D03*
X135350000Y-64690000D03*
X140250000Y-61490000D03*
X140250000Y-64690000D03*
X142650000Y-61490000D03*
X142650000Y-64690000D03*
X147550000Y-61490000D03*
X147550000Y-64690000D03*
X149950000Y-61490000D03*
X149950000Y-64690000D03*
X154850000Y-61490000D03*
X154850000Y-64690000D03*
X157350000Y-61490000D03*
X157350000Y-64690000D03*
X162250000Y-61490000D03*
X162250000Y-64690000D03*
X171950000Y-61490000D03*
X171950000Y-64690000D03*
X176850000Y-61490000D03*
X176850000Y-64690000D03*
X171950000Y-67200000D03*
X171950000Y-70400000D03*
X176850000Y-67200000D03*
X176850000Y-70400000D03*
X164650000Y-67200000D03*
X164650000Y-70400000D03*
X169550000Y-67200000D03*
X169550000Y-70400000D03*
X150050000Y-67200000D03*
X150050000Y-70400000D03*
X154950000Y-67200000D03*
X154950000Y-70400000D03*
X142650000Y-67200000D03*
X142650000Y-70400000D03*
X147550000Y-67200000D03*
X147550000Y-70400000D03*
X135350000Y-67200000D03*
X135350000Y-70400000D03*
X140250000Y-67200000D03*
X140250000Y-70400000D03*
X128050000Y-67200000D03*
X128050000Y-70400000D03*
X132950000Y-67200000D03*
X132950000Y-70400000D03*
X120750000Y-67200000D03*
X120750000Y-70400000D03*
X125650000Y-67200000D03*
X125650000Y-70400000D03*
X113450000Y-67200000D03*
X113450000Y-70400000D03*
X118350000Y-67200000D03*
X118350000Y-70400000D03*
X106150000Y-67200000D03*
X106150000Y-70400000D03*
X111050000Y-67200000D03*
X111050000Y-70400000D03*
X98850000Y-67200000D03*
X98850000Y-70400000D03*
X103750000Y-67200000D03*
X103750000Y-70400000D03*
X91550000Y-67200000D03*
X91550000Y-70400000D03*
X96450000Y-67200000D03*
X96450000Y-70400000D03*
X84300000Y-67200000D03*
X84300000Y-70400000D03*
X89200000Y-67200000D03*
X89200000Y-70400000D03*
X76950000Y-67200000D03*
X76950000Y-70400000D03*
X81850000Y-67200000D03*
X81850000Y-70400000D03*
X69550000Y-67200000D03*
X69550000Y-70400000D03*
X74450000Y-67200000D03*
X74450000Y-70400000D03*
X62250000Y-67200000D03*
X62250000Y-70400000D03*
X67150000Y-67200000D03*
X67150000Y-70400000D03*
X54950000Y-67200000D03*
X54950000Y-70400000D03*
X59850000Y-67200000D03*
X59850000Y-70400000D03*
X62250000Y-72900000D03*
X62250000Y-76100000D03*
X67150000Y-72900000D03*
X67150000Y-76100000D03*
X69550000Y-72900000D03*
X69550000Y-76100000D03*
X74450000Y-72900000D03*
X74450000Y-76100000D03*
X76950000Y-72900000D03*
X76950000Y-76100000D03*
X81850000Y-72900000D03*
X81850000Y-76100000D03*
X84250000Y-72900000D03*
X84250000Y-76100000D03*
X89150000Y-72900000D03*
X89150000Y-76100000D03*
X91550000Y-72900000D03*
X91550000Y-76100000D03*
X96450000Y-72900000D03*
X96450000Y-76100000D03*
X98850000Y-72900000D03*
X98850000Y-76100000D03*
X103750000Y-72900000D03*
X103750000Y-76100000D03*
X106150000Y-72900000D03*
X106150000Y-76100000D03*
X111050000Y-72900000D03*
X111050000Y-76100000D03*
X113450000Y-72900000D03*
X113450000Y-76100000D03*
X118350000Y-72900000D03*
X118350000Y-76100000D03*
X120750000Y-72900000D03*
X120750000Y-76100000D03*
X125650000Y-72900000D03*
X125650000Y-76100000D03*
X128050000Y-72900000D03*
X128050000Y-76100000D03*
X132950000Y-72900000D03*
X132950000Y-76100000D03*
X135350000Y-72900000D03*
X135350000Y-76100000D03*
X140250000Y-72900000D03*
X140250000Y-76100000D03*
X142650000Y-72900000D03*
X142650000Y-76100000D03*
X147550000Y-72900000D03*
X147550000Y-76100000D03*
X150050000Y-72900000D03*
X150050000Y-76100000D03*
X154950000Y-72900000D03*
X154950000Y-76100000D03*
X157350000Y-72900000D03*
X157350000Y-76100000D03*
X162250000Y-72900000D03*
X162250000Y-76100000D03*
X164650000Y-72900000D03*
X164650000Y-76100000D03*
X169550000Y-72900000D03*
X169550000Y-76100000D03*
X171950000Y-72900000D03*
X171950000Y-76100000D03*
X176850000Y-72900000D03*
X176850000Y-76100000D03*
X164650000Y-78600000D03*
X164650000Y-81800000D03*
X169550000Y-78600000D03*
X169550000Y-81800000D03*
X157350000Y-78600000D03*
X157350000Y-81800000D03*
X162250000Y-78600000D03*
X162250000Y-81800000D03*
X150050000Y-78600000D03*
X150050000Y-81800000D03*
X154950000Y-78600000D03*
X154950000Y-81800000D03*
X142650000Y-78600000D03*
X142650000Y-81800000D03*
X147550000Y-78600000D03*
X147550000Y-81800000D03*
X135350000Y-78600000D03*
X135350000Y-81800000D03*
X140250000Y-78600000D03*
X140250000Y-81800000D03*
X128050000Y-78600000D03*
X128050000Y-81800000D03*
X132950000Y-78600000D03*
X132950000Y-81800000D03*
X120750000Y-78600000D03*
X120750000Y-81800000D03*
X125650000Y-78600000D03*
X125650000Y-81800000D03*
X113450000Y-78600000D03*
X113450000Y-81800000D03*
X118350000Y-78600000D03*
X118350000Y-81800000D03*
X106150000Y-78600000D03*
X106150000Y-81800000D03*
X111050000Y-78600000D03*
X111050000Y-81800000D03*
X98850000Y-78600000D03*
X98850000Y-81800000D03*
X103750000Y-78600000D03*
X103750000Y-81800000D03*
X91550000Y-78600000D03*
X91550000Y-81800000D03*
X96450000Y-78600000D03*
X96450000Y-81800000D03*
X84250000Y-78600000D03*
X84250000Y-81800000D03*
X89150000Y-78600000D03*
X89150000Y-81800000D03*
X76950000Y-78600000D03*
X76950000Y-81800000D03*
X81850000Y-78600000D03*
X81850000Y-81800000D03*
X69550000Y-78600000D03*
X69550000Y-81800000D03*
X74450000Y-78600000D03*
X74450000Y-81800000D03*
X62250000Y-78600000D03*
X62250000Y-81800000D03*
X67150000Y-78600000D03*
X67150000Y-81800000D03*
X54950000Y-78600000D03*
X54950000Y-81800000D03*
X59850000Y-78600000D03*
X59850000Y-81800000D03*
X54950000Y-84300000D03*
X54950000Y-87500000D03*
X59850000Y-84300000D03*
X59850000Y-87500000D03*
X62250000Y-84300000D03*
X62250000Y-87500000D03*
X67150000Y-84300000D03*
X67150000Y-87500000D03*
X76850000Y-84300000D03*
X76850000Y-87500000D03*
X81750000Y-84300000D03*
X81750000Y-87500000D03*
X84150000Y-84300000D03*
X84150000Y-87500000D03*
X89050000Y-84300000D03*
X89050000Y-87500000D03*
X91450000Y-84300000D03*
X91450000Y-87500000D03*
X96350000Y-84300000D03*
X96350000Y-87500000D03*
X98750000Y-84300000D03*
X98750000Y-87500000D03*
X103650000Y-84300000D03*
X103650000Y-87500000D03*
X106050000Y-84300000D03*
X106050000Y-87500000D03*
X110950000Y-84300000D03*
X110950000Y-87500000D03*
X113350000Y-84300000D03*
X113350000Y-87500000D03*
X118250000Y-84300000D03*
X118250000Y-87500000D03*
X120650000Y-84300000D03*
X120650000Y-87500000D03*
X125550000Y-84300000D03*
X125550000Y-87500000D03*
X127950000Y-84300000D03*
X127950000Y-87500000D03*
X132850000Y-84300000D03*
X132850000Y-87500000D03*
X135250000Y-84300000D03*
X135250000Y-87500000D03*
X140150000Y-84300000D03*
X140150000Y-87500000D03*
X142650000Y-84300000D03*
X142650000Y-87500000D03*
X147550000Y-84300000D03*
X147550000Y-87500000D03*
X150050000Y-84300000D03*
X150050000Y-87500000D03*
X154950000Y-84300000D03*
X154950000Y-87500000D03*
X157450000Y-84300000D03*
X157450000Y-87500000D03*
X162350000Y-84300000D03*
X162350000Y-87500000D03*
X164750000Y-84300000D03*
X164750000Y-87500000D03*
X169650000Y-84300000D03*
X169650000Y-87500000D03*
X172180000Y-90020000D03*
X172180000Y-93220000D03*
X177080000Y-90020000D03*
X177080000Y-93220000D03*
X157780000Y-90020000D03*
X157780000Y-93220000D03*
X162680000Y-90020000D03*
X162680000Y-93220000D03*
X142980000Y-90020000D03*
X142980000Y-93220000D03*
X147880000Y-90020000D03*
X147880000Y-93220000D03*
X135580000Y-90020000D03*
X135580000Y-93220000D03*
X140480000Y-90020000D03*
X140480000Y-93220000D03*
X128080000Y-90020000D03*
X128080000Y-93220000D03*
X132980000Y-90020000D03*
X132980000Y-93220000D03*
X120680000Y-90020000D03*
X120680000Y-93220000D03*
X125580000Y-90020000D03*
X125580000Y-93220000D03*
X113380000Y-90020000D03*
X113380000Y-93220000D03*
X118280000Y-90020000D03*
X118280000Y-93220000D03*
X105980000Y-90020000D03*
X105980000Y-93220000D03*
X110880000Y-90020000D03*
X110880000Y-93220000D03*
X98580000Y-90020000D03*
X98580000Y-93220000D03*
X103480000Y-90020000D03*
X103480000Y-93220000D03*
X91180000Y-90020000D03*
X91180000Y-93220000D03*
X96080000Y-90020000D03*
X96080000Y-93220000D03*
X83880000Y-90020000D03*
X83880000Y-93220000D03*
X88780000Y-90020000D03*
X88780000Y-93220000D03*
X76480000Y-90020000D03*
X76480000Y-93220000D03*
X81380000Y-90020000D03*
X81380000Y-93220000D03*
X69080000Y-90020000D03*
X69080000Y-93220000D03*
X73980000Y-90020000D03*
X73980000Y-93220000D03*
X61980000Y-90020000D03*
X61980000Y-93220000D03*
X66880000Y-90020000D03*
X66880000Y-93220000D03*
M02*
