G04 #@! TF.GenerationSoftware,KiCad,Pcbnew,(5.1.9)-1*
G04 #@! TF.CreationDate,2021-06-06T22:24:58-05:00*
G04 #@! TF.ProjectId,AirCloud,41697243-6c6f-4756-942e-6b696361645f,rev?*
G04 #@! TF.SameCoordinates,Original*
G04 #@! TF.FileFunction,Soldermask,Bot*
G04 #@! TF.FilePolarity,Negative*
%FSLAX46Y46*%
G04 Gerber Fmt 4.6, Leading zero omitted, Abs format (unit mm)*
G04 Created by KiCad (PCBNEW (5.1.9)-1) date 2021-06-06 22:24:58*
%MOMM*%
%LPD*%
G01*
G04 APERTURE LIST*
%ADD10R,0.900000X2.000000*%
%ADD11R,2.000000X0.900000*%
%ADD12R,5.000000X5.000000*%
%ADD13C,3.200000*%
%ADD14R,0.900000X1.700000*%
%ADD15R,0.900000X0.800000*%
%ADD16R,1.200000X1.400000*%
%ADD17R,1.000000X1.400000*%
%ADD18C,1.450000*%
%ADD19O,1.900000X1.200000*%
%ADD20R,3.800000X2.000000*%
%ADD21R,1.500000X2.000000*%
G04 APERTURE END LIST*
D10*
X146745000Y-96100000D03*
X148015000Y-96100000D03*
X149285000Y-96100000D03*
X150555000Y-96100000D03*
X151825000Y-96100000D03*
X153095000Y-96100000D03*
X154365000Y-96100000D03*
X155635000Y-96100000D03*
X156905000Y-96100000D03*
X158175000Y-96100000D03*
X159445000Y-96100000D03*
X160715000Y-96100000D03*
X161985000Y-96100000D03*
X163255000Y-96100000D03*
D11*
X164255000Y-93315000D03*
X164255000Y-92045000D03*
X164255000Y-90775000D03*
X164255000Y-89505000D03*
X164255000Y-88235000D03*
X164255000Y-86965000D03*
X164255000Y-85695000D03*
X164255000Y-84425000D03*
X164255000Y-83155000D03*
X164255000Y-81885000D03*
D10*
X163255000Y-79100000D03*
X161985000Y-79100000D03*
X160715000Y-79100000D03*
X159445000Y-79100000D03*
X158175000Y-79100000D03*
X156905000Y-79100000D03*
X155635000Y-79100000D03*
X154365000Y-79100000D03*
X153095000Y-79100000D03*
X151825000Y-79100000D03*
X150555000Y-79100000D03*
X149285000Y-79100000D03*
X148015000Y-79100000D03*
X146745000Y-79100000D03*
D12*
X154245000Y-86600000D03*
D13*
X233300000Y-71900000D03*
G36*
G01*
X140043750Y-124150000D02*
X140956250Y-124150000D01*
G75*
G02*
X141200000Y-124393750I0J-243750D01*
G01*
X141200000Y-124881250D01*
G75*
G02*
X140956250Y-125125000I-243750J0D01*
G01*
X140043750Y-125125000D01*
G75*
G02*
X139800000Y-124881250I0J243750D01*
G01*
X139800000Y-124393750D01*
G75*
G02*
X140043750Y-124150000I243750J0D01*
G01*
G37*
G36*
G01*
X140043750Y-122275000D02*
X140956250Y-122275000D01*
G75*
G02*
X141200000Y-122518750I0J-243750D01*
G01*
X141200000Y-123006250D01*
G75*
G02*
X140956250Y-123250000I-243750J0D01*
G01*
X140043750Y-123250000D01*
G75*
G02*
X139800000Y-123006250I0J243750D01*
G01*
X139800000Y-122518750D01*
G75*
G02*
X140043750Y-122275000I243750J0D01*
G01*
G37*
G36*
G01*
X171250000Y-95643750D02*
X171250000Y-96556250D01*
G75*
G02*
X171006250Y-96800000I-243750J0D01*
G01*
X170518750Y-96800000D01*
G75*
G02*
X170275000Y-96556250I0J243750D01*
G01*
X170275000Y-95643750D01*
G75*
G02*
X170518750Y-95400000I243750J0D01*
G01*
X171006250Y-95400000D01*
G75*
G02*
X171250000Y-95643750I0J-243750D01*
G01*
G37*
G36*
G01*
X173125000Y-95643750D02*
X173125000Y-96556250D01*
G75*
G02*
X172881250Y-96800000I-243750J0D01*
G01*
X172393750Y-96800000D01*
G75*
G02*
X172150000Y-96556250I0J243750D01*
G01*
X172150000Y-95643750D01*
G75*
G02*
X172393750Y-95400000I243750J0D01*
G01*
X172881250Y-95400000D01*
G75*
G02*
X173125000Y-95643750I0J-243750D01*
G01*
G37*
G36*
G01*
X168250000Y-87756250D02*
X168250000Y-86843750D01*
G75*
G02*
X168493750Y-86600000I243750J0D01*
G01*
X168981250Y-86600000D01*
G75*
G02*
X169225000Y-86843750I0J-243750D01*
G01*
X169225000Y-87756250D01*
G75*
G02*
X168981250Y-88000000I-243750J0D01*
G01*
X168493750Y-88000000D01*
G75*
G02*
X168250000Y-87756250I0J243750D01*
G01*
G37*
G36*
G01*
X166375000Y-87756250D02*
X166375000Y-86843750D01*
G75*
G02*
X166618750Y-86600000I243750J0D01*
G01*
X167106250Y-86600000D01*
G75*
G02*
X167350000Y-86843750I0J-243750D01*
G01*
X167350000Y-87756250D01*
G75*
G02*
X167106250Y-88000000I-243750J0D01*
G01*
X166618750Y-88000000D01*
G75*
G02*
X166375000Y-87756250I0J243750D01*
G01*
G37*
D14*
X143100000Y-70400000D03*
X139700000Y-70400000D03*
G36*
G01*
X134843750Y-126895000D02*
X135756250Y-126895000D01*
G75*
G02*
X136000000Y-127138750I0J-243750D01*
G01*
X136000000Y-127626250D01*
G75*
G02*
X135756250Y-127870000I-243750J0D01*
G01*
X134843750Y-127870000D01*
G75*
G02*
X134600000Y-127626250I0J243750D01*
G01*
X134600000Y-127138750D01*
G75*
G02*
X134843750Y-126895000I243750J0D01*
G01*
G37*
G36*
G01*
X134843750Y-128770000D02*
X135756250Y-128770000D01*
G75*
G02*
X136000000Y-129013750I0J-243750D01*
G01*
X136000000Y-129501250D01*
G75*
G02*
X135756250Y-129745000I-243750J0D01*
G01*
X134843750Y-129745000D01*
G75*
G02*
X134600000Y-129501250I0J243750D01*
G01*
X134600000Y-129013750D01*
G75*
G02*
X134843750Y-128770000I243750J0D01*
G01*
G37*
G36*
G01*
X138224999Y-128675000D02*
X138775001Y-128675000D01*
G75*
G02*
X139025000Y-128924999I0J-249999D01*
G01*
X139025000Y-129500001D01*
G75*
G02*
X138775001Y-129750000I-249999J0D01*
G01*
X138224999Y-129750000D01*
G75*
G02*
X137975000Y-129500001I0J249999D01*
G01*
X137975000Y-128924999D01*
G75*
G02*
X138224999Y-128675000I249999J0D01*
G01*
G37*
G36*
G01*
X138224999Y-127250000D02*
X138775001Y-127250000D01*
G75*
G02*
X139025000Y-127499999I0J-249999D01*
G01*
X139025000Y-128075001D01*
G75*
G02*
X138775001Y-128325000I-249999J0D01*
G01*
X138224999Y-128325000D01*
G75*
G02*
X137975000Y-128075001I0J249999D01*
G01*
X137975000Y-127499999D01*
G75*
G02*
X138224999Y-127250000I249999J0D01*
G01*
G37*
G36*
G01*
X148143750Y-134015000D02*
X149056250Y-134015000D01*
G75*
G02*
X149300000Y-134258750I0J-243750D01*
G01*
X149300000Y-134746250D01*
G75*
G02*
X149056250Y-134990000I-243750J0D01*
G01*
X148143750Y-134990000D01*
G75*
G02*
X147900000Y-134746250I0J243750D01*
G01*
X147900000Y-134258750D01*
G75*
G02*
X148143750Y-134015000I243750J0D01*
G01*
G37*
G36*
G01*
X148143750Y-132140000D02*
X149056250Y-132140000D01*
G75*
G02*
X149300000Y-132383750I0J-243750D01*
G01*
X149300000Y-132871250D01*
G75*
G02*
X149056250Y-133115000I-243750J0D01*
G01*
X148143750Y-133115000D01*
G75*
G02*
X147900000Y-132871250I0J243750D01*
G01*
X147900000Y-132383750D01*
G75*
G02*
X148143750Y-132140000I243750J0D01*
G01*
G37*
G36*
G01*
X150474999Y-133595000D02*
X151325001Y-133595000D01*
G75*
G02*
X151575000Y-133844999I0J-249999D01*
G01*
X151575000Y-134745001D01*
G75*
G02*
X151325001Y-134995000I-249999J0D01*
G01*
X150474999Y-134995000D01*
G75*
G02*
X150225000Y-134745001I0J249999D01*
G01*
X150225000Y-133844999D01*
G75*
G02*
X150474999Y-133595000I249999J0D01*
G01*
G37*
G36*
G01*
X150474999Y-130895000D02*
X151325001Y-130895000D01*
G75*
G02*
X151575000Y-131144999I0J-249999D01*
G01*
X151575000Y-132045001D01*
G75*
G02*
X151325001Y-132295000I-249999J0D01*
G01*
X150474999Y-132295000D01*
G75*
G02*
X150225000Y-132045001I0J249999D01*
G01*
X150225000Y-131144999D01*
G75*
G02*
X150474999Y-130895000I249999J0D01*
G01*
G37*
G36*
G01*
X169325000Y-95643750D02*
X169325000Y-96556250D01*
G75*
G02*
X169081250Y-96800000I-243750J0D01*
G01*
X168593750Y-96800000D01*
G75*
G02*
X168350000Y-96556250I0J243750D01*
G01*
X168350000Y-95643750D01*
G75*
G02*
X168593750Y-95400000I243750J0D01*
G01*
X169081250Y-95400000D01*
G75*
G02*
X169325000Y-95643750I0J-243750D01*
G01*
G37*
G36*
G01*
X167450000Y-95643750D02*
X167450000Y-96556250D01*
G75*
G02*
X167206250Y-96800000I-243750J0D01*
G01*
X166718750Y-96800000D01*
G75*
G02*
X166475000Y-96556250I0J243750D01*
G01*
X166475000Y-95643750D01*
G75*
G02*
X166718750Y-95400000I243750J0D01*
G01*
X167206250Y-95400000D01*
G75*
G02*
X167450000Y-95643750I0J-243750D01*
G01*
G37*
G36*
G01*
X171350000Y-86843750D02*
X171350000Y-87756250D01*
G75*
G02*
X171106250Y-88000000I-243750J0D01*
G01*
X170618750Y-88000000D01*
G75*
G02*
X170375000Y-87756250I0J243750D01*
G01*
X170375000Y-86843750D01*
G75*
G02*
X170618750Y-86600000I243750J0D01*
G01*
X171106250Y-86600000D01*
G75*
G02*
X171350000Y-86843750I0J-243750D01*
G01*
G37*
G36*
G01*
X173225000Y-86843750D02*
X173225000Y-87756250D01*
G75*
G02*
X172981250Y-88000000I-243750J0D01*
G01*
X172493750Y-88000000D01*
G75*
G02*
X172250000Y-87756250I0J243750D01*
G01*
X172250000Y-86843750D01*
G75*
G02*
X172493750Y-86600000I243750J0D01*
G01*
X172981250Y-86600000D01*
G75*
G02*
X173225000Y-86843750I0J-243750D01*
G01*
G37*
G36*
G01*
X149756250Y-75350000D02*
X148843750Y-75350000D01*
G75*
G02*
X148600000Y-75106250I0J243750D01*
G01*
X148600000Y-74618750D01*
G75*
G02*
X148843750Y-74375000I243750J0D01*
G01*
X149756250Y-74375000D01*
G75*
G02*
X150000000Y-74618750I0J-243750D01*
G01*
X150000000Y-75106250D01*
G75*
G02*
X149756250Y-75350000I-243750J0D01*
G01*
G37*
G36*
G01*
X149756250Y-77225000D02*
X148843750Y-77225000D01*
G75*
G02*
X148600000Y-76981250I0J243750D01*
G01*
X148600000Y-76493750D01*
G75*
G02*
X148843750Y-76250000I243750J0D01*
G01*
X149756250Y-76250000D01*
G75*
G02*
X150000000Y-76493750I0J-243750D01*
G01*
X150000000Y-76981250D01*
G75*
G02*
X149756250Y-77225000I-243750J0D01*
G01*
G37*
G36*
G01*
X156975000Y-77056250D02*
X156975000Y-76143750D01*
G75*
G02*
X157218750Y-75900000I243750J0D01*
G01*
X157706250Y-75900000D01*
G75*
G02*
X157950000Y-76143750I0J-243750D01*
G01*
X157950000Y-77056250D01*
G75*
G02*
X157706250Y-77300000I-243750J0D01*
G01*
X157218750Y-77300000D01*
G75*
G02*
X156975000Y-77056250I0J243750D01*
G01*
G37*
G36*
G01*
X158850000Y-77056250D02*
X158850000Y-76143750D01*
G75*
G02*
X159093750Y-75900000I243750J0D01*
G01*
X159581250Y-75900000D01*
G75*
G02*
X159825000Y-76143750I0J-243750D01*
G01*
X159825000Y-77056250D01*
G75*
G02*
X159581250Y-77300000I-243750J0D01*
G01*
X159093750Y-77300000D01*
G75*
G02*
X158850000Y-77056250I0J243750D01*
G01*
G37*
G36*
G01*
X156150000Y-73774999D02*
X156150000Y-74625001D01*
G75*
G02*
X155900001Y-74875000I-249999J0D01*
G01*
X154999999Y-74875000D01*
G75*
G02*
X154750000Y-74625001I0J249999D01*
G01*
X154750000Y-73774999D01*
G75*
G02*
X154999999Y-73525000I249999J0D01*
G01*
X155900001Y-73525000D01*
G75*
G02*
X156150000Y-73774999I0J-249999D01*
G01*
G37*
G36*
G01*
X153450000Y-73774999D02*
X153450000Y-74625001D01*
G75*
G02*
X153200001Y-74875000I-249999J0D01*
G01*
X152299999Y-74875000D01*
G75*
G02*
X152050000Y-74625001I0J249999D01*
G01*
X152050000Y-73774999D01*
G75*
G02*
X152299999Y-73525000I249999J0D01*
G01*
X153200001Y-73525000D01*
G75*
G02*
X153450000Y-73774999I0J-249999D01*
G01*
G37*
G36*
G01*
X158850000Y-74656250D02*
X158850000Y-73743750D01*
G75*
G02*
X159093750Y-73500000I243750J0D01*
G01*
X159581250Y-73500000D01*
G75*
G02*
X159825000Y-73743750I0J-243750D01*
G01*
X159825000Y-74656250D01*
G75*
G02*
X159581250Y-74900000I-243750J0D01*
G01*
X159093750Y-74900000D01*
G75*
G02*
X158850000Y-74656250I0J243750D01*
G01*
G37*
G36*
G01*
X156975000Y-74656250D02*
X156975000Y-73743750D01*
G75*
G02*
X157218750Y-73500000I243750J0D01*
G01*
X157706250Y-73500000D01*
G75*
G02*
X157950000Y-73743750I0J-243750D01*
G01*
X157950000Y-74656250D01*
G75*
G02*
X157706250Y-74900000I-243750J0D01*
G01*
X157218750Y-74900000D01*
G75*
G02*
X156975000Y-74656250I0J243750D01*
G01*
G37*
G36*
G01*
X147475001Y-76850000D02*
X146924999Y-76850000D01*
G75*
G02*
X146675000Y-76600001I0J249999D01*
G01*
X146675000Y-76024999D01*
G75*
G02*
X146924999Y-75775000I249999J0D01*
G01*
X147475001Y-75775000D01*
G75*
G02*
X147725000Y-76024999I0J-249999D01*
G01*
X147725000Y-76600001D01*
G75*
G02*
X147475001Y-76850000I-249999J0D01*
G01*
G37*
G36*
G01*
X147475001Y-75425000D02*
X146924999Y-75425000D01*
G75*
G02*
X146675000Y-75175001I0J249999D01*
G01*
X146675000Y-74599999D01*
G75*
G02*
X146924999Y-74350000I249999J0D01*
G01*
X147475001Y-74350000D01*
G75*
G02*
X147725000Y-74599999I0J-249999D01*
G01*
X147725000Y-75175001D01*
G75*
G02*
X147475001Y-75425000I-249999J0D01*
G01*
G37*
G36*
G01*
X138125000Y-120550000D02*
X138125000Y-121350000D01*
G75*
G02*
X137875000Y-121600000I-250000J0D01*
G01*
X137050000Y-121600000D01*
G75*
G02*
X136800000Y-121350000I0J250000D01*
G01*
X136800000Y-120550000D01*
G75*
G02*
X137050000Y-120300000I250000J0D01*
G01*
X137875000Y-120300000D01*
G75*
G02*
X138125000Y-120550000I0J-250000D01*
G01*
G37*
G36*
G01*
X136200000Y-120550000D02*
X136200000Y-121350000D01*
G75*
G02*
X135950000Y-121600000I-250000J0D01*
G01*
X135125000Y-121600000D01*
G75*
G02*
X134875000Y-121350000I0J250000D01*
G01*
X134875000Y-120550000D01*
G75*
G02*
X135125000Y-120300000I250000J0D01*
G01*
X135950000Y-120300000D01*
G75*
G02*
X136200000Y-120550000I0J-250000D01*
G01*
G37*
G36*
G01*
X147625000Y-106375000D02*
X147625000Y-107625000D01*
G75*
G02*
X147375000Y-107875000I-250000J0D01*
G01*
X146625000Y-107875000D01*
G75*
G02*
X146375000Y-107625000I0J250000D01*
G01*
X146375000Y-106375000D01*
G75*
G02*
X146625000Y-106125000I250000J0D01*
G01*
X147375000Y-106125000D01*
G75*
G02*
X147625000Y-106375000I0J-250000D01*
G01*
G37*
G36*
G01*
X144825000Y-106375000D02*
X144825000Y-107625000D01*
G75*
G02*
X144575000Y-107875000I-250000J0D01*
G01*
X143825000Y-107875000D01*
G75*
G02*
X143575000Y-107625000I0J250000D01*
G01*
X143575000Y-106375000D01*
G75*
G02*
X143825000Y-106125000I250000J0D01*
G01*
X144575000Y-106125000D01*
G75*
G02*
X144825000Y-106375000I0J-250000D01*
G01*
G37*
D15*
X172700000Y-91650000D03*
X170700000Y-90700000D03*
X170700000Y-92600000D03*
X166800000Y-92550000D03*
X166800000Y-90650000D03*
X168800000Y-91600000D03*
G36*
G01*
X142050000Y-117300000D02*
X144150000Y-117300000D01*
G75*
G02*
X144400000Y-117550000I0J-250000D01*
G01*
X144400000Y-119650000D01*
G75*
G02*
X144150000Y-119900000I-250000J0D01*
G01*
X142050000Y-119900000D01*
G75*
G02*
X141800000Y-119650000I0J250000D01*
G01*
X141800000Y-117550000D01*
G75*
G02*
X142050000Y-117300000I250000J0D01*
G01*
G37*
G36*
G01*
X141787500Y-116250000D02*
X141912500Y-116250000D01*
G75*
G02*
X141975000Y-116312500I0J-62500D01*
G01*
X141975000Y-117012500D01*
G75*
G02*
X141912500Y-117075000I-62500J0D01*
G01*
X141787500Y-117075000D01*
G75*
G02*
X141725000Y-117012500I0J62500D01*
G01*
X141725000Y-116312500D01*
G75*
G02*
X141787500Y-116250000I62500J0D01*
G01*
G37*
G36*
G01*
X142287500Y-116250000D02*
X142412500Y-116250000D01*
G75*
G02*
X142475000Y-116312500I0J-62500D01*
G01*
X142475000Y-117012500D01*
G75*
G02*
X142412500Y-117075000I-62500J0D01*
G01*
X142287500Y-117075000D01*
G75*
G02*
X142225000Y-117012500I0J62500D01*
G01*
X142225000Y-116312500D01*
G75*
G02*
X142287500Y-116250000I62500J0D01*
G01*
G37*
G36*
G01*
X142787500Y-116250000D02*
X142912500Y-116250000D01*
G75*
G02*
X142975000Y-116312500I0J-62500D01*
G01*
X142975000Y-117012500D01*
G75*
G02*
X142912500Y-117075000I-62500J0D01*
G01*
X142787500Y-117075000D01*
G75*
G02*
X142725000Y-117012500I0J62500D01*
G01*
X142725000Y-116312500D01*
G75*
G02*
X142787500Y-116250000I62500J0D01*
G01*
G37*
G36*
G01*
X143287500Y-116250000D02*
X143412500Y-116250000D01*
G75*
G02*
X143475000Y-116312500I0J-62500D01*
G01*
X143475000Y-117012500D01*
G75*
G02*
X143412500Y-117075000I-62500J0D01*
G01*
X143287500Y-117075000D01*
G75*
G02*
X143225000Y-117012500I0J62500D01*
G01*
X143225000Y-116312500D01*
G75*
G02*
X143287500Y-116250000I62500J0D01*
G01*
G37*
G36*
G01*
X143787500Y-116250000D02*
X143912500Y-116250000D01*
G75*
G02*
X143975000Y-116312500I0J-62500D01*
G01*
X143975000Y-117012500D01*
G75*
G02*
X143912500Y-117075000I-62500J0D01*
G01*
X143787500Y-117075000D01*
G75*
G02*
X143725000Y-117012500I0J62500D01*
G01*
X143725000Y-116312500D01*
G75*
G02*
X143787500Y-116250000I62500J0D01*
G01*
G37*
G36*
G01*
X144287500Y-116250000D02*
X144412500Y-116250000D01*
G75*
G02*
X144475000Y-116312500I0J-62500D01*
G01*
X144475000Y-117012500D01*
G75*
G02*
X144412500Y-117075000I-62500J0D01*
G01*
X144287500Y-117075000D01*
G75*
G02*
X144225000Y-117012500I0J62500D01*
G01*
X144225000Y-116312500D01*
G75*
G02*
X144287500Y-116250000I62500J0D01*
G01*
G37*
G36*
G01*
X144687500Y-117225000D02*
X145387500Y-117225000D01*
G75*
G02*
X145450000Y-117287500I0J-62500D01*
G01*
X145450000Y-117412500D01*
G75*
G02*
X145387500Y-117475000I-62500J0D01*
G01*
X144687500Y-117475000D01*
G75*
G02*
X144625000Y-117412500I0J62500D01*
G01*
X144625000Y-117287500D01*
G75*
G02*
X144687500Y-117225000I62500J0D01*
G01*
G37*
G36*
G01*
X144687500Y-117725000D02*
X145387500Y-117725000D01*
G75*
G02*
X145450000Y-117787500I0J-62500D01*
G01*
X145450000Y-117912500D01*
G75*
G02*
X145387500Y-117975000I-62500J0D01*
G01*
X144687500Y-117975000D01*
G75*
G02*
X144625000Y-117912500I0J62500D01*
G01*
X144625000Y-117787500D01*
G75*
G02*
X144687500Y-117725000I62500J0D01*
G01*
G37*
G36*
G01*
X144687500Y-118225000D02*
X145387500Y-118225000D01*
G75*
G02*
X145450000Y-118287500I0J-62500D01*
G01*
X145450000Y-118412500D01*
G75*
G02*
X145387500Y-118475000I-62500J0D01*
G01*
X144687500Y-118475000D01*
G75*
G02*
X144625000Y-118412500I0J62500D01*
G01*
X144625000Y-118287500D01*
G75*
G02*
X144687500Y-118225000I62500J0D01*
G01*
G37*
G36*
G01*
X144687500Y-118725000D02*
X145387500Y-118725000D01*
G75*
G02*
X145450000Y-118787500I0J-62500D01*
G01*
X145450000Y-118912500D01*
G75*
G02*
X145387500Y-118975000I-62500J0D01*
G01*
X144687500Y-118975000D01*
G75*
G02*
X144625000Y-118912500I0J62500D01*
G01*
X144625000Y-118787500D01*
G75*
G02*
X144687500Y-118725000I62500J0D01*
G01*
G37*
G36*
G01*
X144687500Y-119225000D02*
X145387500Y-119225000D01*
G75*
G02*
X145450000Y-119287500I0J-62500D01*
G01*
X145450000Y-119412500D01*
G75*
G02*
X145387500Y-119475000I-62500J0D01*
G01*
X144687500Y-119475000D01*
G75*
G02*
X144625000Y-119412500I0J62500D01*
G01*
X144625000Y-119287500D01*
G75*
G02*
X144687500Y-119225000I62500J0D01*
G01*
G37*
G36*
G01*
X144687500Y-119725000D02*
X145387500Y-119725000D01*
G75*
G02*
X145450000Y-119787500I0J-62500D01*
G01*
X145450000Y-119912500D01*
G75*
G02*
X145387500Y-119975000I-62500J0D01*
G01*
X144687500Y-119975000D01*
G75*
G02*
X144625000Y-119912500I0J62500D01*
G01*
X144625000Y-119787500D01*
G75*
G02*
X144687500Y-119725000I62500J0D01*
G01*
G37*
G36*
G01*
X144287500Y-120125000D02*
X144412500Y-120125000D01*
G75*
G02*
X144475000Y-120187500I0J-62500D01*
G01*
X144475000Y-120887500D01*
G75*
G02*
X144412500Y-120950000I-62500J0D01*
G01*
X144287500Y-120950000D01*
G75*
G02*
X144225000Y-120887500I0J62500D01*
G01*
X144225000Y-120187500D01*
G75*
G02*
X144287500Y-120125000I62500J0D01*
G01*
G37*
G36*
G01*
X143787500Y-120125000D02*
X143912500Y-120125000D01*
G75*
G02*
X143975000Y-120187500I0J-62500D01*
G01*
X143975000Y-120887500D01*
G75*
G02*
X143912500Y-120950000I-62500J0D01*
G01*
X143787500Y-120950000D01*
G75*
G02*
X143725000Y-120887500I0J62500D01*
G01*
X143725000Y-120187500D01*
G75*
G02*
X143787500Y-120125000I62500J0D01*
G01*
G37*
G36*
G01*
X143287500Y-120125000D02*
X143412500Y-120125000D01*
G75*
G02*
X143475000Y-120187500I0J-62500D01*
G01*
X143475000Y-120887500D01*
G75*
G02*
X143412500Y-120950000I-62500J0D01*
G01*
X143287500Y-120950000D01*
G75*
G02*
X143225000Y-120887500I0J62500D01*
G01*
X143225000Y-120187500D01*
G75*
G02*
X143287500Y-120125000I62500J0D01*
G01*
G37*
G36*
G01*
X142787500Y-120125000D02*
X142912500Y-120125000D01*
G75*
G02*
X142975000Y-120187500I0J-62500D01*
G01*
X142975000Y-120887500D01*
G75*
G02*
X142912500Y-120950000I-62500J0D01*
G01*
X142787500Y-120950000D01*
G75*
G02*
X142725000Y-120887500I0J62500D01*
G01*
X142725000Y-120187500D01*
G75*
G02*
X142787500Y-120125000I62500J0D01*
G01*
G37*
G36*
G01*
X142287500Y-120125000D02*
X142412500Y-120125000D01*
G75*
G02*
X142475000Y-120187500I0J-62500D01*
G01*
X142475000Y-120887500D01*
G75*
G02*
X142412500Y-120950000I-62500J0D01*
G01*
X142287500Y-120950000D01*
G75*
G02*
X142225000Y-120887500I0J62500D01*
G01*
X142225000Y-120187500D01*
G75*
G02*
X142287500Y-120125000I62500J0D01*
G01*
G37*
G36*
G01*
X141787500Y-120125000D02*
X141912500Y-120125000D01*
G75*
G02*
X141975000Y-120187500I0J-62500D01*
G01*
X141975000Y-120887500D01*
G75*
G02*
X141912500Y-120950000I-62500J0D01*
G01*
X141787500Y-120950000D01*
G75*
G02*
X141725000Y-120887500I0J62500D01*
G01*
X141725000Y-120187500D01*
G75*
G02*
X141787500Y-120125000I62500J0D01*
G01*
G37*
G36*
G01*
X140812500Y-119725000D02*
X141512500Y-119725000D01*
G75*
G02*
X141575000Y-119787500I0J-62500D01*
G01*
X141575000Y-119912500D01*
G75*
G02*
X141512500Y-119975000I-62500J0D01*
G01*
X140812500Y-119975000D01*
G75*
G02*
X140750000Y-119912500I0J62500D01*
G01*
X140750000Y-119787500D01*
G75*
G02*
X140812500Y-119725000I62500J0D01*
G01*
G37*
G36*
G01*
X140812500Y-119225000D02*
X141512500Y-119225000D01*
G75*
G02*
X141575000Y-119287500I0J-62500D01*
G01*
X141575000Y-119412500D01*
G75*
G02*
X141512500Y-119475000I-62500J0D01*
G01*
X140812500Y-119475000D01*
G75*
G02*
X140750000Y-119412500I0J62500D01*
G01*
X140750000Y-119287500D01*
G75*
G02*
X140812500Y-119225000I62500J0D01*
G01*
G37*
G36*
G01*
X140812500Y-118725000D02*
X141512500Y-118725000D01*
G75*
G02*
X141575000Y-118787500I0J-62500D01*
G01*
X141575000Y-118912500D01*
G75*
G02*
X141512500Y-118975000I-62500J0D01*
G01*
X140812500Y-118975000D01*
G75*
G02*
X140750000Y-118912500I0J62500D01*
G01*
X140750000Y-118787500D01*
G75*
G02*
X140812500Y-118725000I62500J0D01*
G01*
G37*
G36*
G01*
X140812500Y-118225000D02*
X141512500Y-118225000D01*
G75*
G02*
X141575000Y-118287500I0J-62500D01*
G01*
X141575000Y-118412500D01*
G75*
G02*
X141512500Y-118475000I-62500J0D01*
G01*
X140812500Y-118475000D01*
G75*
G02*
X140750000Y-118412500I0J62500D01*
G01*
X140750000Y-118287500D01*
G75*
G02*
X140812500Y-118225000I62500J0D01*
G01*
G37*
G36*
G01*
X140812500Y-117725000D02*
X141512500Y-117725000D01*
G75*
G02*
X141575000Y-117787500I0J-62500D01*
G01*
X141575000Y-117912500D01*
G75*
G02*
X141512500Y-117975000I-62500J0D01*
G01*
X140812500Y-117975000D01*
G75*
G02*
X140750000Y-117912500I0J62500D01*
G01*
X140750000Y-117787500D01*
G75*
G02*
X140812500Y-117725000I62500J0D01*
G01*
G37*
G36*
G01*
X140812500Y-117225000D02*
X141512500Y-117225000D01*
G75*
G02*
X141575000Y-117287500I0J-62500D01*
G01*
X141575000Y-117412500D01*
G75*
G02*
X141512500Y-117475000I-62500J0D01*
G01*
X140812500Y-117475000D01*
G75*
G02*
X140750000Y-117412500I0J62500D01*
G01*
X140750000Y-117287500D01*
G75*
G02*
X140812500Y-117225000I62500J0D01*
G01*
G37*
G36*
G01*
X135156250Y-109025000D02*
X134243750Y-109025000D01*
G75*
G02*
X134000000Y-108781250I0J243750D01*
G01*
X134000000Y-108293750D01*
G75*
G02*
X134243750Y-108050000I243750J0D01*
G01*
X135156250Y-108050000D01*
G75*
G02*
X135400000Y-108293750I0J-243750D01*
G01*
X135400000Y-108781250D01*
G75*
G02*
X135156250Y-109025000I-243750J0D01*
G01*
G37*
G36*
G01*
X135156250Y-107150000D02*
X134243750Y-107150000D01*
G75*
G02*
X134000000Y-106906250I0J243750D01*
G01*
X134000000Y-106418750D01*
G75*
G02*
X134243750Y-106175000I243750J0D01*
G01*
X135156250Y-106175000D01*
G75*
G02*
X135400000Y-106418750I0J-243750D01*
G01*
X135400000Y-106906250D01*
G75*
G02*
X135156250Y-107150000I-243750J0D01*
G01*
G37*
G36*
G01*
X148875001Y-129550000D02*
X148324999Y-129550000D01*
G75*
G02*
X148075000Y-129300001I0J249999D01*
G01*
X148075000Y-128724999D01*
G75*
G02*
X148324999Y-128475000I249999J0D01*
G01*
X148875001Y-128475000D01*
G75*
G02*
X149125000Y-128724999I0J-249999D01*
G01*
X149125000Y-129300001D01*
G75*
G02*
X148875001Y-129550000I-249999J0D01*
G01*
G37*
G36*
G01*
X148875001Y-128125000D02*
X148324999Y-128125000D01*
G75*
G02*
X148075000Y-127875001I0J249999D01*
G01*
X148075000Y-127299999D01*
G75*
G02*
X148324999Y-127050000I249999J0D01*
G01*
X148875001Y-127050000D01*
G75*
G02*
X149125000Y-127299999I0J-249999D01*
G01*
X149125000Y-127875001D01*
G75*
G02*
X148875001Y-128125000I-249999J0D01*
G01*
G37*
G36*
G01*
X138125000Y-124350000D02*
X138125000Y-125150000D01*
G75*
G02*
X137875000Y-125400000I-250000J0D01*
G01*
X137050000Y-125400000D01*
G75*
G02*
X136800000Y-125150000I0J250000D01*
G01*
X136800000Y-124350000D01*
G75*
G02*
X137050000Y-124100000I250000J0D01*
G01*
X137875000Y-124100000D01*
G75*
G02*
X138125000Y-124350000I0J-250000D01*
G01*
G37*
G36*
G01*
X136200000Y-124350000D02*
X136200000Y-125150000D01*
G75*
G02*
X135950000Y-125400000I-250000J0D01*
G01*
X135125000Y-125400000D01*
G75*
G02*
X134875000Y-125150000I0J250000D01*
G01*
X134875000Y-124350000D01*
G75*
G02*
X135125000Y-124100000I250000J0D01*
G01*
X135950000Y-124100000D01*
G75*
G02*
X136200000Y-124350000I0J-250000D01*
G01*
G37*
D16*
X144570000Y-113200000D03*
D17*
X142850000Y-113200000D03*
X142850000Y-111000000D03*
X144750000Y-111000000D03*
D13*
X136300000Y-134800000D03*
D18*
X138262500Y-111500000D03*
X138262500Y-116500000D03*
D19*
X135562500Y-110500000D03*
X135562500Y-117500000D03*
G36*
G01*
X148993750Y-115712500D02*
X149906250Y-115712500D01*
G75*
G02*
X150150000Y-115956250I0J-243750D01*
G01*
X150150000Y-116443750D01*
G75*
G02*
X149906250Y-116687500I-243750J0D01*
G01*
X148993750Y-116687500D01*
G75*
G02*
X148750000Y-116443750I0J243750D01*
G01*
X148750000Y-115956250D01*
G75*
G02*
X148993750Y-115712500I243750J0D01*
G01*
G37*
G36*
G01*
X148993750Y-117587500D02*
X149906250Y-117587500D01*
G75*
G02*
X150150000Y-117831250I0J-243750D01*
G01*
X150150000Y-118318750D01*
G75*
G02*
X149906250Y-118562500I-243750J0D01*
G01*
X148993750Y-118562500D01*
G75*
G02*
X148750000Y-118318750I0J243750D01*
G01*
X148750000Y-117831250D01*
G75*
G02*
X148993750Y-117587500I243750J0D01*
G01*
G37*
G36*
G01*
X147856250Y-113225000D02*
X146943750Y-113225000D01*
G75*
G02*
X146700000Y-112981250I0J243750D01*
G01*
X146700000Y-112493750D01*
G75*
G02*
X146943750Y-112250000I243750J0D01*
G01*
X147856250Y-112250000D01*
G75*
G02*
X148100000Y-112493750I0J-243750D01*
G01*
X148100000Y-112981250D01*
G75*
G02*
X147856250Y-113225000I-243750J0D01*
G01*
G37*
G36*
G01*
X147856250Y-111350000D02*
X146943750Y-111350000D01*
G75*
G02*
X146700000Y-111106250I0J243750D01*
G01*
X146700000Y-110618750D01*
G75*
G02*
X146943750Y-110375000I243750J0D01*
G01*
X147856250Y-110375000D01*
G75*
G02*
X148100000Y-110618750I0J-243750D01*
G01*
X148100000Y-111106250D01*
G75*
G02*
X147856250Y-111350000I-243750J0D01*
G01*
G37*
G36*
G01*
X135156250Y-105325000D02*
X134243750Y-105325000D01*
G75*
G02*
X134000000Y-105081250I0J243750D01*
G01*
X134000000Y-104593750D01*
G75*
G02*
X134243750Y-104350000I243750J0D01*
G01*
X135156250Y-104350000D01*
G75*
G02*
X135400000Y-104593750I0J-243750D01*
G01*
X135400000Y-105081250D01*
G75*
G02*
X135156250Y-105325000I-243750J0D01*
G01*
G37*
G36*
G01*
X135156250Y-103450000D02*
X134243750Y-103450000D01*
G75*
G02*
X134000000Y-103206250I0J243750D01*
G01*
X134000000Y-102718750D01*
G75*
G02*
X134243750Y-102475000I243750J0D01*
G01*
X135156250Y-102475000D01*
G75*
G02*
X135400000Y-102718750I0J-243750D01*
G01*
X135400000Y-103206250D01*
G75*
G02*
X135156250Y-103450000I-243750J0D01*
G01*
G37*
G36*
G01*
X147856250Y-116700000D02*
X146943750Y-116700000D01*
G75*
G02*
X146700000Y-116456250I0J243750D01*
G01*
X146700000Y-115968750D01*
G75*
G02*
X146943750Y-115725000I243750J0D01*
G01*
X147856250Y-115725000D01*
G75*
G02*
X148100000Y-115968750I0J-243750D01*
G01*
X148100000Y-116456250D01*
G75*
G02*
X147856250Y-116700000I-243750J0D01*
G01*
G37*
G36*
G01*
X147856250Y-118575000D02*
X146943750Y-118575000D01*
G75*
G02*
X146700000Y-118331250I0J243750D01*
G01*
X146700000Y-117843750D01*
G75*
G02*
X146943750Y-117600000I243750J0D01*
G01*
X147856250Y-117600000D01*
G75*
G02*
X148100000Y-117843750I0J-243750D01*
G01*
X148100000Y-118331250D01*
G75*
G02*
X147856250Y-118575000I-243750J0D01*
G01*
G37*
G36*
G01*
X153050000Y-76143750D02*
X153050000Y-77056250D01*
G75*
G02*
X152806250Y-77300000I-243750J0D01*
G01*
X152318750Y-77300000D01*
G75*
G02*
X152075000Y-77056250I0J243750D01*
G01*
X152075000Y-76143750D01*
G75*
G02*
X152318750Y-75900000I243750J0D01*
G01*
X152806250Y-75900000D01*
G75*
G02*
X153050000Y-76143750I0J-243750D01*
G01*
G37*
G36*
G01*
X154925000Y-76143750D02*
X154925000Y-77056250D01*
G75*
G02*
X154681250Y-77300000I-243750J0D01*
G01*
X154193750Y-77300000D01*
G75*
G02*
X153950000Y-77056250I0J243750D01*
G01*
X153950000Y-76143750D01*
G75*
G02*
X154193750Y-75900000I243750J0D01*
G01*
X154681250Y-75900000D01*
G75*
G02*
X154925000Y-76143750I0J-243750D01*
G01*
G37*
G36*
G01*
X148050000Y-102306250D02*
X148050000Y-101393750D01*
G75*
G02*
X148293750Y-101150000I243750J0D01*
G01*
X148781250Y-101150000D01*
G75*
G02*
X149025000Y-101393750I0J-243750D01*
G01*
X149025000Y-102306250D01*
G75*
G02*
X148781250Y-102550000I-243750J0D01*
G01*
X148293750Y-102550000D01*
G75*
G02*
X148050000Y-102306250I0J243750D01*
G01*
G37*
G36*
G01*
X146175000Y-102306250D02*
X146175000Y-101393750D01*
G75*
G02*
X146418750Y-101150000I243750J0D01*
G01*
X146906250Y-101150000D01*
G75*
G02*
X147150000Y-101393750I0J-243750D01*
G01*
X147150000Y-102306250D01*
G75*
G02*
X146906250Y-102550000I-243750J0D01*
G01*
X146418750Y-102550000D01*
G75*
G02*
X146175000Y-102306250I0J243750D01*
G01*
G37*
G36*
G01*
X149775000Y-102306250D02*
X149775000Y-101393750D01*
G75*
G02*
X150018750Y-101150000I243750J0D01*
G01*
X150506250Y-101150000D01*
G75*
G02*
X150750000Y-101393750I0J-243750D01*
G01*
X150750000Y-102306250D01*
G75*
G02*
X150506250Y-102550000I-243750J0D01*
G01*
X150018750Y-102550000D01*
G75*
G02*
X149775000Y-102306250I0J243750D01*
G01*
G37*
G36*
G01*
X151650000Y-102306250D02*
X151650000Y-101393750D01*
G75*
G02*
X151893750Y-101150000I243750J0D01*
G01*
X152381250Y-101150000D01*
G75*
G02*
X152625000Y-101393750I0J-243750D01*
G01*
X152625000Y-102306250D01*
G75*
G02*
X152381250Y-102550000I-243750J0D01*
G01*
X151893750Y-102550000D01*
G75*
G02*
X151650000Y-102306250I0J243750D01*
G01*
G37*
G36*
G01*
X143956250Y-125125000D02*
X143043750Y-125125000D01*
G75*
G02*
X142800000Y-124881250I0J243750D01*
G01*
X142800000Y-124393750D01*
G75*
G02*
X143043750Y-124150000I243750J0D01*
G01*
X143956250Y-124150000D01*
G75*
G02*
X144200000Y-124393750I0J-243750D01*
G01*
X144200000Y-124881250D01*
G75*
G02*
X143956250Y-125125000I-243750J0D01*
G01*
G37*
G36*
G01*
X143956250Y-123250000D02*
X143043750Y-123250000D01*
G75*
G02*
X142800000Y-123006250I0J243750D01*
G01*
X142800000Y-122518750D01*
G75*
G02*
X143043750Y-122275000I243750J0D01*
G01*
X143956250Y-122275000D01*
G75*
G02*
X144200000Y-122518750I0J-243750D01*
G01*
X144200000Y-123006250D01*
G75*
G02*
X143956250Y-123250000I-243750J0D01*
G01*
G37*
G36*
G01*
X147356250Y-123250000D02*
X146443750Y-123250000D01*
G75*
G02*
X146200000Y-123006250I0J243750D01*
G01*
X146200000Y-122518750D01*
G75*
G02*
X146443750Y-122275000I243750J0D01*
G01*
X147356250Y-122275000D01*
G75*
G02*
X147600000Y-122518750I0J-243750D01*
G01*
X147600000Y-123006250D01*
G75*
G02*
X147356250Y-123250000I-243750J0D01*
G01*
G37*
G36*
G01*
X147356250Y-125125000D02*
X146443750Y-125125000D01*
G75*
G02*
X146200000Y-124881250I0J243750D01*
G01*
X146200000Y-124393750D01*
G75*
G02*
X146443750Y-124150000I243750J0D01*
G01*
X147356250Y-124150000D01*
G75*
G02*
X147600000Y-124393750I0J-243750D01*
G01*
X147600000Y-124881250D01*
G75*
G02*
X147356250Y-125125000I-243750J0D01*
G01*
G37*
D14*
X139700000Y-104200000D03*
X143100000Y-104200000D03*
D20*
X143500000Y-134650000D03*
D21*
X143500000Y-128350000D03*
X145800000Y-128350000D03*
X141200000Y-128350000D03*
M02*
