G04 #@! TF.GenerationSoftware,KiCad,Pcbnew,(5.1.9)-1*
G04 #@! TF.CreationDate,2021-06-06T22:24:57-05:00*
G04 #@! TF.ProjectId,AirCloud,41697243-6c6f-4756-942e-6b696361645f,rev?*
G04 #@! TF.SameCoordinates,Original*
G04 #@! TF.FileFunction,Soldermask,Top*
G04 #@! TF.FilePolarity,Negative*
%FSLAX46Y46*%
G04 Gerber Fmt 4.6, Leading zero omitted, Abs format (unit mm)*
G04 Created by KiCad (PCBNEW (5.1.9)-1) date 2021-06-06 22:24:58*
%MOMM*%
%LPD*%
G01*
G04 APERTURE LIST*
%ADD10R,0.700000X0.700000*%
%ADD11C,3.200000*%
%ADD12R,1.900000X1.500000*%
%ADD13C,1.450000*%
%ADD14R,1.350000X0.400000*%
%ADD15O,1.900000X1.200000*%
%ADD16R,1.900000X1.200000*%
G04 APERTURE END LIST*
D10*
X145885000Y-73150000D03*
X145885000Y-74250000D03*
X147715000Y-74250000D03*
X147715000Y-73150000D03*
X204715000Y-120450000D03*
X204715000Y-119350000D03*
X202885000Y-119350000D03*
X202885000Y-120450000D03*
X202885000Y-100250000D03*
X202885000Y-99150000D03*
X204715000Y-99150000D03*
X204715000Y-100250000D03*
X179785000Y-96850000D03*
X179785000Y-95750000D03*
X181615000Y-95750000D03*
X181615000Y-96850000D03*
X200315000Y-100250000D03*
X200315000Y-99150000D03*
X198485000Y-99150000D03*
X198485000Y-100250000D03*
X145885000Y-79050000D03*
X145885000Y-80150000D03*
X147715000Y-80150000D03*
X147715000Y-79050000D03*
X145885000Y-85650000D03*
X145885000Y-86750000D03*
X147715000Y-86750000D03*
X147715000Y-85650000D03*
X145885000Y-91850000D03*
X145885000Y-92950000D03*
X147715000Y-92950000D03*
X147715000Y-91850000D03*
D11*
X233300000Y-71900000D03*
X136300000Y-134800000D03*
D12*
X135562500Y-115000000D03*
D13*
X138262500Y-111500000D03*
D14*
X138262500Y-113350000D03*
X138262500Y-112700000D03*
X138262500Y-115300000D03*
X138262500Y-114650000D03*
X138262500Y-114000000D03*
D13*
X138262500Y-116500000D03*
D12*
X135562500Y-113000000D03*
D15*
X135562500Y-110500000D03*
X135562500Y-117500000D03*
D16*
X135562500Y-116900000D03*
X135562500Y-111100000D03*
D10*
X191165000Y-86900000D03*
X191165000Y-85800000D03*
X189335000Y-85800000D03*
X189335000Y-86900000D03*
X194135000Y-86900000D03*
X194135000Y-85800000D03*
X195965000Y-85800000D03*
X195965000Y-86900000D03*
X186365000Y-90150000D03*
X186365000Y-89050000D03*
X184535000Y-89050000D03*
X184535000Y-90150000D03*
X189335000Y-90150000D03*
X189335000Y-89050000D03*
X191165000Y-89050000D03*
X191165000Y-90150000D03*
X195965000Y-90150000D03*
X195965000Y-89050000D03*
X194135000Y-89050000D03*
X194135000Y-90150000D03*
X198485000Y-90150000D03*
X198485000Y-89050000D03*
X200315000Y-89050000D03*
X200315000Y-90150000D03*
X179785000Y-93500000D03*
X179785000Y-92400000D03*
X181615000Y-92400000D03*
X181615000Y-93500000D03*
X186365000Y-93500000D03*
X186365000Y-92400000D03*
X184535000Y-92400000D03*
X184535000Y-93500000D03*
X189335000Y-93500000D03*
X189335000Y-92400000D03*
X191165000Y-92400000D03*
X191165000Y-93500000D03*
X195965000Y-93500000D03*
X195965000Y-92400000D03*
X194135000Y-92400000D03*
X194135000Y-93500000D03*
X198485000Y-93500000D03*
X198485000Y-92400000D03*
X200315000Y-92400000D03*
X200315000Y-93500000D03*
X204715000Y-93500000D03*
X204715000Y-92400000D03*
X202885000Y-92400000D03*
X202885000Y-93500000D03*
X175185000Y-96850000D03*
X175185000Y-95750000D03*
X177015000Y-95750000D03*
X177015000Y-96850000D03*
X184535000Y-96850000D03*
X184535000Y-95750000D03*
X186365000Y-95750000D03*
X186365000Y-96850000D03*
X191165000Y-96850000D03*
X191165000Y-95750000D03*
X189335000Y-95750000D03*
X189335000Y-96850000D03*
X194135000Y-96850000D03*
X194135000Y-95750000D03*
X195965000Y-95750000D03*
X195965000Y-96850000D03*
X200315000Y-96850000D03*
X200315000Y-95750000D03*
X198485000Y-95750000D03*
X198485000Y-96850000D03*
X202885000Y-96850000D03*
X202885000Y-95750000D03*
X204715000Y-95750000D03*
X204715000Y-96850000D03*
X209315000Y-96850000D03*
X209315000Y-95750000D03*
X207485000Y-95750000D03*
X207485000Y-96850000D03*
X161535000Y-100250000D03*
X161535000Y-99150000D03*
X163365000Y-99150000D03*
X163365000Y-100250000D03*
X167865000Y-100250000D03*
X167865000Y-99150000D03*
X166035000Y-99150000D03*
X166035000Y-100250000D03*
X172515000Y-100250000D03*
X172515000Y-99150000D03*
X170685000Y-99150000D03*
X170685000Y-100250000D03*
X177015000Y-100250000D03*
X177015000Y-99150000D03*
X175185000Y-99150000D03*
X175185000Y-100250000D03*
X179785000Y-100250000D03*
X179785000Y-99150000D03*
X181615000Y-99150000D03*
X181615000Y-100250000D03*
X186365000Y-100250000D03*
X186365000Y-99150000D03*
X184535000Y-99150000D03*
X184535000Y-100250000D03*
X189335000Y-100250000D03*
X189335000Y-99150000D03*
X191165000Y-99150000D03*
X191165000Y-100250000D03*
X195965000Y-100250000D03*
X195965000Y-99150000D03*
X194135000Y-99150000D03*
X194135000Y-100250000D03*
X209315000Y-100250000D03*
X209315000Y-99150000D03*
X207485000Y-99150000D03*
X207485000Y-100250000D03*
X156835000Y-103550000D03*
X156835000Y-102450000D03*
X158665000Y-102450000D03*
X158665000Y-103550000D03*
X163365000Y-103500000D03*
X163365000Y-102400000D03*
X161535000Y-102400000D03*
X161535000Y-103500000D03*
X166035000Y-103500000D03*
X166035000Y-102400000D03*
X167865000Y-102400000D03*
X167865000Y-103500000D03*
X170685000Y-103500000D03*
X170685000Y-102400000D03*
X172515000Y-102400000D03*
X172515000Y-103500000D03*
X175185000Y-103500000D03*
X175185000Y-102400000D03*
X177015000Y-102400000D03*
X177015000Y-103500000D03*
X181615000Y-103500000D03*
X181615000Y-102400000D03*
X179785000Y-102400000D03*
X179785000Y-103500000D03*
X184535000Y-103500000D03*
X184535000Y-102400000D03*
X186365000Y-102400000D03*
X186365000Y-103500000D03*
X191165000Y-103500000D03*
X191165000Y-102400000D03*
X189335000Y-102400000D03*
X189335000Y-103500000D03*
X194135000Y-103500000D03*
X194135000Y-102400000D03*
X195965000Y-102400000D03*
X195965000Y-103500000D03*
X200315000Y-103500000D03*
X200315000Y-102400000D03*
X198485000Y-102400000D03*
X198485000Y-103500000D03*
X202885000Y-103500000D03*
X202885000Y-102400000D03*
X204715000Y-102400000D03*
X204715000Y-103500000D03*
X209315000Y-103500000D03*
X209315000Y-102400000D03*
X207485000Y-102400000D03*
X207485000Y-103500000D03*
X212085000Y-103500000D03*
X212085000Y-102400000D03*
X213915000Y-102400000D03*
X213915000Y-103500000D03*
X218615000Y-103500000D03*
X218615000Y-102400000D03*
X216785000Y-102400000D03*
X216785000Y-103500000D03*
X221385000Y-103500000D03*
X221385000Y-102400000D03*
X223215000Y-102400000D03*
X223215000Y-103500000D03*
X153915000Y-106850000D03*
X153915000Y-105750000D03*
X152085000Y-105750000D03*
X152085000Y-106850000D03*
X156835000Y-106850000D03*
X156835000Y-105750000D03*
X158665000Y-105750000D03*
X158665000Y-106850000D03*
X163365000Y-106850000D03*
X163365000Y-105750000D03*
X161535000Y-105750000D03*
X161535000Y-106850000D03*
X166035000Y-106850000D03*
X166035000Y-105750000D03*
X167865000Y-105750000D03*
X167865000Y-106850000D03*
X170685000Y-106850000D03*
X170685000Y-105750000D03*
X172515000Y-105750000D03*
X172515000Y-106850000D03*
X175185000Y-106850000D03*
X175185000Y-105750000D03*
X177015000Y-105750000D03*
X177015000Y-106850000D03*
X181615000Y-106850000D03*
X181615000Y-105750000D03*
X179785000Y-105750000D03*
X179785000Y-106850000D03*
X184535000Y-106850000D03*
X184535000Y-105750000D03*
X186365000Y-105750000D03*
X186365000Y-106850000D03*
X191165000Y-106850000D03*
X191165000Y-105750000D03*
X189335000Y-105750000D03*
X189335000Y-106850000D03*
X195965000Y-106850000D03*
X195965000Y-105750000D03*
X194135000Y-105750000D03*
X194135000Y-106850000D03*
X198485000Y-106850000D03*
X198485000Y-105750000D03*
X200315000Y-105750000D03*
X200315000Y-106850000D03*
X204715000Y-106850000D03*
X204715000Y-105750000D03*
X202885000Y-105750000D03*
X202885000Y-106850000D03*
X207485000Y-106850000D03*
X207485000Y-105750000D03*
X209315000Y-105750000D03*
X209315000Y-106850000D03*
X213915000Y-106850000D03*
X213915000Y-105750000D03*
X212085000Y-105750000D03*
X212085000Y-106850000D03*
X216785000Y-106850000D03*
X216785000Y-105750000D03*
X218615000Y-105750000D03*
X218615000Y-106850000D03*
X223215000Y-106850000D03*
X223215000Y-105750000D03*
X221385000Y-105750000D03*
X221385000Y-106850000D03*
X226135000Y-106850000D03*
X226135000Y-105750000D03*
X227965000Y-105750000D03*
X227965000Y-106850000D03*
X153915000Y-110250000D03*
X153915000Y-109150000D03*
X152085000Y-109150000D03*
X152085000Y-110250000D03*
X156835000Y-110250000D03*
X156835000Y-109150000D03*
X158665000Y-109150000D03*
X158665000Y-110250000D03*
X163365000Y-110250000D03*
X163365000Y-109150000D03*
X161535000Y-109150000D03*
X161535000Y-110250000D03*
X166035000Y-110250000D03*
X166035000Y-109150000D03*
X167865000Y-109150000D03*
X167865000Y-110250000D03*
X170685000Y-110250000D03*
X170685000Y-109150000D03*
X172515000Y-109150000D03*
X172515000Y-110250000D03*
X175185000Y-110250000D03*
X175185000Y-109150000D03*
X177015000Y-109150000D03*
X177015000Y-110250000D03*
X181615000Y-110250000D03*
X181615000Y-109150000D03*
X179785000Y-109150000D03*
X179785000Y-110250000D03*
X184535000Y-110250000D03*
X184535000Y-109150000D03*
X186365000Y-109150000D03*
X186365000Y-110250000D03*
X191165000Y-110250000D03*
X191165000Y-109150000D03*
X189335000Y-109150000D03*
X189335000Y-110250000D03*
X194135000Y-110250000D03*
X194135000Y-109150000D03*
X195965000Y-109150000D03*
X195965000Y-110250000D03*
X200315000Y-110250000D03*
X200315000Y-109150000D03*
X198485000Y-109150000D03*
X198485000Y-110250000D03*
X202885000Y-110250000D03*
X202885000Y-109150000D03*
X204715000Y-109150000D03*
X204715000Y-110250000D03*
X209315000Y-110250000D03*
X209315000Y-109150000D03*
X207485000Y-109150000D03*
X207485000Y-110250000D03*
X212085000Y-110250000D03*
X212085000Y-109150000D03*
X213915000Y-109150000D03*
X213915000Y-110250000D03*
X218615000Y-110250000D03*
X218615000Y-109150000D03*
X216785000Y-109150000D03*
X216785000Y-110250000D03*
X221385000Y-110250000D03*
X221385000Y-109150000D03*
X223215000Y-109150000D03*
X223215000Y-110250000D03*
X227965000Y-110250000D03*
X227965000Y-109150000D03*
X226135000Y-109150000D03*
X226135000Y-110250000D03*
X230635000Y-110250000D03*
X230635000Y-109150000D03*
X232465000Y-109150000D03*
X232465000Y-110250000D03*
X153915000Y-113550000D03*
X153915000Y-112450000D03*
X152085000Y-112450000D03*
X152085000Y-113550000D03*
X156835000Y-113550000D03*
X156835000Y-112450000D03*
X158665000Y-112450000D03*
X158665000Y-113550000D03*
X163365000Y-113550000D03*
X163365000Y-112450000D03*
X161535000Y-112450000D03*
X161535000Y-113550000D03*
X166035000Y-113550000D03*
X166035000Y-112450000D03*
X167865000Y-112450000D03*
X167865000Y-113550000D03*
X170685000Y-113550000D03*
X170685000Y-112450000D03*
X172515000Y-112450000D03*
X172515000Y-113550000D03*
X175185000Y-113550000D03*
X175185000Y-112450000D03*
X177015000Y-112450000D03*
X177015000Y-113550000D03*
X181615000Y-113550000D03*
X181615000Y-112450000D03*
X179785000Y-112450000D03*
X179785000Y-113550000D03*
X184535000Y-113550000D03*
X184535000Y-112450000D03*
X186365000Y-112450000D03*
X186365000Y-113550000D03*
X191165000Y-113550000D03*
X191165000Y-112450000D03*
X189335000Y-112450000D03*
X189335000Y-113550000D03*
X194135000Y-113550000D03*
X194135000Y-112450000D03*
X195965000Y-112450000D03*
X195965000Y-113550000D03*
X200315000Y-113550000D03*
X200315000Y-112450000D03*
X198485000Y-112450000D03*
X198485000Y-113550000D03*
X202885000Y-113550000D03*
X202885000Y-112450000D03*
X204715000Y-112450000D03*
X204715000Y-113550000D03*
X209315000Y-113550000D03*
X209315000Y-112450000D03*
X207485000Y-112450000D03*
X207485000Y-113550000D03*
X212085000Y-113550000D03*
X212085000Y-112450000D03*
X213915000Y-112450000D03*
X213915000Y-113550000D03*
X216785000Y-113550000D03*
X216785000Y-112450000D03*
X218615000Y-112450000D03*
X218615000Y-113550000D03*
X221385000Y-113550000D03*
X221385000Y-112450000D03*
X223215000Y-112450000D03*
X223215000Y-113550000D03*
X227965000Y-113550000D03*
X227965000Y-112450000D03*
X226135000Y-112450000D03*
X226135000Y-113550000D03*
X230635000Y-113550000D03*
X230635000Y-112450000D03*
X232465000Y-112450000D03*
X232465000Y-113550000D03*
X153915000Y-117050000D03*
X153915000Y-115950000D03*
X152085000Y-115950000D03*
X152085000Y-117050000D03*
X156835000Y-117050000D03*
X156835000Y-115950000D03*
X158665000Y-115950000D03*
X158665000Y-117050000D03*
X163365000Y-117050000D03*
X163365000Y-115950000D03*
X161535000Y-115950000D03*
X161535000Y-117050000D03*
X166035000Y-117050000D03*
X166035000Y-115950000D03*
X167865000Y-115950000D03*
X167865000Y-117050000D03*
X170685000Y-117050000D03*
X170685000Y-115950000D03*
X172515000Y-115950000D03*
X172515000Y-117050000D03*
X175185000Y-117050000D03*
X175185000Y-115950000D03*
X177015000Y-115950000D03*
X177015000Y-117050000D03*
X181615000Y-117050000D03*
X181615000Y-115950000D03*
X179785000Y-115950000D03*
X179785000Y-117050000D03*
X184535000Y-117050000D03*
X184535000Y-115950000D03*
X186365000Y-115950000D03*
X186365000Y-117050000D03*
X191165000Y-117050000D03*
X191165000Y-115950000D03*
X189335000Y-115950000D03*
X189335000Y-117050000D03*
X194135000Y-117050000D03*
X194135000Y-115950000D03*
X195965000Y-115950000D03*
X195965000Y-117050000D03*
X200315000Y-117050000D03*
X200315000Y-115950000D03*
X198485000Y-115950000D03*
X198485000Y-117050000D03*
X204715000Y-117050000D03*
X204715000Y-115950000D03*
X202885000Y-115950000D03*
X202885000Y-117050000D03*
X207485000Y-117050000D03*
X207485000Y-115950000D03*
X209315000Y-115950000D03*
X209315000Y-117050000D03*
X213915000Y-117050000D03*
X213915000Y-115950000D03*
X212085000Y-115950000D03*
X212085000Y-117050000D03*
X216785000Y-117050000D03*
X216785000Y-115950000D03*
X218615000Y-115950000D03*
X218615000Y-117050000D03*
X223215000Y-117050000D03*
X223215000Y-115950000D03*
X221385000Y-115950000D03*
X221385000Y-117050000D03*
X226135000Y-117050000D03*
X226135000Y-115950000D03*
X227965000Y-115950000D03*
X227965000Y-117050000D03*
X232465000Y-117050000D03*
X232465000Y-115950000D03*
X230635000Y-115950000D03*
X230635000Y-117050000D03*
X152085000Y-120450000D03*
X152085000Y-119350000D03*
X153915000Y-119350000D03*
X153915000Y-120450000D03*
X158665000Y-120450000D03*
X158665000Y-119350000D03*
X156835000Y-119350000D03*
X156835000Y-120450000D03*
X161535000Y-120450000D03*
X161535000Y-119350000D03*
X163365000Y-119350000D03*
X163365000Y-120450000D03*
X167865000Y-120450000D03*
X167865000Y-119350000D03*
X166035000Y-119350000D03*
X166035000Y-120450000D03*
X172515000Y-120450000D03*
X172515000Y-119350000D03*
X170685000Y-119350000D03*
X170685000Y-120450000D03*
X177015000Y-120450000D03*
X177015000Y-119350000D03*
X175185000Y-119350000D03*
X175185000Y-120450000D03*
X179785000Y-120450000D03*
X179785000Y-119350000D03*
X181615000Y-119350000D03*
X181615000Y-120450000D03*
X186365000Y-120450000D03*
X186365000Y-119350000D03*
X184535000Y-119350000D03*
X184535000Y-120450000D03*
X189335000Y-120450000D03*
X189335000Y-119350000D03*
X191165000Y-119350000D03*
X191165000Y-120450000D03*
X195965000Y-120450000D03*
X195965000Y-119350000D03*
X194135000Y-119350000D03*
X194135000Y-120450000D03*
X198485000Y-120450000D03*
X198485000Y-119350000D03*
X200315000Y-119350000D03*
X200315000Y-120450000D03*
X207485000Y-120450000D03*
X207485000Y-119350000D03*
X209315000Y-119350000D03*
X209315000Y-120450000D03*
X213915000Y-120450000D03*
X213915000Y-119350000D03*
X212085000Y-119350000D03*
X212085000Y-120450000D03*
X216785000Y-120450000D03*
X216785000Y-119350000D03*
X218615000Y-119350000D03*
X218615000Y-120450000D03*
X223215000Y-120450000D03*
X223215000Y-119350000D03*
X221385000Y-119350000D03*
X221385000Y-120450000D03*
X226135000Y-120450000D03*
X226135000Y-119350000D03*
X227965000Y-119350000D03*
X227965000Y-120450000D03*
X232465000Y-120450000D03*
X232465000Y-119350000D03*
X230635000Y-119350000D03*
X230635000Y-120450000D03*
X152085000Y-123850000D03*
X152085000Y-122750000D03*
X153915000Y-122750000D03*
X153915000Y-123850000D03*
X158665000Y-123850000D03*
X158665000Y-122750000D03*
X156835000Y-122750000D03*
X156835000Y-123850000D03*
X161535000Y-123850000D03*
X161535000Y-122750000D03*
X163365000Y-122750000D03*
X163365000Y-123850000D03*
X167865000Y-123850000D03*
X167865000Y-122750000D03*
X166035000Y-122750000D03*
X166035000Y-123850000D03*
X172515000Y-123850000D03*
X172515000Y-122750000D03*
X170685000Y-122750000D03*
X170685000Y-123850000D03*
X177015000Y-123850000D03*
X177015000Y-122750000D03*
X175185000Y-122750000D03*
X175185000Y-123850000D03*
X179785000Y-123850000D03*
X179785000Y-122750000D03*
X181615000Y-122750000D03*
X181615000Y-123850000D03*
X186365000Y-123850000D03*
X186365000Y-122750000D03*
X184535000Y-122750000D03*
X184535000Y-123850000D03*
X189335000Y-123850000D03*
X189335000Y-122750000D03*
X191165000Y-122750000D03*
X191165000Y-123850000D03*
X195965000Y-123850000D03*
X195965000Y-122750000D03*
X194135000Y-122750000D03*
X194135000Y-123850000D03*
X198485000Y-123850000D03*
X198485000Y-122750000D03*
X200315000Y-122750000D03*
X200315000Y-123850000D03*
X204715000Y-123850000D03*
X204715000Y-122750000D03*
X202885000Y-122750000D03*
X202885000Y-123850000D03*
X207485000Y-123850000D03*
X207485000Y-122750000D03*
X209315000Y-122750000D03*
X209315000Y-123850000D03*
X213915000Y-123850000D03*
X213915000Y-122750000D03*
X212085000Y-122750000D03*
X212085000Y-123850000D03*
X216785000Y-123850000D03*
X216785000Y-122750000D03*
X218615000Y-122750000D03*
X218615000Y-123850000D03*
X223215000Y-123850000D03*
X223215000Y-122750000D03*
X221385000Y-122750000D03*
X221385000Y-123850000D03*
X226135000Y-123850000D03*
X226135000Y-122750000D03*
X227965000Y-122750000D03*
X227965000Y-123850000D03*
X230635000Y-123850000D03*
X230635000Y-122750000D03*
X232465000Y-122750000D03*
X232465000Y-123850000D03*
X158665000Y-127350000D03*
X158665000Y-126250000D03*
X156835000Y-126250000D03*
X156835000Y-127350000D03*
X161535000Y-127350000D03*
X161535000Y-126250000D03*
X163365000Y-126250000D03*
X163365000Y-127350000D03*
X167865000Y-127350000D03*
X167865000Y-126250000D03*
X166035000Y-126250000D03*
X166035000Y-127350000D03*
X172515000Y-127350000D03*
X172515000Y-126250000D03*
X170685000Y-126250000D03*
X170685000Y-127350000D03*
X177015000Y-127350000D03*
X177015000Y-126250000D03*
X175185000Y-126250000D03*
X175185000Y-127350000D03*
X179785000Y-127350000D03*
X179785000Y-126250000D03*
X181615000Y-126250000D03*
X181615000Y-127350000D03*
X186365000Y-127350000D03*
X186365000Y-126250000D03*
X184535000Y-126250000D03*
X184535000Y-127350000D03*
X189335000Y-127350000D03*
X189335000Y-126250000D03*
X191165000Y-126250000D03*
X191165000Y-127350000D03*
X195965000Y-127350000D03*
X195965000Y-126250000D03*
X194135000Y-126250000D03*
X194135000Y-127350000D03*
X200315000Y-127350000D03*
X200315000Y-126250000D03*
X198485000Y-126250000D03*
X198485000Y-127350000D03*
X204715000Y-127350000D03*
X204715000Y-126250000D03*
X202885000Y-126250000D03*
X202885000Y-127350000D03*
X207485000Y-127350000D03*
X207485000Y-126250000D03*
X209315000Y-126250000D03*
X209315000Y-127350000D03*
X213915000Y-127350000D03*
X213915000Y-126250000D03*
X212085000Y-126250000D03*
X212085000Y-127350000D03*
X216785000Y-127350000D03*
X216785000Y-126250000D03*
X218615000Y-126250000D03*
X218615000Y-127350000D03*
X223215000Y-127350000D03*
X223215000Y-126250000D03*
X221385000Y-126250000D03*
X221385000Y-127350000D03*
X226135000Y-127350000D03*
X226135000Y-126250000D03*
X227965000Y-126250000D03*
X227965000Y-127350000D03*
X163365000Y-130850000D03*
X163365000Y-129750000D03*
X161535000Y-129750000D03*
X161535000Y-130850000D03*
X166035000Y-130850000D03*
X166035000Y-129750000D03*
X167865000Y-129750000D03*
X167865000Y-130850000D03*
X170685000Y-130850000D03*
X170685000Y-129750000D03*
X172515000Y-129750000D03*
X172515000Y-130850000D03*
X177015000Y-130850000D03*
X177015000Y-129750000D03*
X175185000Y-129750000D03*
X175185000Y-130850000D03*
X179785000Y-130850000D03*
X179785000Y-129750000D03*
X181615000Y-129750000D03*
X181615000Y-130850000D03*
X186365000Y-130850000D03*
X186365000Y-129750000D03*
X184535000Y-129750000D03*
X184535000Y-130850000D03*
X189335000Y-130850000D03*
X189335000Y-129750000D03*
X191165000Y-129750000D03*
X191165000Y-130850000D03*
X195965000Y-130850000D03*
X195965000Y-129750000D03*
X194135000Y-129750000D03*
X194135000Y-130850000D03*
X198485000Y-130850000D03*
X198485000Y-129750000D03*
X200315000Y-129750000D03*
X200315000Y-130850000D03*
X204715000Y-130850000D03*
X204715000Y-129750000D03*
X202885000Y-129750000D03*
X202885000Y-130850000D03*
X207485000Y-130850000D03*
X207485000Y-129750000D03*
X209315000Y-129750000D03*
X209315000Y-130850000D03*
X212085000Y-130850000D03*
X212085000Y-129750000D03*
X213915000Y-129750000D03*
X213915000Y-130850000D03*
X218615000Y-130850000D03*
X218615000Y-129750000D03*
X216785000Y-129750000D03*
X216785000Y-130850000D03*
X221385000Y-130850000D03*
X221385000Y-129750000D03*
X223215000Y-129750000D03*
X223215000Y-130850000D03*
M02*
