G04 #@! TF.GenerationSoftware,KiCad,Pcbnew,5.1.5+dfsg1-2build2*
G04 #@! TF.CreationDate,2020-10-07T00:50:06-05:00*
G04 #@! TF.ProjectId,LEDs_RGB_cloud,4c454473-5f52-4474-925f-636c6f75642e,rev?*
G04 #@! TF.SameCoordinates,Original*
G04 #@! TF.FileFunction,Soldermask,Bot*
G04 #@! TF.FilePolarity,Negative*
%FSLAX46Y46*%
G04 Gerber Fmt 4.6, Leading zero omitted, Abs format (unit mm)*
G04 Created by KiCad (PCBNEW 5.1.5+dfsg1-2build2) date 2020-10-07 00:50:06*
%MOMM*%
%LPD*%
G04 APERTURE LIST*
%ADD10O,1.800000X1.800000*%
%ADD11R,1.800000X1.800000*%
%ADD12R,2.700000X2.700000*%
%ADD13C,2.700000*%
%ADD14C,3.300000*%
G04 APERTURE END LIST*
D10*
X151650000Y-89990000D03*
X151650000Y-92530000D03*
X151650000Y-95070000D03*
X151650000Y-97610000D03*
X151650000Y-100150000D03*
X151650000Y-102690000D03*
X151650000Y-105230000D03*
X151650000Y-107770000D03*
X151650000Y-110310000D03*
X151650000Y-112850000D03*
X151650000Y-115390000D03*
X151650000Y-117930000D03*
X151650000Y-120470000D03*
X151650000Y-123010000D03*
D11*
X151650000Y-125550000D03*
D12*
X172000000Y-55000000D03*
D13*
X166920000Y-55000000D03*
X161840000Y-55000000D03*
D14*
X113000000Y-56000000D03*
X113000000Y-138000000D03*
X273000000Y-56000000D03*
X273180000Y-138270000D03*
D11*
X106950000Y-125550000D03*
D10*
X106950000Y-123010000D03*
X106950000Y-120470000D03*
X106950000Y-117930000D03*
X106950000Y-115390000D03*
X106950000Y-112850000D03*
X106950000Y-110310000D03*
X106950000Y-107770000D03*
X106950000Y-105230000D03*
X106950000Y-102690000D03*
X106950000Y-100150000D03*
X106950000Y-97610000D03*
X106950000Y-95070000D03*
X106950000Y-92530000D03*
X106950000Y-89990000D03*
X116600000Y-89990000D03*
X116600000Y-92530000D03*
X116600000Y-95070000D03*
X116600000Y-97610000D03*
X116600000Y-100150000D03*
X116600000Y-102690000D03*
X116600000Y-105230000D03*
X116600000Y-107770000D03*
X116600000Y-110310000D03*
X116600000Y-112850000D03*
X116600000Y-115390000D03*
X116600000Y-117930000D03*
X116600000Y-120470000D03*
X116600000Y-123010000D03*
D11*
X116600000Y-125550000D03*
X142000000Y-125550000D03*
D10*
X142000000Y-123010000D03*
X142000000Y-120470000D03*
X142000000Y-117930000D03*
X142000000Y-115390000D03*
X142000000Y-112850000D03*
X142000000Y-110310000D03*
X142000000Y-107770000D03*
X142000000Y-105230000D03*
X142000000Y-102690000D03*
X142000000Y-100150000D03*
X142000000Y-97610000D03*
X142000000Y-95070000D03*
X142000000Y-92530000D03*
X142000000Y-89990000D03*
M02*
