G04 #@! TF.GenerationSoftware,KiCad,Pcbnew,5.1.5+dfsg1-2build2*
G04 #@! TF.CreationDate,2020-10-07T00:50:06-05:00*
G04 #@! TF.ProjectId,LEDs_RGB_cloud,4c454473-5f52-4474-925f-636c6f75642e,rev?*
G04 #@! TF.SameCoordinates,Original*
G04 #@! TF.FileFunction,Paste,Top*
G04 #@! TF.FilePolarity,Positive*
%FSLAX46Y46*%
G04 Gerber Fmt 4.6, Leading zero omitted, Abs format (unit mm)*
G04 Created by KiCad (PCBNEW 5.1.5+dfsg1-2build2) date 2020-10-07 00:50:06*
%MOMM*%
%LPD*%
G04 APERTURE LIST*
%ADD10R,1.500000X1.000000*%
G04 APERTURE END LIST*
D10*
X208490000Y-53910000D03*
X208490000Y-57110000D03*
X213390000Y-53910000D03*
X213390000Y-57110000D03*
X215690000Y-53910000D03*
X215690000Y-57110000D03*
X220590000Y-53910000D03*
X220590000Y-57110000D03*
X222890000Y-53910000D03*
X222890000Y-57110000D03*
X227790000Y-53910000D03*
X227790000Y-57110000D03*
X237290000Y-59810000D03*
X237290000Y-63010000D03*
X242190000Y-59810000D03*
X242190000Y-63010000D03*
X258890000Y-118810000D03*
X258890000Y-122010000D03*
X263790000Y-118810000D03*
X263790000Y-122010000D03*
X230090000Y-118810000D03*
X230090000Y-122010000D03*
X234990000Y-118810000D03*
X234990000Y-122010000D03*
X179690000Y-124710000D03*
X179690000Y-127910000D03*
X184590000Y-124710000D03*
X184590000Y-127910000D03*
X186890000Y-124710000D03*
X186890000Y-127910000D03*
X191790000Y-124710000D03*
X191790000Y-127910000D03*
X194090000Y-124710000D03*
X194090000Y-127910000D03*
X198990000Y-124710000D03*
X198990000Y-127910000D03*
X201290000Y-124710000D03*
X201290000Y-127910000D03*
X206190000Y-124710000D03*
X206190000Y-127910000D03*
X208490000Y-124760000D03*
X208490000Y-127960000D03*
X213390000Y-124760000D03*
X213390000Y-127960000D03*
X215690000Y-124710000D03*
X215690000Y-127910000D03*
X220590000Y-124710000D03*
X220590000Y-127910000D03*
X222890000Y-124710000D03*
X222890000Y-127910000D03*
X227790000Y-124710000D03*
X227790000Y-127910000D03*
X230090000Y-124710000D03*
X230090000Y-127910000D03*
X234990000Y-124710000D03*
X234990000Y-127910000D03*
X237290000Y-124710000D03*
X237290000Y-127910000D03*
X242190000Y-124710000D03*
X242190000Y-127910000D03*
X244490000Y-124710000D03*
X244490000Y-127910000D03*
X249390000Y-124710000D03*
X249390000Y-127910000D03*
X251690000Y-124710000D03*
X251690000Y-127910000D03*
X256590000Y-124710000D03*
X256590000Y-127910000D03*
X258890000Y-124710000D03*
X258890000Y-127910000D03*
X263790000Y-124710000D03*
X263790000Y-127910000D03*
X266090000Y-124710000D03*
X266090000Y-127910000D03*
X270990000Y-124710000D03*
X270990000Y-127910000D03*
X273290000Y-124710000D03*
X273290000Y-127910000D03*
X278190000Y-124710000D03*
X278190000Y-127910000D03*
X266090000Y-130610000D03*
X266090000Y-133810000D03*
X270990000Y-130610000D03*
X270990000Y-133810000D03*
X258890000Y-130610000D03*
X258890000Y-133810000D03*
X263790000Y-130610000D03*
X263790000Y-133810000D03*
X251690000Y-130610000D03*
X251690000Y-133810000D03*
X256590000Y-130610000D03*
X256590000Y-133810000D03*
X244490000Y-130610000D03*
X244490000Y-133810000D03*
X249390000Y-130610000D03*
X249390000Y-133810000D03*
X237290000Y-130610000D03*
X237290000Y-133810000D03*
X242190000Y-130610000D03*
X242190000Y-133810000D03*
X230090000Y-130610000D03*
X230090000Y-133810000D03*
X234990000Y-130610000D03*
X234990000Y-133810000D03*
X222890000Y-130610000D03*
X222890000Y-133810000D03*
X227790000Y-130610000D03*
X227790000Y-133810000D03*
X215690000Y-130610000D03*
X215690000Y-133810000D03*
X220590000Y-130610000D03*
X220590000Y-133810000D03*
X208490000Y-130610000D03*
X208490000Y-133810000D03*
X213390000Y-130610000D03*
X213390000Y-133810000D03*
X201290000Y-130610000D03*
X201290000Y-133810000D03*
X206190000Y-130610000D03*
X206190000Y-133810000D03*
X194090000Y-130610000D03*
X194090000Y-133810000D03*
X198990000Y-130610000D03*
X198990000Y-133810000D03*
X186890000Y-130610000D03*
X186890000Y-133810000D03*
X191790000Y-130610000D03*
X191790000Y-133810000D03*
X179690000Y-130610000D03*
X179690000Y-133810000D03*
X184590000Y-130610000D03*
X184590000Y-133810000D03*
X172470000Y-130650000D03*
X172470000Y-133850000D03*
X177370000Y-130650000D03*
X177370000Y-133850000D03*
X251690000Y-107010000D03*
X251690000Y-110210000D03*
X256590000Y-107010000D03*
X256590000Y-110210000D03*
X244490000Y-118810000D03*
X244490000Y-122010000D03*
X249390000Y-118810000D03*
X249390000Y-122010000D03*
X194090000Y-112910000D03*
X194090000Y-116110000D03*
X198990000Y-112910000D03*
X198990000Y-116110000D03*
X186890000Y-101110000D03*
X186890000Y-104310000D03*
X191790000Y-101110000D03*
X191790000Y-104310000D03*
X194090000Y-101110000D03*
X194090000Y-104310000D03*
X198990000Y-101110000D03*
X198990000Y-104310000D03*
X201290000Y-101110000D03*
X201290000Y-104310000D03*
X206190000Y-101110000D03*
X206190000Y-104310000D03*
X208490000Y-101110000D03*
X208490000Y-104310000D03*
X213390000Y-101110000D03*
X213390000Y-104310000D03*
X215690000Y-101110000D03*
X215690000Y-104310000D03*
X220590000Y-101110000D03*
X220590000Y-104310000D03*
X222890000Y-101110000D03*
X222890000Y-104310000D03*
X227790000Y-101110000D03*
X227790000Y-104310000D03*
X230090000Y-101110000D03*
X230090000Y-104310000D03*
X234990000Y-101110000D03*
X234990000Y-104310000D03*
X237290000Y-101110000D03*
X237290000Y-104310000D03*
X242190000Y-101110000D03*
X242190000Y-104310000D03*
X244490000Y-101110000D03*
X244490000Y-104310000D03*
X249390000Y-101110000D03*
X249390000Y-104310000D03*
X251690000Y-101110000D03*
X251690000Y-104310000D03*
X256590000Y-101110000D03*
X256590000Y-104310000D03*
X258890000Y-101110000D03*
X258890000Y-104310000D03*
X263790000Y-101110000D03*
X263790000Y-104310000D03*
X266090000Y-101110000D03*
X266090000Y-104310000D03*
X270990000Y-101110000D03*
X270990000Y-104310000D03*
X273290000Y-101110000D03*
X273290000Y-104310000D03*
X278190000Y-101110000D03*
X278190000Y-104310000D03*
X273290000Y-107010000D03*
X273290000Y-110210000D03*
X278190000Y-107010000D03*
X278190000Y-110210000D03*
X266090000Y-107010000D03*
X266090000Y-110210000D03*
X270990000Y-107010000D03*
X270990000Y-110210000D03*
X258890000Y-107010000D03*
X258890000Y-110210000D03*
X263790000Y-107010000D03*
X263790000Y-110210000D03*
X244490000Y-107010000D03*
X244490000Y-110210000D03*
X249390000Y-107010000D03*
X249390000Y-110210000D03*
X237290000Y-107010000D03*
X237290000Y-110210000D03*
X242190000Y-107010000D03*
X242190000Y-110210000D03*
X230090000Y-107010000D03*
X230090000Y-110210000D03*
X234990000Y-107010000D03*
X234990000Y-110210000D03*
X222890000Y-107010000D03*
X222890000Y-110210000D03*
X227790000Y-107010000D03*
X227790000Y-110210000D03*
X215690000Y-107010000D03*
X215690000Y-110210000D03*
X220590000Y-107010000D03*
X220590000Y-110210000D03*
X208490000Y-107010000D03*
X208490000Y-110210000D03*
X213390000Y-107010000D03*
X213390000Y-110210000D03*
X201290000Y-107010000D03*
X201290000Y-110210000D03*
X206190000Y-107010000D03*
X206190000Y-110210000D03*
X194090000Y-107010000D03*
X194090000Y-110210000D03*
X198990000Y-107010000D03*
X198990000Y-110210000D03*
X186890000Y-107010000D03*
X186890000Y-110210000D03*
X191790000Y-107010000D03*
X191790000Y-110210000D03*
X179690000Y-107010000D03*
X179690000Y-110210000D03*
X184590000Y-107010000D03*
X184590000Y-110210000D03*
X172490000Y-107010000D03*
X172490000Y-110210000D03*
X177390000Y-107010000D03*
X177390000Y-110210000D03*
X165290000Y-107010000D03*
X165290000Y-110210000D03*
X170190000Y-107010000D03*
X170190000Y-110210000D03*
X158090000Y-107010000D03*
X158090000Y-110210000D03*
X162990000Y-107010000D03*
X162990000Y-110210000D03*
X158090000Y-112910000D03*
X158090000Y-116110000D03*
X162990000Y-112910000D03*
X162990000Y-116110000D03*
X165290000Y-112910000D03*
X165290000Y-116110000D03*
X170190000Y-112910000D03*
X170190000Y-116110000D03*
X172490000Y-112910000D03*
X172490000Y-116110000D03*
X177390000Y-112910000D03*
X177390000Y-116110000D03*
X179690000Y-112910000D03*
X179690000Y-116110000D03*
X184590000Y-112910000D03*
X184590000Y-116110000D03*
X186890000Y-112910000D03*
X186890000Y-116110000D03*
X191790000Y-112910000D03*
X191790000Y-116110000D03*
X201290000Y-112910000D03*
X201290000Y-116110000D03*
X206190000Y-112910000D03*
X206190000Y-116110000D03*
X208490000Y-112910000D03*
X208490000Y-116110000D03*
X213390000Y-112910000D03*
X213390000Y-116110000D03*
X215690000Y-112910000D03*
X215690000Y-116110000D03*
X220590000Y-112910000D03*
X220590000Y-116110000D03*
X222890000Y-112910000D03*
X222890000Y-116110000D03*
X227790000Y-112910000D03*
X227790000Y-116110000D03*
X230090000Y-112910000D03*
X230090000Y-116110000D03*
X234990000Y-112910000D03*
X234990000Y-116110000D03*
X237290000Y-112910000D03*
X237290000Y-116110000D03*
X242190000Y-112910000D03*
X242190000Y-116110000D03*
X244490000Y-112910000D03*
X244490000Y-116110000D03*
X249390000Y-112910000D03*
X249390000Y-116110000D03*
X251690000Y-112910000D03*
X251690000Y-116110000D03*
X256590000Y-112910000D03*
X256590000Y-116110000D03*
X258890000Y-112910000D03*
X258890000Y-116110000D03*
X263790000Y-112910000D03*
X263790000Y-116110000D03*
X266090000Y-112910000D03*
X266090000Y-116110000D03*
X270990000Y-112910000D03*
X270990000Y-116110000D03*
X273290000Y-112910000D03*
X273290000Y-116110000D03*
X278190000Y-112910000D03*
X278190000Y-116110000D03*
X273290000Y-118810000D03*
X273290000Y-122010000D03*
X278190000Y-118810000D03*
X278190000Y-122010000D03*
X266090000Y-118810000D03*
X266090000Y-122010000D03*
X270990000Y-118810000D03*
X270990000Y-122010000D03*
X251690000Y-118810000D03*
X251690000Y-122010000D03*
X256590000Y-118810000D03*
X256590000Y-122010000D03*
X237270000Y-118810000D03*
X237270000Y-122010000D03*
X242170000Y-118810000D03*
X242170000Y-122010000D03*
X222890000Y-118810000D03*
X222890000Y-122010000D03*
X227790000Y-118810000D03*
X227790000Y-122010000D03*
X215690000Y-118810000D03*
X215690000Y-122010000D03*
X220590000Y-118810000D03*
X220590000Y-122010000D03*
X208490000Y-118810000D03*
X208490000Y-122010000D03*
X213390000Y-118810000D03*
X213390000Y-122010000D03*
X201290000Y-118810000D03*
X201290000Y-122010000D03*
X206190000Y-118810000D03*
X206190000Y-122010000D03*
X194090000Y-118810000D03*
X194090000Y-122010000D03*
X198990000Y-118810000D03*
X198990000Y-122010000D03*
X186890000Y-118810000D03*
X186890000Y-122010000D03*
X191790000Y-118810000D03*
X191790000Y-122010000D03*
X179690000Y-118810000D03*
X179690000Y-122010000D03*
X184590000Y-118810000D03*
X184590000Y-122010000D03*
X172490000Y-118810000D03*
X172490000Y-122010000D03*
X177390000Y-118810000D03*
X177390000Y-122010000D03*
X165290000Y-118810000D03*
X165290000Y-122010000D03*
X170190000Y-118810000D03*
X170190000Y-122010000D03*
X158090000Y-118810000D03*
X158090000Y-122010000D03*
X162990000Y-118810000D03*
X162990000Y-122010000D03*
X165290000Y-124710000D03*
X165290000Y-127910000D03*
X170190000Y-124710000D03*
X170190000Y-127910000D03*
X172490000Y-124710000D03*
X172490000Y-127910000D03*
X177390000Y-124710000D03*
X177390000Y-127910000D03*
X179640000Y-101110000D03*
X179640000Y-104310000D03*
X184540000Y-101110000D03*
X184540000Y-104310000D03*
X177390000Y-104310000D03*
X177390000Y-101110000D03*
X172490000Y-104310000D03*
X172490000Y-101110000D03*
X165290000Y-101110000D03*
X165290000Y-104310000D03*
X170190000Y-101110000D03*
X170190000Y-104310000D03*
X158090000Y-101110000D03*
X158090000Y-104310000D03*
X162990000Y-101110000D03*
X162990000Y-104310000D03*
X158040000Y-95210000D03*
X158040000Y-98410000D03*
X162940000Y-95210000D03*
X162940000Y-98410000D03*
X170190000Y-98410000D03*
X170190000Y-95210000D03*
X165290000Y-98410000D03*
X165290000Y-95210000D03*
X172490000Y-95210000D03*
X172490000Y-98410000D03*
X177390000Y-95210000D03*
X177390000Y-98410000D03*
X179690000Y-95210000D03*
X179690000Y-98410000D03*
X184590000Y-95210000D03*
X184590000Y-98410000D03*
X186840000Y-95210000D03*
X186840000Y-98410000D03*
X191740000Y-95210000D03*
X191740000Y-98410000D03*
X198990000Y-98410000D03*
X198990000Y-95210000D03*
X194090000Y-98410000D03*
X194090000Y-95210000D03*
X206190000Y-98410000D03*
X206190000Y-95210000D03*
X201290000Y-98410000D03*
X201290000Y-95210000D03*
X213340000Y-98410000D03*
X213340000Y-95210000D03*
X208440000Y-98410000D03*
X208440000Y-95210000D03*
X215690000Y-95210000D03*
X215690000Y-98410000D03*
X220590000Y-95210000D03*
X220590000Y-98410000D03*
X227790000Y-98410000D03*
X227790000Y-95210000D03*
X222890000Y-98410000D03*
X222890000Y-95210000D03*
X234940000Y-98410000D03*
X234940000Y-95210000D03*
X230040000Y-98410000D03*
X230040000Y-95210000D03*
X242140000Y-98410000D03*
X242140000Y-95210000D03*
X237240000Y-98410000D03*
X237240000Y-95210000D03*
X244440000Y-95210000D03*
X244440000Y-98410000D03*
X249340000Y-95210000D03*
X249340000Y-98410000D03*
X251690000Y-95210000D03*
X251690000Y-98410000D03*
X256590000Y-95210000D03*
X256590000Y-98410000D03*
X258890000Y-95210000D03*
X258890000Y-98410000D03*
X263790000Y-95210000D03*
X263790000Y-98410000D03*
X270940000Y-98410000D03*
X270940000Y-95210000D03*
X266040000Y-98410000D03*
X266040000Y-95210000D03*
X278140000Y-98410000D03*
X278140000Y-95210000D03*
X273240000Y-98410000D03*
X273240000Y-95210000D03*
X278190000Y-92510000D03*
X278190000Y-89310000D03*
X273290000Y-92510000D03*
X273290000Y-89310000D03*
X266090000Y-89310000D03*
X266090000Y-92510000D03*
X270990000Y-89310000D03*
X270990000Y-92510000D03*
X263740000Y-92510000D03*
X263740000Y-89310000D03*
X258840000Y-92510000D03*
X258840000Y-89310000D03*
X256590000Y-92510000D03*
X256590000Y-89310000D03*
X251690000Y-92510000D03*
X251690000Y-89310000D03*
X244490000Y-89310000D03*
X244490000Y-92510000D03*
X249390000Y-89310000D03*
X249390000Y-92510000D03*
X237290000Y-89310000D03*
X237290000Y-92510000D03*
X242190000Y-89310000D03*
X242190000Y-92510000D03*
X230090000Y-89310000D03*
X230090000Y-92510000D03*
X234990000Y-89310000D03*
X234990000Y-92510000D03*
X222890000Y-89310000D03*
X222890000Y-92510000D03*
X227790000Y-89310000D03*
X227790000Y-92510000D03*
X220590000Y-92510000D03*
X220590000Y-89310000D03*
X215690000Y-92510000D03*
X215690000Y-89310000D03*
X208490000Y-89310000D03*
X208490000Y-92510000D03*
X213390000Y-89310000D03*
X213390000Y-92510000D03*
X206190000Y-92510000D03*
X206190000Y-89310000D03*
X201290000Y-92510000D03*
X201290000Y-89310000D03*
X194090000Y-89310000D03*
X194090000Y-92510000D03*
X198990000Y-89310000D03*
X198990000Y-92510000D03*
X191790000Y-92510000D03*
X191790000Y-89310000D03*
X186890000Y-92510000D03*
X186890000Y-89310000D03*
X179690000Y-89310000D03*
X179690000Y-92510000D03*
X184590000Y-89310000D03*
X184590000Y-92510000D03*
X177390000Y-92510000D03*
X177390000Y-89310000D03*
X172490000Y-92510000D03*
X172490000Y-89310000D03*
X170190000Y-92510000D03*
X170190000Y-89310000D03*
X165290000Y-92510000D03*
X165290000Y-89310000D03*
X158040000Y-89310000D03*
X158040000Y-92510000D03*
X162940000Y-89310000D03*
X162940000Y-92510000D03*
X158090000Y-83410000D03*
X158090000Y-86610000D03*
X162990000Y-83410000D03*
X162990000Y-86610000D03*
X165290000Y-83410000D03*
X165290000Y-86610000D03*
X170190000Y-83410000D03*
X170190000Y-86610000D03*
X177390000Y-86610000D03*
X177390000Y-83410000D03*
X172490000Y-86610000D03*
X172490000Y-83410000D03*
X179690000Y-83410000D03*
X179690000Y-86610000D03*
X184590000Y-83410000D03*
X184590000Y-86610000D03*
X186890000Y-83410000D03*
X186890000Y-86610000D03*
X191790000Y-83410000D03*
X191790000Y-86610000D03*
X194090000Y-83410000D03*
X194090000Y-86610000D03*
X198990000Y-83410000D03*
X198990000Y-86610000D03*
X206190000Y-86610000D03*
X206190000Y-83410000D03*
X201290000Y-86610000D03*
X201290000Y-83410000D03*
X213390000Y-86610000D03*
X213390000Y-83410000D03*
X208490000Y-86610000D03*
X208490000Y-83410000D03*
X220590000Y-86610000D03*
X220590000Y-83410000D03*
X215690000Y-86610000D03*
X215690000Y-83410000D03*
X222890000Y-83410000D03*
X222890000Y-86610000D03*
X227790000Y-83410000D03*
X227790000Y-86610000D03*
X234990000Y-86610000D03*
X234990000Y-83410000D03*
X230090000Y-86610000D03*
X230090000Y-83410000D03*
X237290000Y-83410000D03*
X237290000Y-86610000D03*
X242190000Y-83410000D03*
X242190000Y-86610000D03*
X249390000Y-86610000D03*
X249390000Y-83410000D03*
X244490000Y-86610000D03*
X244490000Y-83410000D03*
X251690000Y-83410000D03*
X251690000Y-86610000D03*
X256590000Y-83410000D03*
X256590000Y-86610000D03*
X258890000Y-83410000D03*
X258890000Y-86610000D03*
X263790000Y-83410000D03*
X263790000Y-86610000D03*
X266090000Y-83410000D03*
X266090000Y-86610000D03*
X270990000Y-83410000D03*
X270990000Y-86610000D03*
X263790000Y-80710000D03*
X263790000Y-77510000D03*
X258890000Y-80710000D03*
X258890000Y-77510000D03*
X256590000Y-80710000D03*
X256590000Y-77510000D03*
X251690000Y-80710000D03*
X251690000Y-77510000D03*
X249390000Y-80710000D03*
X249390000Y-77510000D03*
X244490000Y-80710000D03*
X244490000Y-77510000D03*
X237290000Y-77510000D03*
X237290000Y-80710000D03*
X242190000Y-77510000D03*
X242190000Y-80710000D03*
X234990000Y-80710000D03*
X234990000Y-77510000D03*
X230090000Y-80710000D03*
X230090000Y-77510000D03*
X227790000Y-80710000D03*
X227790000Y-77510000D03*
X222890000Y-80710000D03*
X222890000Y-77510000D03*
X220590000Y-80710000D03*
X220590000Y-77510000D03*
X215690000Y-80710000D03*
X215690000Y-77510000D03*
X208490000Y-77510000D03*
X208490000Y-80710000D03*
X213390000Y-77510000D03*
X213390000Y-80710000D03*
X201290000Y-77510000D03*
X201290000Y-80710000D03*
X206190000Y-77510000D03*
X206190000Y-80710000D03*
X198890000Y-80710000D03*
X198890000Y-77510000D03*
X193990000Y-80710000D03*
X193990000Y-77510000D03*
X186890000Y-77510000D03*
X186890000Y-80710000D03*
X191790000Y-77510000D03*
X191790000Y-80710000D03*
X184590000Y-80710000D03*
X184590000Y-77510000D03*
X179690000Y-80710000D03*
X179690000Y-77510000D03*
X172490000Y-77510000D03*
X172490000Y-80710000D03*
X177390000Y-77510000D03*
X177390000Y-80710000D03*
X170190000Y-80710000D03*
X170190000Y-77510000D03*
X165290000Y-80710000D03*
X165290000Y-77510000D03*
X194090000Y-71610000D03*
X194090000Y-74810000D03*
X198990000Y-71610000D03*
X198990000Y-74810000D03*
X206190000Y-74810000D03*
X206190000Y-71610000D03*
X201290000Y-74810000D03*
X201290000Y-71610000D03*
X213390000Y-74810000D03*
X213390000Y-71610000D03*
X208490000Y-74810000D03*
X208490000Y-71610000D03*
X220590000Y-74810000D03*
X220590000Y-71610000D03*
X215690000Y-74810000D03*
X215690000Y-71610000D03*
X227790000Y-74810000D03*
X227790000Y-71610000D03*
X222890000Y-74810000D03*
X222890000Y-71610000D03*
X234990000Y-74810000D03*
X234990000Y-71610000D03*
X230090000Y-74810000D03*
X230090000Y-71610000D03*
X237290000Y-71610000D03*
X237290000Y-74810000D03*
X242190000Y-71610000D03*
X242190000Y-74810000D03*
X249390000Y-74810000D03*
X249390000Y-71610000D03*
X244490000Y-74810000D03*
X244490000Y-71610000D03*
X242190000Y-68910000D03*
X242190000Y-65710000D03*
X237290000Y-68910000D03*
X237290000Y-65710000D03*
X230090000Y-65710000D03*
X230090000Y-68910000D03*
X234990000Y-65710000D03*
X234990000Y-68910000D03*
X222890000Y-65710000D03*
X222890000Y-68910000D03*
X227790000Y-65710000D03*
X227790000Y-68910000D03*
X220590000Y-68910000D03*
X220590000Y-65710000D03*
X215690000Y-68910000D03*
X215690000Y-65710000D03*
X208490000Y-65710000D03*
X208490000Y-68910000D03*
X213390000Y-65710000D03*
X213390000Y-68910000D03*
X206190000Y-68910000D03*
X206190000Y-65710000D03*
X201290000Y-68910000D03*
X201290000Y-65710000D03*
X198940000Y-68910000D03*
X198940000Y-65710000D03*
X194040000Y-68910000D03*
X194040000Y-65710000D03*
X201290000Y-59810000D03*
X201290000Y-63010000D03*
X206190000Y-59810000D03*
X206190000Y-63010000D03*
X208440000Y-59810000D03*
X208440000Y-63010000D03*
X213340000Y-59810000D03*
X213340000Y-63010000D03*
X220590000Y-63010000D03*
X220590000Y-59810000D03*
X215690000Y-63010000D03*
X215690000Y-59810000D03*
X222890000Y-59810000D03*
X222890000Y-63010000D03*
X227790000Y-59810000D03*
X227790000Y-63010000D03*
X230040000Y-59810000D03*
X230040000Y-63010000D03*
X234940000Y-59810000D03*
X234940000Y-63010000D03*
M02*
