M48
INCH,TZ
T1C0.0157
T2C0.0394
T3C0.0512
%
G90
G05
T1
X64110Y-37472
X64138Y-44461
X64142Y-32823
X64154Y-39823
X64154Y-42150
X64154Y-46787
X64161Y-35150
X66945Y-37472
X66972Y-44461
X66980Y-32823
X66984Y-30516
X66988Y-39823
X66988Y-42150
X66988Y-46787
X66996Y-35150
X67035Y-49091
X69780Y-37472
X69807Y-44461
X69819Y-32823
X69823Y-39823
X69823Y-42150
X69823Y-46787
X69827Y-30516
X69831Y-35150
X69835Y-51433
X69870Y-49091
X69870Y-49091
X72614Y-37472
X72642Y-44461
X72657Y-32823
X72657Y-39823
X72657Y-42150
X72657Y-46787
X72665Y-35150
X72669Y-30516
X72669Y-51433
X72705Y-49091
X72705Y-49091
X75449Y-37472
X75476Y-44461
X75492Y-39823
X75492Y-42150
X75492Y-46787
X75496Y-32823
X75500Y-35150
X75504Y-51433
X75512Y-30516
X75539Y-49091
X75539Y-49091
X78283Y-37472
X78311Y-25854
X78311Y-44461
X78327Y-28209
X78327Y-39823
X78327Y-42150
X78327Y-46787
X78335Y-32823
X78335Y-35150
X78339Y-51433
X78354Y-30516
X78374Y-49091
X78374Y-49091
X81118Y-37472
X81146Y-44461
X81154Y-25854
X81161Y-39823
X81161Y-42150
X81161Y-46787
X81165Y-23555
X81169Y-28209
X81169Y-35150
X81173Y-32823
X81173Y-51433
X81197Y-30516
X81209Y-49091
X81209Y-49091
X83953Y-37472
X83980Y-44461
X83996Y-25854
X83996Y-39823
X83996Y-42150
X83996Y-46787
X84004Y-23555
X84004Y-35150
X84008Y-51433
X84012Y-28209
X84012Y-32823
X84028Y-21232
X84039Y-30516
X84043Y-49091
X84043Y-49091
X86787Y-37472
X86815Y-44461
X86831Y-39823
X86831Y-42150
X86831Y-46787
X86839Y-25854
X86839Y-35150
X86843Y-51433
X86846Y-21236
X86850Y-32823
X86854Y-28209
X86878Y-49091
X86878Y-49091
X86882Y-30516
X86894Y-23571
X89622Y-37472
X89650Y-44461
X89665Y-39823
X89665Y-42150
X89665Y-46787
X89673Y-35150
X89677Y-51433
X89681Y-25854
X89689Y-32823
X89693Y-21236
X89697Y-28209
X89701Y-23571
X89713Y-49091
X89713Y-49091
X89724Y-30516
X92457Y-37472
X92484Y-44461
X92500Y-39823
X92500Y-42150
X92500Y-46787
X92508Y-35150
X92512Y-23555
X92512Y-51433
X92524Y-25854
X92528Y-32823
X92539Y-28209
X92547Y-49091
X92547Y-49091
X92567Y-30516
X95291Y-37472
X95319Y-44461
X95335Y-39823
X95335Y-42150
X95335Y-46787
X95343Y-35150
X95346Y-51433
X95366Y-25854
X95366Y-32823
X95382Y-23555
X95382Y-28209
X95382Y-49091
X95382Y-49091
X95409Y-30516
X98126Y-37472
X98154Y-44461
X98169Y-39823
X98169Y-42150
X98169Y-46787
X98177Y-35150
X98181Y-51433
X98205Y-32823
X98217Y-49091
X98217Y-49091
X98224Y-28209
X98252Y-30516
X100961Y-37472
X100988Y-44461
X101004Y-39823
X101004Y-42150
X101004Y-46787
X101012Y-35150
X101016Y-51433
X101043Y-32823
X101051Y-49091
X101051Y-49091
X101094Y-30516
X103795Y-37472
X103823Y-44461
X103839Y-39823
X103839Y-42150
X103839Y-46787
X103846Y-35150
X103850Y-51433
X103882Y-32823
X103886Y-49091
X103886Y-49091
X103937Y-30516
X106630Y-37472
X106657Y-44461
X106673Y-39823
X106673Y-42150
X106673Y-46787
X106681Y-35150
X106685Y-51433
X106720Y-32823
X106720Y-49091
X106720Y-49091
X109465Y-37472
X109492Y-44461
X109508Y-39823
X109508Y-42150
X109508Y-46787
X109516Y-35150
X109555Y-49091
T2
X45906Y-35429
X45906Y-36429
X45906Y-37429
X45906Y-38429
X45906Y-39429
X45906Y-40429
X45906Y-41429
X45906Y-42429
X45906Y-43429
X45906Y-44429
X45906Y-45429
X45906Y-46429
X45906Y-47429
X45906Y-48429
X45906Y-49429
X55906Y-35429
X55906Y-36429
X55906Y-37429
X55906Y-38429
X55906Y-39429
X55906Y-40429
X55906Y-41429
X55906Y-42429
X55906Y-43429
X55906Y-44429
X55906Y-45429
X55906Y-46429
X55906Y-47429
X55906Y-48429
X55906Y-49429
X42106Y-35429
X42106Y-36429
X42106Y-37429
X42106Y-38429
X42106Y-39429
X42106Y-40429
X42106Y-41429
X42106Y-42429
X42106Y-43429
X42106Y-44429
X42106Y-45429
X42106Y-46429
X42106Y-47429
X42106Y-48429
X42106Y-49429
X59705Y-35429
X59705Y-36429
X59705Y-37429
X59705Y-38429
X59705Y-39429
X59705Y-40429
X59705Y-41429
X59705Y-42429
X59705Y-43429
X59705Y-44429
X59705Y-45429
X59705Y-46429
X59705Y-47429
X59705Y-48429
X59705Y-49429
T3
X63717Y-21654
X65717Y-21654
X67717Y-21654
T0
M30
